G75*
G70*
%OFA0B0*%
%FSLAX25Y25*%
%IPPOS*%
%LPD*%
%AMOC8*
5,1,8,0,0,1.08239X$1,22.5*
%
%AMM11*
21,1,0.023620,0.018900,0.000000,0.000000,90.000000*
21,1,0.018900,0.023620,0.000000,0.000000,90.000000*
1,1,0.004720,0.009450,0.009450*
1,1,0.004720,0.009450,-0.009450*
1,1,0.004720,-0.009450,-0.009450*
1,1,0.004720,-0.009450,0.009450*
%
%AMM117*
21,1,0.023620,0.018900,0.000000,-0.000000,90.000000*
21,1,0.018900,0.023620,0.000000,-0.000000,90.000000*
1,1,0.004720,0.009450,0.009450*
1,1,0.004720,0.009450,-0.009450*
1,1,0.004720,-0.009450,-0.009450*
1,1,0.004720,-0.009450,0.009450*
%
%AMM118*
21,1,0.019680,0.019680,0.000000,-0.000000,180.000000*
21,1,0.015750,0.023620,0.000000,-0.000000,180.000000*
1,1,0.003940,-0.007870,0.009840*
1,1,0.003940,0.007870,0.009840*
1,1,0.003940,0.007870,-0.009840*
1,1,0.003940,-0.007870,-0.009840*
%
%AMM119*
21,1,0.033470,0.026770,0.000000,-0.000000,180.000000*
21,1,0.026770,0.033470,0.000000,-0.000000,180.000000*
1,1,0.006690,-0.013390,0.013390*
1,1,0.006690,0.013390,0.013390*
1,1,0.006690,0.013390,-0.013390*
1,1,0.006690,-0.013390,-0.013390*
%
%AMM12*
21,1,0.019680,0.019680,0.000000,0.000000,0.000000*
21,1,0.015750,0.023620,0.000000,0.000000,0.000000*
1,1,0.003940,0.007870,-0.009840*
1,1,0.003940,-0.007870,-0.009840*
1,1,0.003940,-0.007870,0.009840*
1,1,0.003940,0.007870,0.009840*
%
%AMM120*
21,1,0.019680,0.019680,0.000000,-0.000000,270.000000*
21,1,0.015750,0.023620,0.000000,-0.000000,270.000000*
1,1,0.003940,-0.009840,-0.007870*
1,1,0.003940,-0.009840,0.007870*
1,1,0.003940,0.009840,0.007870*
1,1,0.003940,0.009840,-0.007870*
%
%AMM13*
21,1,0.019680,0.019680,0.000000,0.000000,270.000000*
21,1,0.015750,0.023620,0.000000,0.000000,270.000000*
1,1,0.003940,-0.009840,-0.007870*
1,1,0.003940,-0.009840,0.007870*
1,1,0.003940,0.009840,0.007870*
1,1,0.003940,0.009840,-0.007870*
%
%AMM183*
21,1,0.025590,0.026380,-0.000000,-0.000000,90.000000*
21,1,0.020470,0.031500,-0.000000,-0.000000,90.000000*
1,1,0.005120,0.013190,0.010240*
1,1,0.005120,0.013190,-0.010240*
1,1,0.005120,-0.013190,-0.010240*
1,1,0.005120,-0.013190,0.010240*
%
%AMM184*
21,1,0.017720,0.027950,-0.000000,-0.000000,90.000000*
21,1,0.014170,0.031500,-0.000000,-0.000000,90.000000*
1,1,0.003540,0.013980,0.007090*
1,1,0.003540,0.013980,-0.007090*
1,1,0.003540,-0.013980,-0.007090*
1,1,0.003540,-0.013980,0.007090*
%
%AMM187*
21,1,0.027560,0.018900,-0.000000,-0.000000,270.000000*
21,1,0.022840,0.023620,-0.000000,-0.000000,270.000000*
1,1,0.004720,-0.009450,-0.011420*
1,1,0.004720,-0.009450,0.011420*
1,1,0.004720,0.009450,0.011420*
1,1,0.004720,0.009450,-0.011420*
%
%AMM189*
21,1,0.027560,0.018900,-0.000000,-0.000000,0.000000*
21,1,0.022840,0.023620,-0.000000,-0.000000,0.000000*
1,1,0.004720,0.011420,-0.009450*
1,1,0.004720,-0.011420,-0.009450*
1,1,0.004720,-0.011420,0.009450*
1,1,0.004720,0.011420,0.009450*
%
%AMM191*
21,1,0.035430,0.030320,-0.000000,-0.000000,90.000000*
21,1,0.028350,0.037400,-0.000000,-0.000000,90.000000*
1,1,0.007090,0.015160,0.014170*
1,1,0.007090,0.015160,-0.014170*
1,1,0.007090,-0.015160,-0.014170*
1,1,0.007090,-0.015160,0.014170*
%
%AMM194*
21,1,0.027560,0.030710,-0.000000,-0.000000,180.000000*
21,1,0.022050,0.036220,-0.000000,-0.000000,180.000000*
1,1,0.005510,-0.011020,0.015350*
1,1,0.005510,0.011020,0.015350*
1,1,0.005510,0.011020,-0.015350*
1,1,0.005510,-0.011020,-0.015350*
%
%AMM215*
21,1,0.033470,0.026770,-0.000000,-0.000000,270.000000*
21,1,0.026770,0.033470,-0.000000,-0.000000,270.000000*
1,1,0.006690,-0.013390,-0.013390*
1,1,0.006690,-0.013390,0.013390*
1,1,0.006690,0.013390,0.013390*
1,1,0.006690,0.013390,-0.013390*
%
%AMM216*
21,1,0.025590,0.026380,-0.000000,-0.000000,180.000000*
21,1,0.020470,0.031500,-0.000000,-0.000000,180.000000*
1,1,0.005120,-0.010240,0.013190*
1,1,0.005120,0.010240,0.013190*
1,1,0.005120,0.010240,-0.013190*
1,1,0.005120,-0.010240,-0.013190*
%
%AMM217*
21,1,0.017720,0.027950,-0.000000,-0.000000,180.000000*
21,1,0.014170,0.031500,-0.000000,-0.000000,180.000000*
1,1,0.003540,-0.007090,0.013980*
1,1,0.003540,0.007090,0.013980*
1,1,0.003540,0.007090,-0.013980*
1,1,0.003540,-0.007090,-0.013980*
%
%AMM218*
21,1,0.033470,0.026770,-0.000000,-0.000000,180.000000*
21,1,0.026770,0.033470,-0.000000,-0.000000,180.000000*
1,1,0.006690,-0.013390,0.013390*
1,1,0.006690,0.013390,0.013390*
1,1,0.006690,0.013390,-0.013390*
1,1,0.006690,-0.013390,-0.013390*
%
%AMM219*
21,1,0.078740,0.045670,-0.000000,-0.000000,0.000000*
21,1,0.067320,0.057090,-0.000000,-0.000000,0.000000*
1,1,0.011420,0.033660,-0.022840*
1,1,0.011420,-0.033660,-0.022840*
1,1,0.011420,-0.033660,0.022840*
1,1,0.011420,0.033660,0.022840*
%
%AMM220*
21,1,0.059060,0.020470,-0.000000,-0.000000,0.000000*
21,1,0.053940,0.025590,-0.000000,-0.000000,0.000000*
1,1,0.005120,0.026970,-0.010240*
1,1,0.005120,-0.026970,-0.010240*
1,1,0.005120,-0.026970,0.010240*
1,1,0.005120,0.026970,0.010240*
%
%AMM221*
21,1,0.035430,0.030320,-0.000000,-0.000000,0.000000*
21,1,0.028350,0.037400,-0.000000,-0.000000,0.000000*
1,1,0.007090,0.014170,-0.015160*
1,1,0.007090,-0.014170,-0.015160*
1,1,0.007090,-0.014170,0.015160*
1,1,0.007090,0.014170,0.015160*
%
%AMM222*
21,1,0.012600,0.028980,-0.000000,-0.000000,0.000000*
21,1,0.010080,0.031500,-0.000000,-0.000000,0.000000*
1,1,0.002520,0.005040,-0.014490*
1,1,0.002520,-0.005040,-0.014490*
1,1,0.002520,-0.005040,0.014490*
1,1,0.002520,0.005040,0.014490*
%
%AMM223*
21,1,0.070870,0.036220,-0.000000,-0.000000,180.000000*
21,1,0.061810,0.045280,-0.000000,-0.000000,180.000000*
1,1,0.009060,-0.030910,0.018110*
1,1,0.009060,0.030910,0.018110*
1,1,0.009060,0.030910,-0.018110*
1,1,0.009060,-0.030910,-0.018110*
%
%AMM224*
21,1,0.035830,0.026770,-0.000000,-0.000000,180.000000*
21,1,0.029130,0.033470,-0.000000,-0.000000,180.000000*
1,1,0.006690,-0.014570,0.013390*
1,1,0.006690,0.014570,0.013390*
1,1,0.006690,0.014570,-0.013390*
1,1,0.006690,-0.014570,-0.013390*
%
%AMM225*
21,1,0.027560,0.049610,-0.000000,-0.000000,180.000000*
21,1,0.022050,0.055120,-0.000000,-0.000000,180.000000*
1,1,0.005510,-0.011020,0.024800*
1,1,0.005510,0.011020,0.024800*
1,1,0.005510,0.011020,-0.024800*
1,1,0.005510,-0.011020,-0.024800*
%
%AMM226*
21,1,0.070870,0.036220,-0.000000,-0.000000,270.000000*
21,1,0.061810,0.045280,-0.000000,-0.000000,270.000000*
1,1,0.009060,-0.018110,-0.030910*
1,1,0.009060,-0.018110,0.030910*
1,1,0.009060,0.018110,0.030910*
1,1,0.009060,0.018110,-0.030910*
%
%AMM227*
21,1,0.027560,0.030710,-0.000000,-0.000000,270.000000*
21,1,0.022050,0.036220,-0.000000,-0.000000,270.000000*
1,1,0.005510,-0.015350,-0.011020*
1,1,0.005510,-0.015350,0.011020*
1,1,0.005510,0.015350,0.011020*
1,1,0.005510,0.015350,-0.011020*
%
%AMM27*
21,1,0.106300,0.050390,0.000000,0.000000,90.000000*
21,1,0.093700,0.062990,0.000000,0.000000,90.000000*
1,1,0.012600,0.025200,0.046850*
1,1,0.012600,0.025200,-0.046850*
1,1,0.012600,-0.025200,-0.046850*
1,1,0.012600,-0.025200,0.046850*
%
%AMM28*
21,1,0.033470,0.026770,0.000000,0.000000,270.000000*
21,1,0.026770,0.033470,0.000000,0.000000,270.000000*
1,1,0.006690,-0.013390,-0.013390*
1,1,0.006690,-0.013390,0.013390*
1,1,0.006690,0.013390,0.013390*
1,1,0.006690,0.013390,-0.013390*
%
%AMM29*
21,1,0.023620,0.018900,0.000000,0.000000,180.000000*
21,1,0.018900,0.023620,0.000000,0.000000,180.000000*
1,1,0.004720,-0.009450,0.009450*
1,1,0.004720,0.009450,0.009450*
1,1,0.004720,0.009450,-0.009450*
1,1,0.004720,-0.009450,-0.009450*
%
%AMM30*
21,1,0.122050,0.075590,0.000000,0.000000,180.000000*
21,1,0.103150,0.094490,0.000000,0.000000,180.000000*
1,1,0.018900,-0.051580,0.037800*
1,1,0.018900,0.051580,0.037800*
1,1,0.018900,0.051580,-0.037800*
1,1,0.018900,-0.051580,-0.037800*
%
%AMM31*
21,1,0.118110,0.083460,0.000000,0.000000,0.000000*
21,1,0.097240,0.104330,0.000000,0.000000,0.000000*
1,1,0.020870,0.048620,-0.041730*
1,1,0.020870,-0.048620,-0.041730*
1,1,0.020870,-0.048620,0.041730*
1,1,0.020870,0.048620,0.041730*
%
%AMM7*
21,1,0.035830,0.026770,0.000000,0.000000,0.000000*
21,1,0.029130,0.033470,0.000000,0.000000,0.000000*
1,1,0.006690,0.014570,-0.013390*
1,1,0.006690,-0.014570,-0.013390*
1,1,0.006690,-0.014570,0.013390*
1,1,0.006690,0.014570,0.013390*
%
%AMM8*
21,1,0.070870,0.036220,0.000000,0.000000,90.000000*
21,1,0.061810,0.045280,0.000000,0.000000,90.000000*
1,1,0.009060,0.018110,0.030910*
1,1,0.009060,0.018110,-0.030910*
1,1,0.009060,-0.018110,-0.030910*
1,1,0.009060,-0.018110,0.030910*
%
%ADD108M7*%
%ADD109M8*%
%ADD112M11*%
%ADD113M12*%
%ADD114M13*%
%ADD132M27*%
%ADD133M28*%
%ADD134M29*%
%ADD135O,0.01968X0.08661*%
%ADD136M30*%
%ADD137M31*%
%ADD235R,0.01378X0.01476*%
%ADD238O,0.04961X0.00984*%
%ADD240R,0.09449X0.06693*%
%ADD241R,0.01476X0.01378*%
%ADD243R,0.03937X0.04331*%
%ADD298M117*%
%ADD299M118*%
%ADD300M119*%
%ADD301M120*%
%ADD312R,0.01772X0.05709*%
%ADD313R,0.02559X0.04803*%
%ADD392M183*%
%ADD393M184*%
%ADD396M187*%
%ADD398M189*%
%ADD400M191*%
%ADD403M194*%
%ADD424M215*%
%ADD425M216*%
%ADD426M217*%
%ADD427M218*%
%ADD428M219*%
%ADD429M220*%
%ADD430M221*%
%ADD431M222*%
%ADD432M223*%
%ADD433M224*%
%ADD434M225*%
%ADD435M226*%
%ADD436M227*%
%ADD57R,0.00787X0.14567*%
%ADD58R,0.00787X0.01575*%
%ADD59R,0.00787X0.06299*%
%ADD60R,0.00787X0.38189*%
%ADD61R,0.00787X0.09055*%
%ADD62R,0.05512X0.00787*%
%ADD63R,0.25197X0.00787*%
%ADD64R,0.06693X0.00787*%
%ADD65R,0.12992X0.00787*%
%ADD66R,0.00787X0.27559*%
%ADD67R,0.00787X0.12992*%
%ADD68R,0.00787X0.24803*%
%ADD95R,0.09055X0.17323*%
%ADD96R,0.09055X0.15748*%
X0000000Y0000000D02*
%LPD*%
G01*
G36*
G01*
X0214173Y0319968D02*
X0215354Y0319968D01*
G75*
G02*
X0215945Y0319377I0000000J-000591D01*
G01*
X0215945Y0314751D01*
G75*
G02*
X0215354Y0314160I-000591J0000000D01*
G01*
X0214173Y0314160D01*
G75*
G02*
X0213583Y0314751I0000000J0000591D01*
G01*
X0213583Y0319377D01*
G75*
G02*
X0214173Y0319968I0000591J0000000D01*
G01*
G37*
G36*
G01*
X0221654Y0319968D02*
X0222835Y0319968D01*
G75*
G02*
X0223425Y0319377I0000000J-000591D01*
G01*
X0223425Y0314751D01*
G75*
G02*
X0222835Y0314160I-000591J0000000D01*
G01*
X0221654Y0314160D01*
G75*
G02*
X0221063Y0314751I0000000J0000591D01*
G01*
X0221063Y0319377D01*
G75*
G02*
X0221654Y0319968I0000591J0000000D01*
G01*
G37*
G36*
G01*
X0217913Y0312586D02*
X0219094Y0312586D01*
G75*
G02*
X0219685Y0311995I0000000J-000591D01*
G01*
X0219685Y0307369D01*
G75*
G02*
X0219094Y0306779I-000591J0000000D01*
G01*
X0217913Y0306779D01*
G75*
G02*
X0217323Y0307369I0000000J0000591D01*
G01*
X0217323Y0311995D01*
G75*
G02*
X0217913Y0312586I0000591J0000000D01*
G01*
G37*
G36*
G01*
X0049803Y0053050D02*
X0045669Y0053050D01*
G75*
G02*
X0045276Y0053444I0000000J0000394D01*
G01*
X0045276Y0056593D01*
G75*
G02*
X0045669Y0056987I0000394J0000000D01*
G01*
X0049803Y0056987D01*
G75*
G02*
X0050197Y0056593I0000000J-000394D01*
G01*
X0050197Y0053444D01*
G75*
G02*
X0049803Y0053050I-000394J0000000D01*
G01*
G37*
G36*
G01*
X0049803Y0060924D02*
X0045669Y0060924D01*
G75*
G02*
X0045276Y0061318I0000000J0000394D01*
G01*
X0045276Y0064467D01*
G75*
G02*
X0045669Y0064861I0000394J0000000D01*
G01*
X0049803Y0064861D01*
G75*
G02*
X0050197Y0064467I0000000J-000394D01*
G01*
X0050197Y0061318D01*
G75*
G02*
X0049803Y0060924I-000394J0000000D01*
G01*
G37*
G36*
G01*
X0241969Y0261141D02*
X0244646Y0261141D01*
G75*
G02*
X0244980Y0260806I0000000J-000335D01*
G01*
X0244980Y0258129D01*
G75*
G02*
X0244646Y0257794I-000335J0000000D01*
G01*
X0241969Y0257794D01*
G75*
G02*
X0241634Y0258129I0000000J0000335D01*
G01*
X0241634Y0260806D01*
G75*
G02*
X0241969Y0261141I0000335J0000000D01*
G01*
G37*
G36*
G01*
X0241969Y0254920D02*
X0244646Y0254920D01*
G75*
G02*
X0244980Y0254586I0000000J-000335D01*
G01*
X0244980Y0251908D01*
G75*
G02*
X0244646Y0251574I-000335J0000000D01*
G01*
X0241969Y0251574D01*
G75*
G02*
X0241634Y0251908I0000000J0000335D01*
G01*
X0241634Y0254586D01*
G75*
G02*
X0241969Y0254920I0000335J0000000D01*
G01*
G37*
G36*
G01*
X0076811Y0298877D02*
X0072795Y0298877D01*
G75*
G02*
X0072441Y0299231I0000000J0000354D01*
G01*
X0072441Y0302066D01*
G75*
G02*
X0072795Y0302420I0000354J0000000D01*
G01*
X0076811Y0302420D01*
G75*
G02*
X0077165Y0302066I0000000J-000354D01*
G01*
X0077165Y0299231D01*
G75*
G02*
X0076811Y0298877I-000354J0000000D01*
G01*
G37*
G36*
G01*
X0076811Y0311869D02*
X0072795Y0311869D01*
G75*
G02*
X0072441Y0312223I0000000J0000354D01*
G01*
X0072441Y0315058D01*
G75*
G02*
X0072795Y0315412I0000354J0000000D01*
G01*
X0076811Y0315412D01*
G75*
G02*
X0077165Y0315058I0000000J-000354D01*
G01*
X0077165Y0312223D01*
G75*
G02*
X0076811Y0311869I-000354J0000000D01*
G01*
G37*
D95*
X0362205Y0068956D03*
D96*
X0362205Y0131948D03*
G36*
G01*
X0004311Y0247696D02*
X0005492Y0247696D01*
G75*
G02*
X0006083Y0247105I0000000J-000591D01*
G01*
X0006083Y0240609D01*
G75*
G02*
X0005492Y0240019I-000591J0000000D01*
G01*
X0004311Y0240019D01*
G75*
G02*
X0003720Y0240609I0000000J0000591D01*
G01*
X0003720Y0247105D01*
G75*
G02*
X0004311Y0247696I0000591J0000000D01*
G01*
G37*
G36*
G01*
X0009311Y0247696D02*
X0010492Y0247696D01*
G75*
G02*
X0011083Y0247105I0000000J-000591D01*
G01*
X0011083Y0240609D01*
G75*
G02*
X0010492Y0240019I-000591J0000000D01*
G01*
X0009311Y0240019D01*
G75*
G02*
X0008720Y0240609I0000000J0000591D01*
G01*
X0008720Y0247105D01*
G75*
G02*
X0009311Y0247696I0000591J0000000D01*
G01*
G37*
G36*
G01*
X0014311Y0247696D02*
X0015492Y0247696D01*
G75*
G02*
X0016083Y0247105I0000000J-000591D01*
G01*
X0016083Y0240609D01*
G75*
G02*
X0015492Y0240019I-000591J0000000D01*
G01*
X0014311Y0240019D01*
G75*
G02*
X0013720Y0240609I0000000J0000591D01*
G01*
X0013720Y0247105D01*
G75*
G02*
X0014311Y0247696I0000591J0000000D01*
G01*
G37*
G36*
G01*
X0019311Y0247696D02*
X0020492Y0247696D01*
G75*
G02*
X0021083Y0247105I0000000J-000591D01*
G01*
X0021083Y0240609D01*
G75*
G02*
X0020492Y0240019I-000591J0000000D01*
G01*
X0019311Y0240019D01*
G75*
G02*
X0018720Y0240609I0000000J0000591D01*
G01*
X0018720Y0247105D01*
G75*
G02*
X0019311Y0247696I0000591J0000000D01*
G01*
G37*
G36*
G01*
X0019311Y0228208D02*
X0020492Y0228208D01*
G75*
G02*
X0021083Y0227617I0000000J-000591D01*
G01*
X0021083Y0221121D01*
G75*
G02*
X0020492Y0220530I-000591J0000000D01*
G01*
X0019311Y0220530D01*
G75*
G02*
X0018720Y0221121I0000000J0000591D01*
G01*
X0018720Y0227617D01*
G75*
G02*
X0019311Y0228208I0000591J0000000D01*
G01*
G37*
G36*
G01*
X0014311Y0228208D02*
X0015492Y0228208D01*
G75*
G02*
X0016083Y0227617I0000000J-000591D01*
G01*
X0016083Y0221121D01*
G75*
G02*
X0015492Y0220530I-000591J0000000D01*
G01*
X0014311Y0220530D01*
G75*
G02*
X0013720Y0221121I0000000J0000591D01*
G01*
X0013720Y0227617D01*
G75*
G02*
X0014311Y0228208I0000591J0000000D01*
G01*
G37*
G36*
G01*
X0009311Y0228208D02*
X0010492Y0228208D01*
G75*
G02*
X0011083Y0227617I0000000J-000591D01*
G01*
X0011083Y0221121D01*
G75*
G02*
X0010492Y0220530I-000591J0000000D01*
G01*
X0009311Y0220530D01*
G75*
G02*
X0008720Y0221121I0000000J0000591D01*
G01*
X0008720Y0227617D01*
G75*
G02*
X0009311Y0228208I0000591J0000000D01*
G01*
G37*
G36*
G01*
X0004311Y0228208D02*
X0005492Y0228208D01*
G75*
G02*
X0006083Y0227617I0000000J-000591D01*
G01*
X0006083Y0221121D01*
G75*
G02*
X0005492Y0220530I-000591J0000000D01*
G01*
X0004311Y0220530D01*
G75*
G02*
X0003720Y0221121I0000000J0000591D01*
G01*
X0003720Y0227617D01*
G75*
G02*
X0004311Y0228208I0000591J0000000D01*
G01*
G37*
G36*
G01*
X0011575Y0160097D02*
X0008504Y0160097D01*
G75*
G02*
X0008228Y0160373I0000000J0000276D01*
G01*
X0008228Y0162578D01*
G75*
G02*
X0008504Y0162853I0000276J0000000D01*
G01*
X0011575Y0162853D01*
G75*
G02*
X0011850Y0162578I0000000J-000276D01*
G01*
X0011850Y0160373D01*
G75*
G02*
X0011575Y0160097I-000276J0000000D01*
G01*
G37*
G36*
G01*
X0011575Y0166397D02*
X0008504Y0166397D01*
G75*
G02*
X0008228Y0166672I0000000J0000276D01*
G01*
X0008228Y0168877D01*
G75*
G02*
X0008504Y0169152I0000276J0000000D01*
G01*
X0011575Y0169152D01*
G75*
G02*
X0011850Y0168877I0000000J-000276D01*
G01*
X0011850Y0166672D01*
G75*
G02*
X0011575Y0166397I-000276J0000000D01*
G01*
G37*
G36*
G01*
X0229941Y0326593D02*
X0229941Y0323916D01*
G75*
G02*
X0229606Y0323582I-000335J0000000D01*
G01*
X0226929Y0323582D01*
G75*
G02*
X0226594Y0323916I0000000J0000335D01*
G01*
X0226594Y0326593D01*
G75*
G02*
X0226929Y0326928I0000335J0000000D01*
G01*
X0229606Y0326928D01*
G75*
G02*
X0229941Y0326593I0000000J-000335D01*
G01*
G37*
G36*
G01*
X0223720Y0326593D02*
X0223720Y0323916D01*
G75*
G02*
X0223386Y0323582I-000335J0000000D01*
G01*
X0220709Y0323582D01*
G75*
G02*
X0220374Y0323916I0000000J0000335D01*
G01*
X0220374Y0326593D01*
G75*
G02*
X0220709Y0326928I0000335J0000000D01*
G01*
X0223386Y0326928D01*
G75*
G02*
X0223720Y0326593I0000000J-000335D01*
G01*
G37*
G36*
G01*
X0026181Y0053050D02*
X0022047Y0053050D01*
G75*
G02*
X0021654Y0053444I0000000J0000394D01*
G01*
X0021654Y0056593D01*
G75*
G02*
X0022047Y0056987I0000394J0000000D01*
G01*
X0026181Y0056987D01*
G75*
G02*
X0026575Y0056593I0000000J-000394D01*
G01*
X0026575Y0053444D01*
G75*
G02*
X0026181Y0053050I-000394J0000000D01*
G01*
G37*
G36*
G01*
X0026181Y0060924D02*
X0022047Y0060924D01*
G75*
G02*
X0021654Y0061318I0000000J0000394D01*
G01*
X0021654Y0064467D01*
G75*
G02*
X0022047Y0064861I0000394J0000000D01*
G01*
X0026181Y0064861D01*
G75*
G02*
X0026575Y0064467I0000000J-000394D01*
G01*
X0026575Y0061318D01*
G75*
G02*
X0026181Y0060924I-000394J0000000D01*
G01*
G37*
G36*
G01*
X0380551Y0138700D02*
X0383228Y0138700D01*
G75*
G02*
X0383563Y0138365I0000000J-000335D01*
G01*
X0383563Y0135688D01*
G75*
G02*
X0383228Y0135353I-000335J0000000D01*
G01*
X0380551Y0135353D01*
G75*
G02*
X0380217Y0135688I0000000J0000335D01*
G01*
X0380217Y0138365D01*
G75*
G02*
X0380551Y0138700I0000335J0000000D01*
G01*
G37*
G36*
G01*
X0380551Y0132479D02*
X0383228Y0132479D01*
G75*
G02*
X0383563Y0132145I0000000J-000335D01*
G01*
X0383563Y0129467D01*
G75*
G02*
X0383228Y0129133I-000335J0000000D01*
G01*
X0380551Y0129133D01*
G75*
G02*
X0380217Y0129467I0000000J0000335D01*
G01*
X0380217Y0132145D01*
G75*
G02*
X0380551Y0132479I0000335J0000000D01*
G01*
G37*
G36*
G01*
X0213720Y0302192D02*
X0213720Y0304869D01*
G75*
G02*
X0214055Y0305204I0000335J0000000D01*
G01*
X0216732Y0305204D01*
G75*
G02*
X0217067Y0304869I0000000J-000335D01*
G01*
X0217067Y0302192D01*
G75*
G02*
X0216732Y0301857I-000335J0000000D01*
G01*
X0214055Y0301857D01*
G75*
G02*
X0213720Y0302192I0000000J0000335D01*
G01*
G37*
G36*
G01*
X0219941Y0302192D02*
X0219941Y0304869D01*
G75*
G02*
X0220276Y0305204I0000335J0000000D01*
G01*
X0222953Y0305204D01*
G75*
G02*
X0223287Y0304869I0000000J-000335D01*
G01*
X0223287Y0302192D01*
G75*
G02*
X0222953Y0301857I-000335J0000000D01*
G01*
X0220276Y0301857D01*
G75*
G02*
X0219941Y0302192I0000000J0000335D01*
G01*
G37*
G36*
G01*
X0024764Y0160097D02*
X0021693Y0160097D01*
G75*
G02*
X0021417Y0160373I0000000J0000276D01*
G01*
X0021417Y0162578D01*
G75*
G02*
X0021693Y0162853I0000276J0000000D01*
G01*
X0024764Y0162853D01*
G75*
G02*
X0025039Y0162578I0000000J-000276D01*
G01*
X0025039Y0160373D01*
G75*
G02*
X0024764Y0160097I-000276J0000000D01*
G01*
G37*
G36*
G01*
X0024764Y0166397D02*
X0021693Y0166397D01*
G75*
G02*
X0021417Y0166672I0000000J0000276D01*
G01*
X0021417Y0168877D01*
G75*
G02*
X0021693Y0169152I0000276J0000000D01*
G01*
X0024764Y0169152D01*
G75*
G02*
X0025039Y0168877I0000000J-000276D01*
G01*
X0025039Y0166672D01*
G75*
G02*
X0024764Y0166397I-000276J0000000D01*
G01*
G37*
G36*
G01*
X0063287Y0043365D02*
X0067421Y0043365D01*
G75*
G02*
X0067815Y0042971I0000000J-000394D01*
G01*
X0067815Y0039822D01*
G75*
G02*
X0067421Y0039428I-000394J0000000D01*
G01*
X0063287Y0039428D01*
G75*
G02*
X0062894Y0039822I0000000J0000394D01*
G01*
X0062894Y0042971D01*
G75*
G02*
X0063287Y0043365I0000394J0000000D01*
G01*
G37*
G36*
G01*
X0063287Y0035491D02*
X0067421Y0035491D01*
G75*
G02*
X0067815Y0035097I0000000J-000394D01*
G01*
X0067815Y0031948D01*
G75*
G02*
X0067421Y0031554I-000394J0000000D01*
G01*
X0063287Y0031554D01*
G75*
G02*
X0062894Y0031948I0000000J0000394D01*
G01*
X0062894Y0035097D01*
G75*
G02*
X0063287Y0035491I0000394J0000000D01*
G01*
G37*
G36*
G01*
X0108169Y0251338D02*
X0108169Y0240117D01*
G75*
G02*
X0107185Y0239133I-000984J0000000D01*
G01*
X0104331Y0239133D01*
G75*
G02*
X0103346Y0240117I0000000J0000984D01*
G01*
X0103346Y0251338D01*
G75*
G02*
X0104331Y0252322I0000984J0000000D01*
G01*
X0107185Y0252322D01*
G75*
G02*
X0108169Y0251338I0000000J-000984D01*
G01*
G37*
G36*
G01*
X0084843Y0251338D02*
X0084843Y0240117D01*
G75*
G02*
X0083858Y0239133I-000984J0000000D01*
G01*
X0081004Y0239133D01*
G75*
G02*
X0080020Y0240117I0000000J0000984D01*
G01*
X0080020Y0251338D01*
G75*
G02*
X0081004Y0252322I0000984J0000000D01*
G01*
X0083858Y0252322D01*
G75*
G02*
X0084843Y0251338I0000000J-000984D01*
G01*
G37*
G36*
G01*
X0029921Y0080609D02*
X0034055Y0080609D01*
G75*
G02*
X0034449Y0080215I0000000J-000394D01*
G01*
X0034449Y0077066D01*
G75*
G02*
X0034055Y0076672I-000394J0000000D01*
G01*
X0029921Y0076672D01*
G75*
G02*
X0029528Y0077066I0000000J0000394D01*
G01*
X0029528Y0080215D01*
G75*
G02*
X0029921Y0080609I0000394J0000000D01*
G01*
G37*
G36*
G01*
X0029921Y0072735D02*
X0034055Y0072735D01*
G75*
G02*
X0034449Y0072341I0000000J-000394D01*
G01*
X0034449Y0069192D01*
G75*
G02*
X0034055Y0068798I-000394J0000000D01*
G01*
X0029921Y0068798D01*
G75*
G02*
X0029528Y0069192I0000000J0000394D01*
G01*
X0029528Y0072341D01*
G75*
G02*
X0029921Y0072735I0000394J0000000D01*
G01*
G37*
G36*
G01*
X0075295Y0015806D02*
X0071161Y0015806D01*
G75*
G02*
X0070768Y0016200I0000000J0000394D01*
G01*
X0070768Y0019349D01*
G75*
G02*
X0071161Y0019743I0000394J0000000D01*
G01*
X0075295Y0019743D01*
G75*
G02*
X0075689Y0019349I0000000J-000394D01*
G01*
X0075689Y0016200D01*
G75*
G02*
X0075295Y0015806I-000394J0000000D01*
G01*
G37*
G36*
G01*
X0075295Y0023680D02*
X0071161Y0023680D01*
G75*
G02*
X0070768Y0024074I0000000J0000394D01*
G01*
X0070768Y0027223D01*
G75*
G02*
X0071161Y0027617I0000394J0000000D01*
G01*
X0075295Y0027617D01*
G75*
G02*
X0075689Y0027223I0000000J-000394D01*
G01*
X0075689Y0024074D01*
G75*
G02*
X0075295Y0023680I-000394J0000000D01*
G01*
G37*
G36*
G01*
X0210413Y0296318D02*
X0211594Y0296318D01*
G75*
G02*
X0212185Y0295727I0000000J-000591D01*
G01*
X0212185Y0289231D01*
G75*
G02*
X0211594Y0288641I-000591J0000000D01*
G01*
X0210413Y0288641D01*
G75*
G02*
X0209823Y0289231I0000000J0000591D01*
G01*
X0209823Y0295727D01*
G75*
G02*
X0210413Y0296318I0000591J0000000D01*
G01*
G37*
G36*
G01*
X0215413Y0296318D02*
X0216594Y0296318D01*
G75*
G02*
X0217185Y0295727I0000000J-000591D01*
G01*
X0217185Y0289231D01*
G75*
G02*
X0216594Y0288641I-000591J0000000D01*
G01*
X0215413Y0288641D01*
G75*
G02*
X0214823Y0289231I0000000J0000591D01*
G01*
X0214823Y0295727D01*
G75*
G02*
X0215413Y0296318I0000591J0000000D01*
G01*
G37*
G36*
G01*
X0220413Y0296318D02*
X0221594Y0296318D01*
G75*
G02*
X0222185Y0295727I0000000J-000591D01*
G01*
X0222185Y0289231D01*
G75*
G02*
X0221594Y0288641I-000591J0000000D01*
G01*
X0220413Y0288641D01*
G75*
G02*
X0219823Y0289231I0000000J0000591D01*
G01*
X0219823Y0295727D01*
G75*
G02*
X0220413Y0296318I0000591J0000000D01*
G01*
G37*
G36*
G01*
X0225413Y0296318D02*
X0226594Y0296318D01*
G75*
G02*
X0227185Y0295727I0000000J-000591D01*
G01*
X0227185Y0289231D01*
G75*
G02*
X0226594Y0288641I-000591J0000000D01*
G01*
X0225413Y0288641D01*
G75*
G02*
X0224823Y0289231I0000000J0000591D01*
G01*
X0224823Y0295727D01*
G75*
G02*
X0225413Y0296318I0000591J0000000D01*
G01*
G37*
G36*
G01*
X0225413Y0276830D02*
X0226594Y0276830D01*
G75*
G02*
X0227185Y0276239I0000000J-000591D01*
G01*
X0227185Y0269743D01*
G75*
G02*
X0226594Y0269152I-000591J0000000D01*
G01*
X0225413Y0269152D01*
G75*
G02*
X0224823Y0269743I0000000J0000591D01*
G01*
X0224823Y0276239D01*
G75*
G02*
X0225413Y0276830I0000591J0000000D01*
G01*
G37*
G36*
G01*
X0220413Y0276830D02*
X0221594Y0276830D01*
G75*
G02*
X0222185Y0276239I0000000J-000591D01*
G01*
X0222185Y0269743D01*
G75*
G02*
X0221594Y0269152I-000591J0000000D01*
G01*
X0220413Y0269152D01*
G75*
G02*
X0219823Y0269743I0000000J0000591D01*
G01*
X0219823Y0276239D01*
G75*
G02*
X0220413Y0276830I0000591J0000000D01*
G01*
G37*
G36*
G01*
X0215413Y0276830D02*
X0216594Y0276830D01*
G75*
G02*
X0217185Y0276239I0000000J-000591D01*
G01*
X0217185Y0269743D01*
G75*
G02*
X0216594Y0269152I-000591J0000000D01*
G01*
X0215413Y0269152D01*
G75*
G02*
X0214823Y0269743I0000000J0000591D01*
G01*
X0214823Y0276239D01*
G75*
G02*
X0215413Y0276830I0000591J0000000D01*
G01*
G37*
G36*
G01*
X0210413Y0276830D02*
X0211594Y0276830D01*
G75*
G02*
X0212185Y0276239I0000000J-000591D01*
G01*
X0212185Y0269743D01*
G75*
G02*
X0211594Y0269152I-000591J0000000D01*
G01*
X0210413Y0269152D01*
G75*
G02*
X0209823Y0269743I0000000J0000591D01*
G01*
X0209823Y0276239D01*
G75*
G02*
X0210413Y0276830I0000591J0000000D01*
G01*
G37*
G36*
G01*
X0014173Y0080609D02*
X0018307Y0080609D01*
G75*
G02*
X0018701Y0080215I0000000J-000394D01*
G01*
X0018701Y0077066D01*
G75*
G02*
X0018307Y0076672I-000394J0000000D01*
G01*
X0014173Y0076672D01*
G75*
G02*
X0013780Y0077066I0000000J0000394D01*
G01*
X0013780Y0080215D01*
G75*
G02*
X0014173Y0080609I0000394J0000000D01*
G01*
G37*
G36*
G01*
X0014173Y0072735D02*
X0018307Y0072735D01*
G75*
G02*
X0018701Y0072341I0000000J-000394D01*
G01*
X0018701Y0069192D01*
G75*
G02*
X0018307Y0068798I-000394J0000000D01*
G01*
X0014173Y0068798D01*
G75*
G02*
X0013780Y0069192I0000000J0000394D01*
G01*
X0013780Y0072341D01*
G75*
G02*
X0014173Y0072735I0000394J0000000D01*
G01*
G37*
G36*
G01*
X0108169Y0168660D02*
X0108169Y0157440D01*
G75*
G02*
X0107185Y0156456I-000984J0000000D01*
G01*
X0104331Y0156456D01*
G75*
G02*
X0103346Y0157440I0000000J0000984D01*
G01*
X0103346Y0168660D01*
G75*
G02*
X0104331Y0169645I0000984J0000000D01*
G01*
X0107185Y0169645D01*
G75*
G02*
X0108169Y0168660I0000000J-000984D01*
G01*
G37*
G36*
G01*
X0084843Y0168660D02*
X0084843Y0157440D01*
G75*
G02*
X0083858Y0156456I-000984J0000000D01*
G01*
X0081004Y0156456D01*
G75*
G02*
X0080020Y0157440I0000000J0000984D01*
G01*
X0080020Y0168660D01*
G75*
G02*
X0081004Y0169645I0000984J0000000D01*
G01*
X0083858Y0169645D01*
G75*
G02*
X0084843Y0168660I0000000J-000984D01*
G01*
G37*
G36*
G01*
X0004311Y0214034D02*
X0005492Y0214034D01*
G75*
G02*
X0006083Y0213444I0000000J-000591D01*
G01*
X0006083Y0206948D01*
G75*
G02*
X0005492Y0206357I-000591J0000000D01*
G01*
X0004311Y0206357D01*
G75*
G02*
X0003720Y0206948I0000000J0000591D01*
G01*
X0003720Y0213444D01*
G75*
G02*
X0004311Y0214034I0000591J0000000D01*
G01*
G37*
G36*
G01*
X0009311Y0214034D02*
X0010492Y0214034D01*
G75*
G02*
X0011083Y0213444I0000000J-000591D01*
G01*
X0011083Y0206948D01*
G75*
G02*
X0010492Y0206357I-000591J0000000D01*
G01*
X0009311Y0206357D01*
G75*
G02*
X0008720Y0206948I0000000J0000591D01*
G01*
X0008720Y0213444D01*
G75*
G02*
X0009311Y0214034I0000591J0000000D01*
G01*
G37*
G36*
G01*
X0014311Y0214034D02*
X0015492Y0214034D01*
G75*
G02*
X0016083Y0213444I0000000J-000591D01*
G01*
X0016083Y0206948D01*
G75*
G02*
X0015492Y0206357I-000591J0000000D01*
G01*
X0014311Y0206357D01*
G75*
G02*
X0013720Y0206948I0000000J0000591D01*
G01*
X0013720Y0213444D01*
G75*
G02*
X0014311Y0214034I0000591J0000000D01*
G01*
G37*
G36*
G01*
X0019311Y0214034D02*
X0020492Y0214034D01*
G75*
G02*
X0021083Y0213444I0000000J-000591D01*
G01*
X0021083Y0206948D01*
G75*
G02*
X0020492Y0206357I-000591J0000000D01*
G01*
X0019311Y0206357D01*
G75*
G02*
X0018720Y0206948I0000000J0000591D01*
G01*
X0018720Y0213444D01*
G75*
G02*
X0019311Y0214034I0000591J0000000D01*
G01*
G37*
G36*
G01*
X0019311Y0194546D02*
X0020492Y0194546D01*
G75*
G02*
X0021083Y0193956I0000000J-000591D01*
G01*
X0021083Y0187460D01*
G75*
G02*
X0020492Y0186869I-000591J0000000D01*
G01*
X0019311Y0186869D01*
G75*
G02*
X0018720Y0187460I0000000J0000591D01*
G01*
X0018720Y0193956D01*
G75*
G02*
X0019311Y0194546I0000591J0000000D01*
G01*
G37*
G36*
G01*
X0014311Y0194546D02*
X0015492Y0194546D01*
G75*
G02*
X0016083Y0193956I0000000J-000591D01*
G01*
X0016083Y0187460D01*
G75*
G02*
X0015492Y0186869I-000591J0000000D01*
G01*
X0014311Y0186869D01*
G75*
G02*
X0013720Y0187460I0000000J0000591D01*
G01*
X0013720Y0193956D01*
G75*
G02*
X0014311Y0194546I0000591J0000000D01*
G01*
G37*
G36*
G01*
X0009311Y0194546D02*
X0010492Y0194546D01*
G75*
G02*
X0011083Y0193956I0000000J-000591D01*
G01*
X0011083Y0187460D01*
G75*
G02*
X0010492Y0186869I-000591J0000000D01*
G01*
X0009311Y0186869D01*
G75*
G02*
X0008720Y0187460I0000000J0000591D01*
G01*
X0008720Y0193956D01*
G75*
G02*
X0009311Y0194546I0000591J0000000D01*
G01*
G37*
G36*
G01*
X0004311Y0194546D02*
X0005492Y0194546D01*
G75*
G02*
X0006083Y0193956I0000000J-000591D01*
G01*
X0006083Y0187460D01*
G75*
G02*
X0005492Y0186869I-000591J0000000D01*
G01*
X0004311Y0186869D01*
G75*
G02*
X0003720Y0187460I0000000J0000591D01*
G01*
X0003720Y0193956D01*
G75*
G02*
X0004311Y0194546I0000591J0000000D01*
G01*
G37*
G36*
G01*
X0235984Y0284645D02*
X0233307Y0284645D01*
G75*
G02*
X0232972Y0284979I0000000J0000335D01*
G01*
X0232972Y0287656D01*
G75*
G02*
X0233307Y0287991I0000335J0000000D01*
G01*
X0235984Y0287991D01*
G75*
G02*
X0236319Y0287656I0000000J-000335D01*
G01*
X0236319Y0284979D01*
G75*
G02*
X0235984Y0284645I-000335J0000000D01*
G01*
G37*
G36*
G01*
X0235984Y0290865D02*
X0233307Y0290865D01*
G75*
G02*
X0232972Y0291200I0000000J0000335D01*
G01*
X0232972Y0293877D01*
G75*
G02*
X0233307Y0294212I0000335J0000000D01*
G01*
X0235984Y0294212D01*
G75*
G02*
X0236319Y0293877I0000000J-000335D01*
G01*
X0236319Y0291200D01*
G75*
G02*
X0235984Y0290865I-000335J0000000D01*
G01*
G37*
G36*
G01*
X0117495Y0140511D02*
X0119513Y0140511D01*
G75*
G02*
X0120374Y0139650I0000000J-000861D01*
G01*
X0120374Y0137927D01*
G75*
G02*
X0119513Y0137066I-000861J0000000D01*
G01*
X0117495Y0137066D01*
G75*
G02*
X0116634Y0137927I0000000J0000861D01*
G01*
X0116634Y0139650D01*
G75*
G02*
X0117495Y0140511I0000861J0000000D01*
G01*
G37*
G36*
G01*
X0117495Y0134310D02*
X0119513Y0134310D01*
G75*
G02*
X0120374Y0133449I0000000J-000861D01*
G01*
X0120374Y0131726D01*
G75*
G02*
X0119513Y0130865I-000861J0000000D01*
G01*
X0117495Y0130865D01*
G75*
G02*
X0116634Y0131726I0000000J0000861D01*
G01*
X0116634Y0133449D01*
G75*
G02*
X0117495Y0134310I0000861J0000000D01*
G01*
G37*
G36*
G01*
X0039665Y0043365D02*
X0043799Y0043365D01*
G75*
G02*
X0044193Y0042971I0000000J-000394D01*
G01*
X0044193Y0039822D01*
G75*
G02*
X0043799Y0039428I-000394J0000000D01*
G01*
X0039665Y0039428D01*
G75*
G02*
X0039272Y0039822I0000000J0000394D01*
G01*
X0039272Y0042971D01*
G75*
G02*
X0039665Y0043365I0000394J0000000D01*
G01*
G37*
G36*
G01*
X0039665Y0035491D02*
X0043799Y0035491D01*
G75*
G02*
X0044193Y0035097I0000000J-000394D01*
G01*
X0044193Y0031948D01*
G75*
G02*
X0043799Y0031554I-000394J0000000D01*
G01*
X0039665Y0031554D01*
G75*
G02*
X0039272Y0031948I0000000J0000394D01*
G01*
X0039272Y0035097D01*
G75*
G02*
X0039665Y0035491I0000394J0000000D01*
G01*
G37*
G36*
G01*
X0043799Y0015806D02*
X0039665Y0015806D01*
G75*
G02*
X0039272Y0016200I0000000J0000394D01*
G01*
X0039272Y0019349D01*
G75*
G02*
X0039665Y0019743I0000394J0000000D01*
G01*
X0043799Y0019743D01*
G75*
G02*
X0044193Y0019349I0000000J-000394D01*
G01*
X0044193Y0016200D01*
G75*
G02*
X0043799Y0015806I-000394J0000000D01*
G01*
G37*
G36*
G01*
X0043799Y0023680D02*
X0039665Y0023680D01*
G75*
G02*
X0039272Y0024074I0000000J0000394D01*
G01*
X0039272Y0027223D01*
G75*
G02*
X0039665Y0027617I0000394J0000000D01*
G01*
X0043799Y0027617D01*
G75*
G02*
X0044193Y0027223I0000000J-000394D01*
G01*
X0044193Y0024074D01*
G75*
G02*
X0043799Y0023680I-000394J0000000D01*
G01*
G37*
G36*
G01*
X0117298Y0250550D02*
X0119316Y0250550D01*
G75*
G02*
X0120177Y0249689I0000000J-000861D01*
G01*
X0120177Y0247966D01*
G75*
G02*
X0119316Y0247105I-000861J0000000D01*
G01*
X0117298Y0247105D01*
G75*
G02*
X0116437Y0247966I0000000J0000861D01*
G01*
X0116437Y0249689D01*
G75*
G02*
X0117298Y0250550I0000861J0000000D01*
G01*
G37*
G36*
G01*
X0117298Y0244349D02*
X0119316Y0244349D01*
G75*
G02*
X0120177Y0243488I0000000J-000861D01*
G01*
X0120177Y0241766D01*
G75*
G02*
X0119316Y0240904I-000861J0000000D01*
G01*
X0117298Y0240904D01*
G75*
G02*
X0116437Y0241766I0000000J0000861D01*
G01*
X0116437Y0243488D01*
G75*
G02*
X0117298Y0244349I0000861J0000000D01*
G01*
G37*
G36*
G01*
X0108169Y0141101D02*
X0108169Y0129881D01*
G75*
G02*
X0107185Y0128897I-000984J0000000D01*
G01*
X0104331Y0128897D01*
G75*
G02*
X0103346Y0129881I0000000J0000984D01*
G01*
X0103346Y0141101D01*
G75*
G02*
X0104331Y0142086I0000984J0000000D01*
G01*
X0107185Y0142086D01*
G75*
G02*
X0108169Y0141101I0000000J-000984D01*
G01*
G37*
G36*
G01*
X0084843Y0141101D02*
X0084843Y0129881D01*
G75*
G02*
X0083858Y0128897I-000984J0000000D01*
G01*
X0081004Y0128897D01*
G75*
G02*
X0080020Y0129881I0000000J0000984D01*
G01*
X0080020Y0141101D01*
G75*
G02*
X0081004Y0142086I0000984J0000000D01*
G01*
X0083858Y0142086D01*
G75*
G02*
X0084843Y0141101I0000000J-000984D01*
G01*
G37*
G36*
G01*
X0108169Y0223778D02*
X0108169Y0212558D01*
G75*
G02*
X0107185Y0211574I-000984J0000000D01*
G01*
X0104331Y0211574D01*
G75*
G02*
X0103346Y0212558I0000000J0000984D01*
G01*
X0103346Y0223778D01*
G75*
G02*
X0104331Y0224763I0000984J0000000D01*
G01*
X0107185Y0224763D01*
G75*
G02*
X0108169Y0223778I0000000J-000984D01*
G01*
G37*
G36*
G01*
X0084843Y0223778D02*
X0084843Y0212558D01*
G75*
G02*
X0083858Y0211574I-000984J0000000D01*
G01*
X0081004Y0211574D01*
G75*
G02*
X0080020Y0212558I0000000J0000984D01*
G01*
X0080020Y0223778D01*
G75*
G02*
X0081004Y0224763I0000984J0000000D01*
G01*
X0083858Y0224763D01*
G75*
G02*
X0084843Y0223778I0000000J-000984D01*
G01*
G37*
G36*
G01*
X0037795Y0080609D02*
X0041929Y0080609D01*
G75*
G02*
X0042323Y0080215I0000000J-000394D01*
G01*
X0042323Y0077066D01*
G75*
G02*
X0041929Y0076672I-000394J0000000D01*
G01*
X0037795Y0076672D01*
G75*
G02*
X0037402Y0077066I0000000J0000394D01*
G01*
X0037402Y0080215D01*
G75*
G02*
X0037795Y0080609I0000394J0000000D01*
G01*
G37*
G36*
G01*
X0037795Y0072735D02*
X0041929Y0072735D01*
G75*
G02*
X0042323Y0072341I0000000J-000394D01*
G01*
X0042323Y0069192D01*
G75*
G02*
X0041929Y0068798I-000394J0000000D01*
G01*
X0037795Y0068798D01*
G75*
G02*
X0037402Y0069192I0000000J0000394D01*
G01*
X0037402Y0072341D01*
G75*
G02*
X0037795Y0072735I0000394J0000000D01*
G01*
G37*
G36*
G01*
X0326353Y0132637D02*
X0328371Y0132637D01*
G75*
G02*
X0329232Y0131776I0000000J-000861D01*
G01*
X0329232Y0130053D01*
G75*
G02*
X0328371Y0129192I-000861J0000000D01*
G01*
X0326353Y0129192D01*
G75*
G02*
X0325492Y0130053I0000000J0000861D01*
G01*
X0325492Y0131776D01*
G75*
G02*
X0326353Y0132637I0000861J0000000D01*
G01*
G37*
G36*
G01*
X0326353Y0126436D02*
X0328371Y0126436D01*
G75*
G02*
X0329232Y0125575I0000000J-000861D01*
G01*
X0329232Y0123852D01*
G75*
G02*
X0328371Y0122991I-000861J0000000D01*
G01*
X0326353Y0122991D01*
G75*
G02*
X0325492Y0123852I0000000J0000861D01*
G01*
X0325492Y0125575D01*
G75*
G02*
X0326353Y0126436I0000861J0000000D01*
G01*
G37*
G36*
G01*
X0076811Y0269349D02*
X0072795Y0269349D01*
G75*
G02*
X0072441Y0269704I0000000J0000354D01*
G01*
X0072441Y0272538D01*
G75*
G02*
X0072795Y0272893I0000354J0000000D01*
G01*
X0076811Y0272893D01*
G75*
G02*
X0077165Y0272538I0000000J-000354D01*
G01*
X0077165Y0269704D01*
G75*
G02*
X0076811Y0269349I-000354J0000000D01*
G01*
G37*
G36*
G01*
X0076811Y0282341D02*
X0072795Y0282341D01*
G75*
G02*
X0072441Y0282696I0000000J0000354D01*
G01*
X0072441Y0285530D01*
G75*
G02*
X0072795Y0285885I0000354J0000000D01*
G01*
X0076811Y0285885D01*
G75*
G02*
X0077165Y0285530I0000000J-000354D01*
G01*
X0077165Y0282696D01*
G75*
G02*
X0076811Y0282341I-000354J0000000D01*
G01*
G37*
G36*
G01*
X0343071Y0061869D02*
X0341181Y0061869D01*
G75*
G02*
X0340945Y0062105I0000000J0000236D01*
G01*
X0340945Y0063995D01*
G75*
G02*
X0341181Y0064231I0000236J0000000D01*
G01*
X0343071Y0064231D01*
G75*
G02*
X0343307Y0063995I0000000J-000236D01*
G01*
X0343307Y0062105D01*
G75*
G02*
X0343071Y0061869I-000236J0000000D01*
G01*
G37*
G36*
G01*
X0351732Y0061869D02*
X0349843Y0061869D01*
G75*
G02*
X0349606Y0062105I0000000J0000236D01*
G01*
X0349606Y0063995D01*
G75*
G02*
X0349843Y0064231I0000236J0000000D01*
G01*
X0351732Y0064231D01*
G75*
G02*
X0351969Y0063995I0000000J-000236D01*
G01*
X0351969Y0062105D01*
G75*
G02*
X0351732Y0061869I-000236J0000000D01*
G01*
G37*
G36*
G01*
X0113789Y0186082D02*
X0110719Y0186082D01*
G75*
G02*
X0110443Y0186357I0000000J0000276D01*
G01*
X0110443Y0188562D01*
G75*
G02*
X0110719Y0188838I0000276J0000000D01*
G01*
X0113789Y0188838D01*
G75*
G02*
X0114065Y0188562I0000000J-000276D01*
G01*
X0114065Y0186357D01*
G75*
G02*
X0113789Y0186082I-000276J0000000D01*
G01*
G37*
G36*
G01*
X0113789Y0192381D02*
X0110719Y0192381D01*
G75*
G02*
X0110443Y0192656I0000000J0000276D01*
G01*
X0110443Y0194861D01*
G75*
G02*
X0110719Y0195137I0000276J0000000D01*
G01*
X0113789Y0195137D01*
G75*
G02*
X0114065Y0194861I0000000J-000276D01*
G01*
X0114065Y0192656D01*
G75*
G02*
X0113789Y0192381I-000276J0000000D01*
G01*
G37*
G36*
G01*
X0124449Y0114822D02*
X0127520Y0114822D01*
G75*
G02*
X0127795Y0114546I0000000J-000276D01*
G01*
X0127795Y0112341D01*
G75*
G02*
X0127520Y0112066I-000276J0000000D01*
G01*
X0124449Y0112066D01*
G75*
G02*
X0124173Y0112341I0000000J0000276D01*
G01*
X0124173Y0114546D01*
G75*
G02*
X0124449Y0114822I0000276J0000000D01*
G01*
G37*
G36*
G01*
X0124449Y0108523D02*
X0127520Y0108523D01*
G75*
G02*
X0127795Y0108247I0000000J-000276D01*
G01*
X0127795Y0106042D01*
G75*
G02*
X0127520Y0105767I-000276J0000000D01*
G01*
X0124449Y0105767D01*
G75*
G02*
X0124173Y0106042I0000000J0000276D01*
G01*
X0124173Y0108247D01*
G75*
G02*
X0124449Y0108523I0000276J0000000D01*
G01*
G37*
G36*
G01*
X0059547Y0015806D02*
X0055413Y0015806D01*
G75*
G02*
X0055020Y0016200I0000000J0000394D01*
G01*
X0055020Y0019349D01*
G75*
G02*
X0055413Y0019743I0000394J0000000D01*
G01*
X0059547Y0019743D01*
G75*
G02*
X0059941Y0019349I0000000J-000394D01*
G01*
X0059941Y0016200D01*
G75*
G02*
X0059547Y0015806I-000394J0000000D01*
G01*
G37*
G36*
G01*
X0059547Y0023680D02*
X0055413Y0023680D01*
G75*
G02*
X0055020Y0024074I0000000J0000394D01*
G01*
X0055020Y0027223D01*
G75*
G02*
X0055413Y0027617I0000394J0000000D01*
G01*
X0059547Y0027617D01*
G75*
G02*
X0059941Y0027223I0000000J-000394D01*
G01*
X0059941Y0024074D01*
G75*
G02*
X0059547Y0023680I-000394J0000000D01*
G01*
G37*
G36*
G01*
X0117495Y0168070D02*
X0119513Y0168070D01*
G75*
G02*
X0120374Y0167209I0000000J-000861D01*
G01*
X0120374Y0165486D01*
G75*
G02*
X0119513Y0164625I-000861J0000000D01*
G01*
X0117495Y0164625D01*
G75*
G02*
X0116634Y0165486I0000000J0000861D01*
G01*
X0116634Y0167209D01*
G75*
G02*
X0117495Y0168070I0000861J0000000D01*
G01*
G37*
G36*
G01*
X0117495Y0161869D02*
X0119513Y0161869D01*
G75*
G02*
X0120374Y0161008I0000000J-000861D01*
G01*
X0120374Y0159285D01*
G75*
G02*
X0119513Y0158424I-000861J0000000D01*
G01*
X0117495Y0158424D01*
G75*
G02*
X0116634Y0159285I0000000J0000861D01*
G01*
X0116634Y0161008D01*
G75*
G02*
X0117495Y0161869I0000861J0000000D01*
G01*
G37*
G36*
G01*
X0113789Y0158523D02*
X0110719Y0158523D01*
G75*
G02*
X0110443Y0158798I0000000J0000276D01*
G01*
X0110443Y0161003D01*
G75*
G02*
X0110719Y0161278I0000276J0000000D01*
G01*
X0113789Y0161278D01*
G75*
G02*
X0114065Y0161003I0000000J-000276D01*
G01*
X0114065Y0158798D01*
G75*
G02*
X0113789Y0158523I-000276J0000000D01*
G01*
G37*
G36*
G01*
X0113789Y0164822D02*
X0110719Y0164822D01*
G75*
G02*
X0110443Y0165097I0000000J0000276D01*
G01*
X0110443Y0167302D01*
G75*
G02*
X0110719Y0167578I0000276J0000000D01*
G01*
X0113789Y0167578D01*
G75*
G02*
X0114065Y0167302I0000000J-000276D01*
G01*
X0114065Y0165097D01*
G75*
G02*
X0113789Y0164822I-000276J0000000D01*
G01*
G37*
G36*
G01*
X0194449Y0012768D02*
X0191378Y0012768D01*
G75*
G02*
X0191102Y0013044I0000000J0000276D01*
G01*
X0191102Y0015248D01*
G75*
G02*
X0191378Y0015524I0000276J0000000D01*
G01*
X0194449Y0015524D01*
G75*
G02*
X0194724Y0015248I0000000J-000276D01*
G01*
X0194724Y0013044D01*
G75*
G02*
X0194449Y0012768I-000276J0000000D01*
G01*
G37*
G36*
G01*
X0194449Y0019067D02*
X0191378Y0019067D01*
G75*
G02*
X0191102Y0019343I0000000J0000276D01*
G01*
X0191102Y0021547D01*
G75*
G02*
X0191378Y0021823I0000276J0000000D01*
G01*
X0194449Y0021823D01*
G75*
G02*
X0194724Y0021547I0000000J-000276D01*
G01*
X0194724Y0019343D01*
G75*
G02*
X0194449Y0019067I-000276J0000000D01*
G01*
G37*
G36*
G01*
X0113789Y0130964D02*
X0110719Y0130964D01*
G75*
G02*
X0110443Y0131239I0000000J0000276D01*
G01*
X0110443Y0133444D01*
G75*
G02*
X0110719Y0133719I0000276J0000000D01*
G01*
X0113789Y0133719D01*
G75*
G02*
X0114065Y0133444I0000000J-000276D01*
G01*
X0114065Y0131239D01*
G75*
G02*
X0113789Y0130964I-000276J0000000D01*
G01*
G37*
G36*
G01*
X0113789Y0137263D02*
X0110719Y0137263D01*
G75*
G02*
X0110443Y0137538I0000000J0000276D01*
G01*
X0110443Y0139743D01*
G75*
G02*
X0110719Y0140019I0000276J0000000D01*
G01*
X0113789Y0140019D01*
G75*
G02*
X0114065Y0139743I0000000J-000276D01*
G01*
X0114065Y0137538D01*
G75*
G02*
X0113789Y0137263I-000276J0000000D01*
G01*
G37*
G36*
G01*
X0117692Y0195432D02*
X0119710Y0195432D01*
G75*
G02*
X0120571Y0194571I0000000J-000861D01*
G01*
X0120571Y0192848D01*
G75*
G02*
X0119710Y0191987I-000861J0000000D01*
G01*
X0117692Y0191987D01*
G75*
G02*
X0116831Y0192848I0000000J0000861D01*
G01*
X0116831Y0194571D01*
G75*
G02*
X0117692Y0195432I0000861J0000000D01*
G01*
G37*
G36*
G01*
X0117692Y0189231D02*
X0119710Y0189231D01*
G75*
G02*
X0120571Y0188370I0000000J-000861D01*
G01*
X0120571Y0186648D01*
G75*
G02*
X0119710Y0185786I-000861J0000000D01*
G01*
X0117692Y0185786D01*
G75*
G02*
X0116831Y0186648I0000000J0000861D01*
G01*
X0116831Y0188370D01*
G75*
G02*
X0117692Y0189231I0000861J0000000D01*
G01*
G37*
G36*
G01*
X0243071Y0284645D02*
X0240394Y0284645D01*
G75*
G02*
X0240059Y0284979I0000000J0000335D01*
G01*
X0240059Y0287656D01*
G75*
G02*
X0240394Y0287991I0000335J0000000D01*
G01*
X0243071Y0287991D01*
G75*
G02*
X0243406Y0287656I0000000J-000335D01*
G01*
X0243406Y0284979D01*
G75*
G02*
X0243071Y0284645I-000335J0000000D01*
G01*
G37*
G36*
G01*
X0243071Y0290865D02*
X0240394Y0290865D01*
G75*
G02*
X0240059Y0291200I0000000J0000335D01*
G01*
X0240059Y0293877D01*
G75*
G02*
X0240394Y0294212I0000335J0000000D01*
G01*
X0243071Y0294212D01*
G75*
G02*
X0243406Y0293877I0000000J-000335D01*
G01*
X0243406Y0291200D01*
G75*
G02*
X0243071Y0290865I-000335J0000000D01*
G01*
G37*
G36*
G01*
X0021417Y0349271D02*
X0018346Y0349271D01*
G75*
G02*
X0018071Y0349546I0000000J0000276D01*
G01*
X0018071Y0351751D01*
G75*
G02*
X0018346Y0352027I0000276J0000000D01*
G01*
X0021417Y0352027D01*
G75*
G02*
X0021693Y0351751I0000000J-000276D01*
G01*
X0021693Y0349546D01*
G75*
G02*
X0021417Y0349271I-000276J0000000D01*
G01*
G37*
G36*
G01*
X0021417Y0355570D02*
X0018346Y0355570D01*
G75*
G02*
X0018071Y0355845I0000000J0000276D01*
G01*
X0018071Y0358050D01*
G75*
G02*
X0018346Y0358326I0000276J0000000D01*
G01*
X0021417Y0358326D01*
G75*
G02*
X0021693Y0358050I0000000J-000276D01*
G01*
X0021693Y0355845D01*
G75*
G02*
X0021417Y0355570I-000276J0000000D01*
G01*
G37*
G36*
G01*
X0004311Y0282145D02*
X0005492Y0282145D01*
G75*
G02*
X0006083Y0281554I0000000J-000591D01*
G01*
X0006083Y0275058D01*
G75*
G02*
X0005492Y0274467I-000591J0000000D01*
G01*
X0004311Y0274467D01*
G75*
G02*
X0003720Y0275058I0000000J0000591D01*
G01*
X0003720Y0281554D01*
G75*
G02*
X0004311Y0282145I0000591J0000000D01*
G01*
G37*
G36*
G01*
X0009311Y0282145D02*
X0010492Y0282145D01*
G75*
G02*
X0011083Y0281554I0000000J-000591D01*
G01*
X0011083Y0275058D01*
G75*
G02*
X0010492Y0274467I-000591J0000000D01*
G01*
X0009311Y0274467D01*
G75*
G02*
X0008720Y0275058I0000000J0000591D01*
G01*
X0008720Y0281554D01*
G75*
G02*
X0009311Y0282145I0000591J0000000D01*
G01*
G37*
G36*
G01*
X0014311Y0282145D02*
X0015492Y0282145D01*
G75*
G02*
X0016083Y0281554I0000000J-000591D01*
G01*
X0016083Y0275058D01*
G75*
G02*
X0015492Y0274467I-000591J0000000D01*
G01*
X0014311Y0274467D01*
G75*
G02*
X0013720Y0275058I0000000J0000591D01*
G01*
X0013720Y0281554D01*
G75*
G02*
X0014311Y0282145I0000591J0000000D01*
G01*
G37*
G36*
G01*
X0019311Y0282145D02*
X0020492Y0282145D01*
G75*
G02*
X0021083Y0281554I0000000J-000591D01*
G01*
X0021083Y0275058D01*
G75*
G02*
X0020492Y0274467I-000591J0000000D01*
G01*
X0019311Y0274467D01*
G75*
G02*
X0018720Y0275058I0000000J0000591D01*
G01*
X0018720Y0281554D01*
G75*
G02*
X0019311Y0282145I0000591J0000000D01*
G01*
G37*
G36*
G01*
X0019311Y0262656D02*
X0020492Y0262656D01*
G75*
G02*
X0021083Y0262066I0000000J-000591D01*
G01*
X0021083Y0255570D01*
G75*
G02*
X0020492Y0254979I-000591J0000000D01*
G01*
X0019311Y0254979D01*
G75*
G02*
X0018720Y0255570I0000000J0000591D01*
G01*
X0018720Y0262066D01*
G75*
G02*
X0019311Y0262656I0000591J0000000D01*
G01*
G37*
G36*
G01*
X0014311Y0262656D02*
X0015492Y0262656D01*
G75*
G02*
X0016083Y0262066I0000000J-000591D01*
G01*
X0016083Y0255570D01*
G75*
G02*
X0015492Y0254979I-000591J0000000D01*
G01*
X0014311Y0254979D01*
G75*
G02*
X0013720Y0255570I0000000J0000591D01*
G01*
X0013720Y0262066D01*
G75*
G02*
X0014311Y0262656I0000591J0000000D01*
G01*
G37*
G36*
G01*
X0009311Y0262656D02*
X0010492Y0262656D01*
G75*
G02*
X0011083Y0262066I0000000J-000591D01*
G01*
X0011083Y0255570D01*
G75*
G02*
X0010492Y0254979I-000591J0000000D01*
G01*
X0009311Y0254979D01*
G75*
G02*
X0008720Y0255570I0000000J0000591D01*
G01*
X0008720Y0262066D01*
G75*
G02*
X0009311Y0262656I0000591J0000000D01*
G01*
G37*
G36*
G01*
X0004311Y0262656D02*
X0005492Y0262656D01*
G75*
G02*
X0006083Y0262066I0000000J-000591D01*
G01*
X0006083Y0255570D01*
G75*
G02*
X0005492Y0254979I-000591J0000000D01*
G01*
X0004311Y0254979D01*
G75*
G02*
X0003720Y0255570I0000000J0000591D01*
G01*
X0003720Y0262066D01*
G75*
G02*
X0004311Y0262656I0000591J0000000D01*
G01*
G37*
G36*
G01*
X0144055Y0098483D02*
X0140984Y0098483D01*
G75*
G02*
X0140709Y0098759I0000000J0000276D01*
G01*
X0140709Y0100964D01*
G75*
G02*
X0140984Y0101239I0000276J0000000D01*
G01*
X0144055Y0101239D01*
G75*
G02*
X0144331Y0100964I0000000J-000276D01*
G01*
X0144331Y0098759D01*
G75*
G02*
X0144055Y0098483I-000276J0000000D01*
G01*
G37*
G36*
G01*
X0144055Y0104782D02*
X0140984Y0104782D01*
G75*
G02*
X0140709Y0105058I0000000J0000276D01*
G01*
X0140709Y0107263D01*
G75*
G02*
X0140984Y0107538I0000276J0000000D01*
G01*
X0144055Y0107538D01*
G75*
G02*
X0144331Y0107263I0000000J-000276D01*
G01*
X0144331Y0105058D01*
G75*
G02*
X0144055Y0104782I-000276J0000000D01*
G01*
G37*
G36*
G01*
X0108169Y0196219D02*
X0108169Y0184999D01*
G75*
G02*
X0107185Y0184015I-000984J0000000D01*
G01*
X0104331Y0184015D01*
G75*
G02*
X0103346Y0184999I0000000J0000984D01*
G01*
X0103346Y0196219D01*
G75*
G02*
X0104331Y0197204I0000984J0000000D01*
G01*
X0107185Y0197204D01*
G75*
G02*
X0108169Y0196219I0000000J-000984D01*
G01*
G37*
G36*
G01*
X0084843Y0196219D02*
X0084843Y0184999D01*
G75*
G02*
X0083858Y0184015I-000984J0000000D01*
G01*
X0081004Y0184015D01*
G75*
G02*
X0080020Y0184999I0000000J0000984D01*
G01*
X0080020Y0196219D01*
G75*
G02*
X0081004Y0197204I0000984J0000000D01*
G01*
X0083858Y0197204D01*
G75*
G02*
X0084843Y0196219I0000000J-000984D01*
G01*
G37*
G36*
G01*
X0113789Y0103404D02*
X0110719Y0103404D01*
G75*
G02*
X0110443Y0103680I0000000J0000276D01*
G01*
X0110443Y0105885D01*
G75*
G02*
X0110719Y0106160I0000276J0000000D01*
G01*
X0113789Y0106160D01*
G75*
G02*
X0114065Y0105885I0000000J-000276D01*
G01*
X0114065Y0103680D01*
G75*
G02*
X0113789Y0103404I-000276J0000000D01*
G01*
G37*
G36*
G01*
X0113789Y0109704D02*
X0110719Y0109704D01*
G75*
G02*
X0110443Y0109979I0000000J0000276D01*
G01*
X0110443Y0112184D01*
G75*
G02*
X0110719Y0112460I0000276J0000000D01*
G01*
X0113789Y0112460D01*
G75*
G02*
X0114065Y0112184I0000000J-000276D01*
G01*
X0114065Y0109979D01*
G75*
G02*
X0113789Y0109704I-000276J0000000D01*
G01*
G37*
G36*
G01*
X0213558Y0339527D02*
X0215576Y0339527D01*
G75*
G02*
X0216437Y0338665I0000000J-000861D01*
G01*
X0216437Y0336943D01*
G75*
G02*
X0215576Y0336082I-000861J0000000D01*
G01*
X0213558Y0336082D01*
G75*
G02*
X0212697Y0336943I0000000J0000861D01*
G01*
X0212697Y0338665D01*
G75*
G02*
X0213558Y0339527I0000861J0000000D01*
G01*
G37*
G36*
G01*
X0213558Y0333326D02*
X0215576Y0333326D01*
G75*
G02*
X0216437Y0332464I0000000J-000861D01*
G01*
X0216437Y0330742D01*
G75*
G02*
X0215576Y0329881I-000861J0000000D01*
G01*
X0213558Y0329881D01*
G75*
G02*
X0212697Y0330742I0000000J0000861D01*
G01*
X0212697Y0332464D01*
G75*
G02*
X0213558Y0333326I0000861J0000000D01*
G01*
G37*
G36*
G01*
X0055413Y0043365D02*
X0059547Y0043365D01*
G75*
G02*
X0059941Y0042971I0000000J-000394D01*
G01*
X0059941Y0039822D01*
G75*
G02*
X0059547Y0039428I-000394J0000000D01*
G01*
X0055413Y0039428D01*
G75*
G02*
X0055020Y0039822I0000000J0000394D01*
G01*
X0055020Y0042971D01*
G75*
G02*
X0055413Y0043365I0000394J0000000D01*
G01*
G37*
G36*
G01*
X0055413Y0035491D02*
X0059547Y0035491D01*
G75*
G02*
X0059941Y0035097I0000000J-000394D01*
G01*
X0059941Y0031948D01*
G75*
G02*
X0059547Y0031554I-000394J0000000D01*
G01*
X0055413Y0031554D01*
G75*
G02*
X0055020Y0031948I0000000J0000394D01*
G01*
X0055020Y0035097D01*
G75*
G02*
X0055413Y0035491I0000394J0000000D01*
G01*
G37*
G36*
G01*
X0113789Y0241200D02*
X0110719Y0241200D01*
G75*
G02*
X0110443Y0241475I0000000J0000276D01*
G01*
X0110443Y0243680D01*
G75*
G02*
X0110719Y0243956I0000276J0000000D01*
G01*
X0113789Y0243956D01*
G75*
G02*
X0114065Y0243680I0000000J-000276D01*
G01*
X0114065Y0241475D01*
G75*
G02*
X0113789Y0241200I-000276J0000000D01*
G01*
G37*
G36*
G01*
X0113789Y0247499D02*
X0110719Y0247499D01*
G75*
G02*
X0110443Y0247775I0000000J0000276D01*
G01*
X0110443Y0249979D01*
G75*
G02*
X0110719Y0250255I0000276J0000000D01*
G01*
X0113789Y0250255D01*
G75*
G02*
X0114065Y0249979I0000000J-000276D01*
G01*
X0114065Y0247775D01*
G75*
G02*
X0113789Y0247499I-000276J0000000D01*
G01*
G37*
G36*
G01*
X0067421Y0015806D02*
X0063287Y0015806D01*
G75*
G02*
X0062894Y0016200I0000000J0000394D01*
G01*
X0062894Y0019349D01*
G75*
G02*
X0063287Y0019743I0000394J0000000D01*
G01*
X0067421Y0019743D01*
G75*
G02*
X0067815Y0019349I0000000J-000394D01*
G01*
X0067815Y0016200D01*
G75*
G02*
X0067421Y0015806I-000394J0000000D01*
G01*
G37*
G36*
G01*
X0067421Y0023680D02*
X0063287Y0023680D01*
G75*
G02*
X0062894Y0024074I0000000J0000394D01*
G01*
X0062894Y0027223D01*
G75*
G02*
X0063287Y0027617I0000394J0000000D01*
G01*
X0067421Y0027617D01*
G75*
G02*
X0067815Y0027223I0000000J-000394D01*
G01*
X0067815Y0024074D01*
G75*
G02*
X0067421Y0023680I-000394J0000000D01*
G01*
G37*
G36*
G01*
X0204291Y0012768D02*
X0201220Y0012768D01*
G75*
G02*
X0200945Y0013044I0000000J0000276D01*
G01*
X0200945Y0015248D01*
G75*
G02*
X0201220Y0015524I0000276J0000000D01*
G01*
X0204291Y0015524D01*
G75*
G02*
X0204567Y0015248I0000000J-000276D01*
G01*
X0204567Y0013044D01*
G75*
G02*
X0204291Y0012768I-000276J0000000D01*
G01*
G37*
G36*
G01*
X0204291Y0019067D02*
X0201220Y0019067D01*
G75*
G02*
X0200945Y0019343I0000000J0000276D01*
G01*
X0200945Y0021547D01*
G75*
G02*
X0201220Y0021823I0000276J0000000D01*
G01*
X0204291Y0021823D01*
G75*
G02*
X0204567Y0021547I0000000J-000276D01*
G01*
X0204567Y0019343D01*
G75*
G02*
X0204291Y0019067I-000276J0000000D01*
G01*
G37*
G36*
G01*
X0064528Y0066397D02*
X0061457Y0066397D01*
G75*
G02*
X0061181Y0066672I0000000J0000276D01*
G01*
X0061181Y0068877D01*
G75*
G02*
X0061457Y0069152I0000276J0000000D01*
G01*
X0064528Y0069152D01*
G75*
G02*
X0064803Y0068877I0000000J-000276D01*
G01*
X0064803Y0066672D01*
G75*
G02*
X0064528Y0066397I-000276J0000000D01*
G01*
G37*
G36*
G01*
X0064528Y0072696D02*
X0061457Y0072696D01*
G75*
G02*
X0061181Y0072971I0000000J0000276D01*
G01*
X0061181Y0075176D01*
G75*
G02*
X0061457Y0075452I0000276J0000000D01*
G01*
X0064528Y0075452D01*
G75*
G02*
X0064803Y0075176I0000000J-000276D01*
G01*
X0064803Y0072971D01*
G75*
G02*
X0064528Y0072696I-000276J0000000D01*
G01*
G37*
G36*
G01*
X0011378Y0349271D02*
X0008307Y0349271D01*
G75*
G02*
X0008031Y0349546I0000000J0000276D01*
G01*
X0008031Y0351751D01*
G75*
G02*
X0008307Y0352027I0000276J0000000D01*
G01*
X0011378Y0352027D01*
G75*
G02*
X0011654Y0351751I0000000J-000276D01*
G01*
X0011654Y0349546D01*
G75*
G02*
X0011378Y0349271I-000276J0000000D01*
G01*
G37*
G36*
G01*
X0011378Y0355570D02*
X0008307Y0355570D01*
G75*
G02*
X0008031Y0355845I0000000J0000276D01*
G01*
X0008031Y0358050D01*
G75*
G02*
X0008307Y0358326I0000276J0000000D01*
G01*
X0011378Y0358326D01*
G75*
G02*
X0011654Y0358050I0000000J-000276D01*
G01*
X0011654Y0355845D01*
G75*
G02*
X0011378Y0355570I-000276J0000000D01*
G01*
G37*
G36*
G01*
X0120827Y0284113D02*
X0117756Y0284113D01*
G75*
G02*
X0117480Y0284389I0000000J0000276D01*
G01*
X0117480Y0286593D01*
G75*
G02*
X0117756Y0286869I0000276J0000000D01*
G01*
X0120827Y0286869D01*
G75*
G02*
X0121102Y0286593I0000000J-000276D01*
G01*
X0121102Y0284389D01*
G75*
G02*
X0120827Y0284113I-000276J0000000D01*
G01*
G37*
G36*
G01*
X0120827Y0290412D02*
X0117756Y0290412D01*
G75*
G02*
X0117480Y0290688I0000000J0000276D01*
G01*
X0117480Y0292893D01*
G75*
G02*
X0117756Y0293168I0000276J0000000D01*
G01*
X0120827Y0293168D01*
G75*
G02*
X0121102Y0292893I0000000J-000276D01*
G01*
X0121102Y0290688D01*
G75*
G02*
X0120827Y0290412I-000276J0000000D01*
G01*
G37*
G36*
G01*
X0045669Y0080609D02*
X0049803Y0080609D01*
G75*
G02*
X0050197Y0080215I0000000J-000394D01*
G01*
X0050197Y0077066D01*
G75*
G02*
X0049803Y0076672I-000394J0000000D01*
G01*
X0045669Y0076672D01*
G75*
G02*
X0045276Y0077066I0000000J0000394D01*
G01*
X0045276Y0080215D01*
G75*
G02*
X0045669Y0080609I0000394J0000000D01*
G01*
G37*
G36*
G01*
X0045669Y0072735D02*
X0049803Y0072735D01*
G75*
G02*
X0050197Y0072341I0000000J-000394D01*
G01*
X0050197Y0069192D01*
G75*
G02*
X0049803Y0068798I-000394J0000000D01*
G01*
X0045669Y0068798D01*
G75*
G02*
X0045276Y0069192I0000000J0000394D01*
G01*
X0045276Y0072341D01*
G75*
G02*
X0045669Y0072735I0000394J0000000D01*
G01*
G37*
G36*
G01*
X0117298Y0222991D02*
X0119316Y0222991D01*
G75*
G02*
X0120177Y0222130I0000000J-000861D01*
G01*
X0120177Y0220407D01*
G75*
G02*
X0119316Y0219546I-000861J0000000D01*
G01*
X0117298Y0219546D01*
G75*
G02*
X0116437Y0220407I0000000J0000861D01*
G01*
X0116437Y0222130D01*
G75*
G02*
X0117298Y0222991I0000861J0000000D01*
G01*
G37*
G36*
G01*
X0117298Y0216790D02*
X0119316Y0216790D01*
G75*
G02*
X0120177Y0215929I0000000J-000861D01*
G01*
X0120177Y0214207D01*
G75*
G02*
X0119316Y0213345I-000861J0000000D01*
G01*
X0117298Y0213345D01*
G75*
G02*
X0116437Y0214207I0000000J0000861D01*
G01*
X0116437Y0215929D01*
G75*
G02*
X0117298Y0216790I0000861J0000000D01*
G01*
G37*
G36*
G01*
X0131732Y0116397D02*
X0134803Y0116397D01*
G75*
G02*
X0135079Y0116121I0000000J-000276D01*
G01*
X0135079Y0113916D01*
G75*
G02*
X0134803Y0113641I-000276J0000000D01*
G01*
X0131732Y0113641D01*
G75*
G02*
X0131457Y0113916I0000000J0000276D01*
G01*
X0131457Y0116121D01*
G75*
G02*
X0131732Y0116397I0000276J0000000D01*
G01*
G37*
G36*
G01*
X0131732Y0110097D02*
X0134803Y0110097D01*
G75*
G02*
X0135079Y0109822I0000000J-000276D01*
G01*
X0135079Y0107617D01*
G75*
G02*
X0134803Y0107341I-000276J0000000D01*
G01*
X0131732Y0107341D01*
G75*
G02*
X0131457Y0107617I0000000J0000276D01*
G01*
X0131457Y0109822D01*
G75*
G02*
X0131732Y0110097I0000276J0000000D01*
G01*
G37*
G36*
G01*
X0207028Y0323916D02*
X0207028Y0326593D01*
G75*
G02*
X0207362Y0326928I0000335J0000000D01*
G01*
X0210039Y0326928D01*
G75*
G02*
X0210374Y0326593I0000000J-000335D01*
G01*
X0210374Y0323916D01*
G75*
G02*
X0210039Y0323582I-000335J0000000D01*
G01*
X0207362Y0323582D01*
G75*
G02*
X0207028Y0323916I0000000J0000335D01*
G01*
G37*
G36*
G01*
X0213248Y0323916D02*
X0213248Y0326593D01*
G75*
G02*
X0213583Y0326928I0000335J0000000D01*
G01*
X0216260Y0326928D01*
G75*
G02*
X0216594Y0326593I0000000J-000335D01*
G01*
X0216594Y0323916D01*
G75*
G02*
X0216260Y0323582I-000335J0000000D01*
G01*
X0213583Y0323582D01*
G75*
G02*
X0213248Y0323916I0000000J0000335D01*
G01*
G37*
G36*
G01*
X0009370Y0345432D02*
X0010551Y0345432D01*
G75*
G02*
X0011142Y0344841I0000000J-000591D01*
G01*
X0011142Y0338345D01*
G75*
G02*
X0010551Y0337755I-000591J0000000D01*
G01*
X0009370Y0337755D01*
G75*
G02*
X0008780Y0338345I0000000J0000591D01*
G01*
X0008780Y0344841D01*
G75*
G02*
X0009370Y0345432I0000591J0000000D01*
G01*
G37*
G36*
G01*
X0014370Y0345432D02*
X0015551Y0345432D01*
G75*
G02*
X0016142Y0344841I0000000J-000591D01*
G01*
X0016142Y0338345D01*
G75*
G02*
X0015551Y0337755I-000591J0000000D01*
G01*
X0014370Y0337755D01*
G75*
G02*
X0013780Y0338345I0000000J0000591D01*
G01*
X0013780Y0344841D01*
G75*
G02*
X0014370Y0345432I0000591J0000000D01*
G01*
G37*
G36*
G01*
X0019370Y0345432D02*
X0020551Y0345432D01*
G75*
G02*
X0021142Y0344841I0000000J-000591D01*
G01*
X0021142Y0338345D01*
G75*
G02*
X0020551Y0337755I-000591J0000000D01*
G01*
X0019370Y0337755D01*
G75*
G02*
X0018780Y0338345I0000000J0000591D01*
G01*
X0018780Y0344841D01*
G75*
G02*
X0019370Y0345432I0000591J0000000D01*
G01*
G37*
G36*
G01*
X0024370Y0345432D02*
X0025551Y0345432D01*
G75*
G02*
X0026142Y0344841I0000000J-000591D01*
G01*
X0026142Y0338345D01*
G75*
G02*
X0025551Y0337755I-000591J0000000D01*
G01*
X0024370Y0337755D01*
G75*
G02*
X0023780Y0338345I0000000J0000591D01*
G01*
X0023780Y0344841D01*
G75*
G02*
X0024370Y0345432I0000591J0000000D01*
G01*
G37*
G36*
G01*
X0024370Y0325944D02*
X0025551Y0325944D01*
G75*
G02*
X0026142Y0325353I0000000J-000591D01*
G01*
X0026142Y0318857D01*
G75*
G02*
X0025551Y0318267I-000591J0000000D01*
G01*
X0024370Y0318267D01*
G75*
G02*
X0023780Y0318857I0000000J0000591D01*
G01*
X0023780Y0325353D01*
G75*
G02*
X0024370Y0325944I0000591J0000000D01*
G01*
G37*
G36*
G01*
X0019370Y0325944D02*
X0020551Y0325944D01*
G75*
G02*
X0021142Y0325353I0000000J-000591D01*
G01*
X0021142Y0318857D01*
G75*
G02*
X0020551Y0318267I-000591J0000000D01*
G01*
X0019370Y0318267D01*
G75*
G02*
X0018780Y0318857I0000000J0000591D01*
G01*
X0018780Y0325353D01*
G75*
G02*
X0019370Y0325944I0000591J0000000D01*
G01*
G37*
G36*
G01*
X0014370Y0325944D02*
X0015551Y0325944D01*
G75*
G02*
X0016142Y0325353I0000000J-000591D01*
G01*
X0016142Y0318857D01*
G75*
G02*
X0015551Y0318267I-000591J0000000D01*
G01*
X0014370Y0318267D01*
G75*
G02*
X0013780Y0318857I0000000J0000591D01*
G01*
X0013780Y0325353D01*
G75*
G02*
X0014370Y0325944I0000591J0000000D01*
G01*
G37*
G36*
G01*
X0009370Y0325944D02*
X0010551Y0325944D01*
G75*
G02*
X0011142Y0325353I0000000J-000591D01*
G01*
X0011142Y0318857D01*
G75*
G02*
X0010551Y0318267I-000591J0000000D01*
G01*
X0009370Y0318267D01*
G75*
G02*
X0008780Y0318857I0000000J0000591D01*
G01*
X0008780Y0325353D01*
G75*
G02*
X0009370Y0325944I0000591J0000000D01*
G01*
G37*
G36*
G01*
X0018268Y0160097D02*
X0015197Y0160097D01*
G75*
G02*
X0014921Y0160373I0000000J0000276D01*
G01*
X0014921Y0162578D01*
G75*
G02*
X0015197Y0162853I0000276J0000000D01*
G01*
X0018268Y0162853D01*
G75*
G02*
X0018543Y0162578I0000000J-000276D01*
G01*
X0018543Y0160373D01*
G75*
G02*
X0018268Y0160097I-000276J0000000D01*
G01*
G37*
G36*
G01*
X0018268Y0166397D02*
X0015197Y0166397D01*
G75*
G02*
X0014921Y0166672I0000000J0000276D01*
G01*
X0014921Y0168877D01*
G75*
G02*
X0015197Y0169152I0000276J0000000D01*
G01*
X0018268Y0169152D01*
G75*
G02*
X0018543Y0168877I0000000J-000276D01*
G01*
X0018543Y0166672D01*
G75*
G02*
X0018268Y0166397I-000276J0000000D01*
G01*
G37*
G36*
G01*
X0113789Y0213641D02*
X0110719Y0213641D01*
G75*
G02*
X0110443Y0213916I0000000J0000276D01*
G01*
X0110443Y0216121D01*
G75*
G02*
X0110719Y0216397I0000276J0000000D01*
G01*
X0113789Y0216397D01*
G75*
G02*
X0114065Y0216121I0000000J-000276D01*
G01*
X0114065Y0213916D01*
G75*
G02*
X0113789Y0213641I-000276J0000000D01*
G01*
G37*
G36*
G01*
X0113789Y0219940D02*
X0110719Y0219940D01*
G75*
G02*
X0110443Y0220215I0000000J0000276D01*
G01*
X0110443Y0222420D01*
G75*
G02*
X0110719Y0222696I0000276J0000000D01*
G01*
X0113789Y0222696D01*
G75*
G02*
X0114065Y0222420I0000000J-000276D01*
G01*
X0114065Y0220215D01*
G75*
G02*
X0113789Y0219940I-000276J0000000D01*
G01*
G37*
G36*
G01*
X0221432Y0339527D02*
X0223450Y0339527D01*
G75*
G02*
X0224311Y0338665I0000000J-000861D01*
G01*
X0224311Y0336943D01*
G75*
G02*
X0223450Y0336082I-000861J0000000D01*
G01*
X0221432Y0336082D01*
G75*
G02*
X0220571Y0336943I0000000J0000861D01*
G01*
X0220571Y0338665D01*
G75*
G02*
X0221432Y0339527I0000861J0000000D01*
G01*
G37*
G36*
G01*
X0221432Y0333326D02*
X0223450Y0333326D01*
G75*
G02*
X0224311Y0332464I0000000J-000861D01*
G01*
X0224311Y0330742D01*
G75*
G02*
X0223450Y0329881I-000861J0000000D01*
G01*
X0221432Y0329881D01*
G75*
G02*
X0220571Y0330742I0000000J0000861D01*
G01*
X0220571Y0332464D01*
G75*
G02*
X0221432Y0333326I0000861J0000000D01*
G01*
G37*
G36*
G01*
X0047539Y0043365D02*
X0051673Y0043365D01*
G75*
G02*
X0052067Y0042971I0000000J-000394D01*
G01*
X0052067Y0039822D01*
G75*
G02*
X0051673Y0039428I-000394J0000000D01*
G01*
X0047539Y0039428D01*
G75*
G02*
X0047146Y0039822I0000000J0000394D01*
G01*
X0047146Y0042971D01*
G75*
G02*
X0047539Y0043365I0000394J0000000D01*
G01*
G37*
G36*
G01*
X0047539Y0035491D02*
X0051673Y0035491D01*
G75*
G02*
X0052067Y0035097I0000000J-000394D01*
G01*
X0052067Y0031948D01*
G75*
G02*
X0051673Y0031554I-000394J0000000D01*
G01*
X0047539Y0031554D01*
G75*
G02*
X0047146Y0031948I0000000J0000394D01*
G01*
X0047146Y0035097D01*
G75*
G02*
X0047539Y0035491I0000394J0000000D01*
G01*
G37*
G36*
G01*
X0108169Y0113542D02*
X0108169Y0102322D01*
G75*
G02*
X0107185Y0101338I-000984J0000000D01*
G01*
X0104331Y0101338D01*
G75*
G02*
X0103346Y0102322I0000000J0000984D01*
G01*
X0103346Y0113542D01*
G75*
G02*
X0104331Y0114527I0000984J0000000D01*
G01*
X0107185Y0114527D01*
G75*
G02*
X0108169Y0113542I0000000J-000984D01*
G01*
G37*
G36*
G01*
X0084843Y0113542D02*
X0084843Y0102322D01*
G75*
G02*
X0083858Y0101338I-000984J0000000D01*
G01*
X0081004Y0101338D01*
G75*
G02*
X0080020Y0102322I0000000J0000984D01*
G01*
X0080020Y0113542D01*
G75*
G02*
X0081004Y0114527I0000984J0000000D01*
G01*
X0083858Y0114527D01*
G75*
G02*
X0084843Y0113542I0000000J-000984D01*
G01*
G37*
G36*
G01*
X0034055Y0053050D02*
X0029921Y0053050D01*
G75*
G02*
X0029528Y0053444I0000000J0000394D01*
G01*
X0029528Y0056593D01*
G75*
G02*
X0029921Y0056987I0000394J0000000D01*
G01*
X0034055Y0056987D01*
G75*
G02*
X0034449Y0056593I0000000J-000394D01*
G01*
X0034449Y0053444D01*
G75*
G02*
X0034055Y0053050I-000394J0000000D01*
G01*
G37*
G36*
G01*
X0034055Y0060924D02*
X0029921Y0060924D01*
G75*
G02*
X0029528Y0061318I0000000J0000394D01*
G01*
X0029528Y0064467D01*
G75*
G02*
X0029921Y0064861I0000394J0000000D01*
G01*
X0034055Y0064861D01*
G75*
G02*
X0034449Y0064467I0000000J-000394D01*
G01*
X0034449Y0061318D01*
G75*
G02*
X0034055Y0060924I-000394J0000000D01*
G01*
G37*
G36*
G01*
X0041929Y0053050D02*
X0037795Y0053050D01*
G75*
G02*
X0037402Y0053444I0000000J0000394D01*
G01*
X0037402Y0056593D01*
G75*
G02*
X0037795Y0056987I0000394J0000000D01*
G01*
X0041929Y0056987D01*
G75*
G02*
X0042323Y0056593I0000000J-000394D01*
G01*
X0042323Y0053444D01*
G75*
G02*
X0041929Y0053050I-000394J0000000D01*
G01*
G37*
G36*
G01*
X0041929Y0060924D02*
X0037795Y0060924D01*
G75*
G02*
X0037402Y0061318I0000000J0000394D01*
G01*
X0037402Y0064467D01*
G75*
G02*
X0037795Y0064861I0000394J0000000D01*
G01*
X0041929Y0064861D01*
G75*
G02*
X0042323Y0064467I0000000J-000394D01*
G01*
X0042323Y0061318D01*
G75*
G02*
X0041929Y0060924I-000394J0000000D01*
G01*
G37*
G36*
G01*
X0018307Y0053050D02*
X0014173Y0053050D01*
G75*
G02*
X0013780Y0053444I0000000J0000394D01*
G01*
X0013780Y0056593D01*
G75*
G02*
X0014173Y0056987I0000394J0000000D01*
G01*
X0018307Y0056987D01*
G75*
G02*
X0018701Y0056593I0000000J-000394D01*
G01*
X0018701Y0053444D01*
G75*
G02*
X0018307Y0053050I-000394J0000000D01*
G01*
G37*
G36*
G01*
X0018307Y0060924D02*
X0014173Y0060924D01*
G75*
G02*
X0013780Y0061318I0000000J0000394D01*
G01*
X0013780Y0064467D01*
G75*
G02*
X0014173Y0064861I0000394J0000000D01*
G01*
X0018307Y0064861D01*
G75*
G02*
X0018701Y0064467I0000000J-000394D01*
G01*
X0018701Y0061318D01*
G75*
G02*
X0018307Y0060924I-000394J0000000D01*
G01*
G37*
G36*
G01*
X0022047Y0080609D02*
X0026181Y0080609D01*
G75*
G02*
X0026575Y0080215I0000000J-000394D01*
G01*
X0026575Y0077066D01*
G75*
G02*
X0026181Y0076672I-000394J0000000D01*
G01*
X0022047Y0076672D01*
G75*
G02*
X0021654Y0077066I0000000J0000394D01*
G01*
X0021654Y0080215D01*
G75*
G02*
X0022047Y0080609I0000394J0000000D01*
G01*
G37*
G36*
G01*
X0022047Y0072735D02*
X0026181Y0072735D01*
G75*
G02*
X0026575Y0072341I0000000J-000394D01*
G01*
X0026575Y0069192D01*
G75*
G02*
X0026181Y0068798I-000394J0000000D01*
G01*
X0022047Y0068798D01*
G75*
G02*
X0021654Y0069192I0000000J0000394D01*
G01*
X0021654Y0072341D01*
G75*
G02*
X0022047Y0072735I0000394J0000000D01*
G01*
G37*
G36*
G01*
X0071161Y0043365D02*
X0075295Y0043365D01*
G75*
G02*
X0075689Y0042971I0000000J-000394D01*
G01*
X0075689Y0039822D01*
G75*
G02*
X0075295Y0039428I-000394J0000000D01*
G01*
X0071161Y0039428D01*
G75*
G02*
X0070768Y0039822I0000000J0000394D01*
G01*
X0070768Y0042971D01*
G75*
G02*
X0071161Y0043365I0000394J0000000D01*
G01*
G37*
G36*
G01*
X0071161Y0035491D02*
X0075295Y0035491D01*
G75*
G02*
X0075689Y0035097I0000000J-000394D01*
G01*
X0075689Y0031948D01*
G75*
G02*
X0075295Y0031554I-000394J0000000D01*
G01*
X0071161Y0031554D01*
G75*
G02*
X0070768Y0031948I0000000J0000394D01*
G01*
X0070768Y0035097D01*
G75*
G02*
X0071161Y0035491I0000394J0000000D01*
G01*
G37*
G36*
G01*
X0120827Y0297499D02*
X0117756Y0297499D01*
G75*
G02*
X0117480Y0297775I0000000J0000276D01*
G01*
X0117480Y0299979D01*
G75*
G02*
X0117756Y0300255I0000276J0000000D01*
G01*
X0120827Y0300255D01*
G75*
G02*
X0121102Y0299979I0000000J-000276D01*
G01*
X0121102Y0297775D01*
G75*
G02*
X0120827Y0297499I-000276J0000000D01*
G01*
G37*
G36*
G01*
X0120827Y0303798D02*
X0117756Y0303798D01*
G75*
G02*
X0117480Y0304074I0000000J0000276D01*
G01*
X0117480Y0306278D01*
G75*
G02*
X0117756Y0306554I0000276J0000000D01*
G01*
X0120827Y0306554D01*
G75*
G02*
X0121102Y0306278I0000000J-000276D01*
G01*
X0121102Y0304074D01*
G75*
G02*
X0120827Y0303798I-000276J0000000D01*
G01*
G37*
G36*
G01*
X0051673Y0015806D02*
X0047539Y0015806D01*
G75*
G02*
X0047146Y0016200I0000000J0000394D01*
G01*
X0047146Y0019349D01*
G75*
G02*
X0047539Y0019743I0000394J0000000D01*
G01*
X0051673Y0019743D01*
G75*
G02*
X0052067Y0019349I0000000J-000394D01*
G01*
X0052067Y0016200D01*
G75*
G02*
X0051673Y0015806I-000394J0000000D01*
G01*
G37*
G36*
G01*
X0051673Y0023680D02*
X0047539Y0023680D01*
G75*
G02*
X0047146Y0024074I0000000J0000394D01*
G01*
X0047146Y0027223D01*
G75*
G02*
X0047539Y0027617I0000394J0000000D01*
G01*
X0051673Y0027617D01*
G75*
G02*
X0052067Y0027223I0000000J-000394D01*
G01*
X0052067Y0024074D01*
G75*
G02*
X0051673Y0023680I-000394J0000000D01*
G01*
G37*
G36*
G01*
X0222480Y0247893D02*
X0225551Y0247893D01*
G75*
G02*
X0225827Y0247617I0000000J-000276D01*
G01*
X0225827Y0245412D01*
G75*
G02*
X0225551Y0245137I-000276J0000000D01*
G01*
X0222480Y0245137D01*
G75*
G02*
X0222205Y0245412I0000000J0000276D01*
G01*
X0222205Y0247617D01*
G75*
G02*
X0222480Y0247893I0000276J0000000D01*
G01*
G37*
G36*
G01*
X0222480Y0241593D02*
X0225551Y0241593D01*
G75*
G02*
X0225827Y0241318I0000000J-000276D01*
G01*
X0225827Y0239113D01*
G75*
G02*
X0225551Y0238838I-000276J0000000D01*
G01*
X0222480Y0238838D01*
G75*
G02*
X0222205Y0239113I0000000J0000276D01*
G01*
X0222205Y0241318D01*
G75*
G02*
X0222480Y0241593I0000276J0000000D01*
G01*
G37*
G36*
G01*
X0303976Y0283326D02*
X0307047Y0283326D01*
G75*
G02*
X0307323Y0283050I0000000J-000276D01*
G01*
X0307323Y0280845D01*
G75*
G02*
X0307047Y0280570I-000276J0000000D01*
G01*
X0303976Y0280570D01*
G75*
G02*
X0303701Y0280845I0000000J0000276D01*
G01*
X0303701Y0283050D01*
G75*
G02*
X0303976Y0283326I0000276J0000000D01*
G01*
G37*
G36*
G01*
X0303976Y0277027D02*
X0307047Y0277027D01*
G75*
G02*
X0307323Y0276751I0000000J-000276D01*
G01*
X0307323Y0274546D01*
G75*
G02*
X0307047Y0274271I-000276J0000000D01*
G01*
X0303976Y0274271D01*
G75*
G02*
X0303701Y0274546I0000000J0000276D01*
G01*
X0303701Y0276751D01*
G75*
G02*
X0303976Y0277027I0000276J0000000D01*
G01*
G37*
G36*
G01*
X0064528Y0078208D02*
X0061457Y0078208D01*
G75*
G02*
X0061181Y0078483I0000000J0000276D01*
G01*
X0061181Y0080688D01*
G75*
G02*
X0061457Y0080964I0000276J0000000D01*
G01*
X0064528Y0080964D01*
G75*
G02*
X0064803Y0080688I0000000J-000276D01*
G01*
X0064803Y0078483D01*
G75*
G02*
X0064528Y0078208I-000276J0000000D01*
G01*
G37*
G36*
G01*
X0064528Y0084507D02*
X0061457Y0084507D01*
G75*
G02*
X0061181Y0084782I0000000J0000276D01*
G01*
X0061181Y0086987D01*
G75*
G02*
X0061457Y0087263I0000276J0000000D01*
G01*
X0064528Y0087263D01*
G75*
G02*
X0064803Y0086987I0000000J-000276D01*
G01*
X0064803Y0084782D01*
G75*
G02*
X0064528Y0084507I-000276J0000000D01*
G01*
G37*
G36*
G01*
X0113287Y0305767D02*
X0113287Y0304586D01*
G75*
G02*
X0112697Y0303995I-000591J0000000D01*
G01*
X0106201Y0303995D01*
G75*
G02*
X0105610Y0304586I0000000J0000591D01*
G01*
X0105610Y0305767D01*
G75*
G02*
X0106201Y0306357I0000591J0000000D01*
G01*
X0112697Y0306357D01*
G75*
G02*
X0113287Y0305767I0000000J-000591D01*
G01*
G37*
G36*
G01*
X0113287Y0300767D02*
X0113287Y0299586D01*
G75*
G02*
X0112697Y0298995I-000591J0000000D01*
G01*
X0106201Y0298995D01*
G75*
G02*
X0105610Y0299586I0000000J0000591D01*
G01*
X0105610Y0300767D01*
G75*
G02*
X0106201Y0301357I0000591J0000000D01*
G01*
X0112697Y0301357D01*
G75*
G02*
X0113287Y0300767I0000000J-000591D01*
G01*
G37*
G36*
G01*
X0113287Y0295767D02*
X0113287Y0294586D01*
G75*
G02*
X0112697Y0293995I-000591J0000000D01*
G01*
X0106201Y0293995D01*
G75*
G02*
X0105610Y0294586I0000000J0000591D01*
G01*
X0105610Y0295767D01*
G75*
G02*
X0106201Y0296357I0000591J0000000D01*
G01*
X0112697Y0296357D01*
G75*
G02*
X0113287Y0295767I0000000J-000591D01*
G01*
G37*
G36*
G01*
X0113287Y0290767D02*
X0113287Y0289586D01*
G75*
G02*
X0112697Y0288995I-000591J0000000D01*
G01*
X0106201Y0288995D01*
G75*
G02*
X0105610Y0289586I0000000J0000591D01*
G01*
X0105610Y0290767D01*
G75*
G02*
X0106201Y0291357I0000591J0000000D01*
G01*
X0112697Y0291357D01*
G75*
G02*
X0113287Y0290767I0000000J-000591D01*
G01*
G37*
G36*
G01*
X0093799Y0290767D02*
X0093799Y0289586D01*
G75*
G02*
X0093209Y0288995I-000591J0000000D01*
G01*
X0086713Y0288995D01*
G75*
G02*
X0086122Y0289586I0000000J0000591D01*
G01*
X0086122Y0290767D01*
G75*
G02*
X0086713Y0291357I0000591J0000000D01*
G01*
X0093209Y0291357D01*
G75*
G02*
X0093799Y0290767I0000000J-000591D01*
G01*
G37*
G36*
G01*
X0093799Y0295767D02*
X0093799Y0294586D01*
G75*
G02*
X0093209Y0293995I-000591J0000000D01*
G01*
X0086713Y0293995D01*
G75*
G02*
X0086122Y0294586I0000000J0000591D01*
G01*
X0086122Y0295767D01*
G75*
G02*
X0086713Y0296357I0000591J0000000D01*
G01*
X0093209Y0296357D01*
G75*
G02*
X0093799Y0295767I0000000J-000591D01*
G01*
G37*
G36*
G01*
X0093799Y0300767D02*
X0093799Y0299586D01*
G75*
G02*
X0093209Y0298995I-000591J0000000D01*
G01*
X0086713Y0298995D01*
G75*
G02*
X0086122Y0299586I0000000J0000591D01*
G01*
X0086122Y0300767D01*
G75*
G02*
X0086713Y0301357I0000591J0000000D01*
G01*
X0093209Y0301357D01*
G75*
G02*
X0093799Y0300767I0000000J-000591D01*
G01*
G37*
G36*
G01*
X0093799Y0305767D02*
X0093799Y0304586D01*
G75*
G02*
X0093209Y0303995I-000591J0000000D01*
G01*
X0086713Y0303995D01*
G75*
G02*
X0086122Y0304586I0000000J0000591D01*
G01*
X0086122Y0305767D01*
G75*
G02*
X0086713Y0306357I0000591J0000000D01*
G01*
X0093209Y0306357D01*
G75*
G02*
X0093799Y0305767I0000000J-000591D01*
G01*
G37*
X0096949Y0004823D02*
G01*
G75*
D108*
X0126864Y0081201D02*
D03*
X0113872Y0081201D02*
D03*
D109*
X0146724Y0081595D02*
D03*
X0135307Y0081595D02*
D03*
X0146724Y0073563D02*
D03*
X0135307Y0073563D02*
D03*
D112*
X0109351Y0059547D02*
D03*
X0109351Y0063484D02*
D03*
X0106004Y0074114D02*
D03*
X0114666Y0074114D02*
D03*
X0105217Y0068866D02*
D03*
X0113878Y0068866D02*
D03*
D113*
X0117104Y0016240D02*
D03*
X0113560Y0016240D02*
D03*
X0126495Y0052973D02*
D03*
X0130039Y0052973D02*
D03*
X0118498Y0068078D02*
D03*
X0122041Y0068078D02*
D03*
X0125722Y0016240D02*
D03*
X0122179Y0016240D02*
D03*
X0105217Y0020177D02*
D03*
X0108760Y0020177D02*
D03*
D114*
X0130702Y0069653D02*
D03*
X0130702Y0073197D02*
D03*
X0109935Y0082055D02*
D03*
X0109935Y0078511D02*
D03*
X0158699Y0023738D02*
D03*
X0158699Y0027282D02*
D03*
D132*
X0146162Y0061122D02*
D03*
X0135138Y0061122D02*
D03*
D133*
X0113484Y0056799D02*
D03*
X0113484Y0063019D02*
D03*
X0127578Y0056799D02*
D03*
X0127578Y0063019D02*
D03*
X0122887Y0056799D02*
D03*
X0122887Y0063019D02*
D03*
X0118195Y0056799D02*
D03*
X0118195Y0063019D02*
D03*
X0126397Y0069043D02*
D03*
X0126397Y0075264D02*
D03*
D134*
X0116907Y0020177D02*
D03*
X0112970Y0020177D02*
D03*
X0121588Y0020177D02*
D03*
X0125525Y0020177D02*
D03*
X0118301Y0074114D02*
D03*
X0122238Y0074114D02*
D03*
X0141234Y0052500D02*
D03*
X0145171Y0052500D02*
D03*
X0149010Y0015059D02*
D03*
X0145072Y0015059D02*
D03*
D135*
X0122021Y0026937D02*
D03*
X0117021Y0026937D02*
D03*
X0112021Y0026937D02*
D03*
X0107021Y0026937D02*
D03*
X0122021Y0049574D02*
D03*
X0117021Y0049574D02*
D03*
X0112021Y0049574D02*
D03*
X0107021Y0049574D02*
D03*
X0145088Y0021654D02*
D03*
X0140088Y0021654D02*
D03*
X0135088Y0021654D02*
D03*
X0130088Y0021654D02*
D03*
X0145088Y0045079D02*
D03*
X0140088Y0045079D02*
D03*
X0135088Y0045079D02*
D03*
X0130088Y0045079D02*
D03*
D136*
X0114521Y0038255D02*
D03*
D137*
X0137588Y0033366D02*
D03*
X0303051Y0323327D02*
G01*
G75*
D298*
X0313287Y0295374D02*
D03*
X0313287Y0291437D02*
D03*
X0313287Y0306497D02*
D03*
X0313287Y0310434D02*
D03*
X0313287Y0314863D02*
D03*
X0313287Y0318800D02*
D03*
X0306004Y0295374D02*
D03*
X0306004Y0291437D02*
D03*
D299*
X0305807Y0298759D02*
D03*
X0309350Y0298759D02*
D03*
D300*
X0312520Y0302644D02*
D03*
X0306299Y0302644D02*
D03*
D301*
X0309350Y0315256D02*
D03*
X0309350Y0318799D02*
D03*
X0305807Y0306890D02*
D03*
X0305807Y0310433D02*
D03*
X0309408Y0292028D02*
D03*
X0309408Y0295571D02*
D03*
X0305807Y0318799D02*
D03*
X0305807Y0315256D02*
D03*
X0166437Y0305020D02*
%LPD*%
G01*
G36*
G01*
X0197031Y0288091D02*
X0195850Y0288091D01*
G75*
G02*
X0195259Y0288681I0000000J0000591D01*
G01*
X0195259Y0292717D01*
G75*
G02*
X0195850Y0293307I0000591J0000000D01*
G01*
X0197031Y0293307D01*
G75*
G02*
X0197621Y0292717I0000000J-000591D01*
G01*
X0197621Y0288681D01*
G75*
G02*
X0197031Y0288091I-000591J0000000D01*
G01*
G37*
G36*
G01*
X0193290Y0288091D02*
X0192109Y0288091D01*
G75*
G02*
X0191519Y0288681I0000000J0000591D01*
G01*
X0191519Y0292717D01*
G75*
G02*
X0192109Y0293307I0000591J0000000D01*
G01*
X0193290Y0293307D01*
G75*
G02*
X0193881Y0292717I0000000J-000591D01*
G01*
X0193881Y0288681D01*
G75*
G02*
X0193290Y0288091I-000591J0000000D01*
G01*
G37*
G36*
G01*
X0189550Y0288091D02*
X0188369Y0288091D01*
G75*
G02*
X0187779Y0288681I0000000J0000591D01*
G01*
X0187779Y0292717D01*
G75*
G02*
X0188369Y0293307I0000591J0000000D01*
G01*
X0189550Y0293307D01*
G75*
G02*
X0190141Y0292717I0000000J-000591D01*
G01*
X0190141Y0288681D01*
G75*
G02*
X0189550Y0288091I-000591J0000000D01*
G01*
G37*
G36*
G01*
X0189550Y0297048D02*
X0188369Y0297048D01*
G75*
G02*
X0187779Y0297638I0000000J0000591D01*
G01*
X0187779Y0301674D01*
G75*
G02*
X0188369Y0302264I0000591J0000000D01*
G01*
X0189550Y0302264D01*
G75*
G02*
X0190141Y0301674I0000000J-000591D01*
G01*
X0190141Y0297638D01*
G75*
G02*
X0189550Y0297048I-000591J0000000D01*
G01*
G37*
G36*
G01*
X0197031Y0297048D02*
X0195850Y0297048D01*
G75*
G02*
X0195259Y0297638I0000000J0000591D01*
G01*
X0195259Y0301674D01*
G75*
G02*
X0195850Y0302264I0000591J0000000D01*
G01*
X0197031Y0302264D01*
G75*
G02*
X0197621Y0301674I0000000J-000591D01*
G01*
X0197621Y0297638D01*
G75*
G02*
X0197031Y0297048I-000591J0000000D01*
G01*
G37*
G36*
G01*
X0174744Y0288366D02*
X0174744Y0287028D01*
G75*
G02*
X0174193Y0286477I-000551J0000000D01*
G01*
X0173091Y0286477D01*
G75*
G02*
X0172539Y0287028I0000000J0000551D01*
G01*
X0172539Y0288366D01*
G75*
G02*
X0173091Y0288918I0000551J0000000D01*
G01*
X0174193Y0288918D01*
G75*
G02*
X0174744Y0288366I0000000J-000551D01*
G01*
G37*
G36*
G01*
X0170965Y0288366D02*
X0170965Y0287028D01*
G75*
G02*
X0170413Y0286477I-000551J0000000D01*
G01*
X0169311Y0286477D01*
G75*
G02*
X0168760Y0287028I0000000J0000551D01*
G01*
X0168760Y0288366D01*
G75*
G02*
X0169311Y0288918I0000551J0000000D01*
G01*
X0170413Y0288918D01*
G75*
G02*
X0170965Y0288366I0000000J-000551D01*
G01*
G37*
G36*
G01*
X0197461Y0261851D02*
X0198799Y0261851D01*
G75*
G02*
X0199350Y0261300I0000000J-000551D01*
G01*
X0199350Y0260197D01*
G75*
G02*
X0198799Y0259646I-000551J0000000D01*
G01*
X0197461Y0259646D01*
G75*
G02*
X0196909Y0260197I0000000J0000551D01*
G01*
X0196909Y0261300D01*
G75*
G02*
X0197461Y0261851I0000551J0000000D01*
G01*
G37*
G36*
G01*
X0197461Y0258071D02*
X0198799Y0258071D01*
G75*
G02*
X0199350Y0257520I0000000J-000551D01*
G01*
X0199350Y0256418D01*
G75*
G02*
X0198799Y0255866I-000551J0000000D01*
G01*
X0197461Y0255866D01*
G75*
G02*
X0196909Y0256418I0000000J0000551D01*
G01*
X0196909Y0257520D01*
G75*
G02*
X0197461Y0258071I0000551J0000000D01*
G01*
G37*
G36*
G01*
X0202461Y0248504D02*
X0201122Y0248504D01*
G75*
G02*
X0200571Y0249055I0000000J0000551D01*
G01*
X0200571Y0250158D01*
G75*
G02*
X0201122Y0250709I0000551J0000000D01*
G01*
X0202461Y0250709D01*
G75*
G02*
X0203012Y0250158I0000000J-000551D01*
G01*
X0203012Y0249055D01*
G75*
G02*
X0202461Y0248504I-000551J0000000D01*
G01*
G37*
G36*
G01*
X0202461Y0252284D02*
X0201122Y0252284D01*
G75*
G02*
X0200571Y0252835I0000000J0000551D01*
G01*
X0200571Y0253937D01*
G75*
G02*
X0201122Y0254489I0000551J0000000D01*
G01*
X0202461Y0254489D01*
G75*
G02*
X0203012Y0253937I0000000J-000551D01*
G01*
X0203012Y0252835D01*
G75*
G02*
X0202461Y0252284I-000551J0000000D01*
G01*
G37*
G36*
G01*
X0193720Y0270256D02*
X0195059Y0270256D01*
G75*
G02*
X0195610Y0269705I0000000J-000551D01*
G01*
X0195610Y0268603D01*
G75*
G02*
X0195059Y0268051I-000551J0000000D01*
G01*
X0193720Y0268051D01*
G75*
G02*
X0193169Y0268603I0000000J0000551D01*
G01*
X0193169Y0269705D01*
G75*
G02*
X0193720Y0270256I0000551J0000000D01*
G01*
G37*
G36*
G01*
X0193720Y0266477D02*
X0195059Y0266477D01*
G75*
G02*
X0195610Y0265926I0000000J-000551D01*
G01*
X0195610Y0264823D01*
G75*
G02*
X0195059Y0264272I-000551J0000000D01*
G01*
X0193720Y0264272D01*
G75*
G02*
X0193169Y0264823I0000000J0000551D01*
G01*
X0193169Y0265926D01*
G75*
G02*
X0193720Y0266477I0000551J0000000D01*
G01*
G37*
G36*
G01*
X0198799Y0248701D02*
X0197461Y0248701D01*
G75*
G02*
X0196909Y0249252I0000000J0000551D01*
G01*
X0196909Y0250355D01*
G75*
G02*
X0197461Y0250906I0000551J0000000D01*
G01*
X0198799Y0250906D01*
G75*
G02*
X0199350Y0250355I0000000J-000551D01*
G01*
X0199350Y0249252D01*
G75*
G02*
X0198799Y0248701I-000551J0000000D01*
G01*
G37*
G36*
G01*
X0198799Y0252481D02*
X0197461Y0252481D01*
G75*
G02*
X0196909Y0253032I0000000J0000551D01*
G01*
X0196909Y0254134D01*
G75*
G02*
X0197461Y0254685I0000551J0000000D01*
G01*
X0198799Y0254685D01*
G75*
G02*
X0199350Y0254134I0000000J-000551D01*
G01*
X0199350Y0253032D01*
G75*
G02*
X0198799Y0252481I-000551J0000000D01*
G01*
G37*
G36*
G01*
X0177283Y0253977D02*
X0178622Y0253977D01*
G75*
G02*
X0179173Y0253426I0000000J-000551D01*
G01*
X0179173Y0252323D01*
G75*
G02*
X0178622Y0251772I-000551J0000000D01*
G01*
X0177283Y0251772D01*
G75*
G02*
X0176732Y0252323I0000000J0000551D01*
G01*
X0176732Y0253426D01*
G75*
G02*
X0177283Y0253977I0000551J0000000D01*
G01*
G37*
G36*
G01*
X0177283Y0250197D02*
X0178622Y0250197D01*
G75*
G02*
X0179173Y0249646I0000000J-000551D01*
G01*
X0179173Y0248544D01*
G75*
G02*
X0178622Y0247992I-000551J0000000D01*
G01*
X0177283Y0247992D01*
G75*
G02*
X0176732Y0248544I0000000J0000551D01*
G01*
X0176732Y0249646D01*
G75*
G02*
X0177283Y0250197I0000551J0000000D01*
G01*
G37*
G36*
G01*
X0169783Y0284486D02*
X0170571Y0284486D01*
G75*
G02*
X0170965Y0284092I0000000J-000394D01*
G01*
X0170965Y0279072D01*
G75*
G02*
X0170571Y0278679I-000394J0000000D01*
G01*
X0169783Y0278679D01*
G75*
G02*
X0169390Y0279072I0000000J0000394D01*
G01*
X0169390Y0284092D01*
G75*
G02*
X0169783Y0284486I0000394J0000000D01*
G01*
G37*
G36*
G01*
X0172343Y0284486D02*
X0173130Y0284486D01*
G75*
G02*
X0173524Y0284092I0000000J-000394D01*
G01*
X0173524Y0279072D01*
G75*
G02*
X0173130Y0278679I-000394J0000000D01*
G01*
X0172343Y0278679D01*
G75*
G02*
X0171949Y0279072I0000000J0000394D01*
G01*
X0171949Y0284092D01*
G75*
G02*
X0172343Y0284486I0000394J0000000D01*
G01*
G37*
G36*
G01*
X0174902Y0284486D02*
X0175689Y0284486D01*
G75*
G02*
X0176083Y0284092I0000000J-000394D01*
G01*
X0176083Y0279072D01*
G75*
G02*
X0175689Y0278679I-000394J0000000D01*
G01*
X0174902Y0278679D01*
G75*
G02*
X0174508Y0279072I0000000J0000394D01*
G01*
X0174508Y0284092D01*
G75*
G02*
X0174902Y0284486I0000394J0000000D01*
G01*
G37*
G36*
G01*
X0177461Y0284486D02*
X0178248Y0284486D01*
G75*
G02*
X0178642Y0284092I0000000J-000394D01*
G01*
X0178642Y0279072D01*
G75*
G02*
X0178248Y0278679I-000394J0000000D01*
G01*
X0177461Y0278679D01*
G75*
G02*
X0177067Y0279072I0000000J0000394D01*
G01*
X0177067Y0284092D01*
G75*
G02*
X0177461Y0284486I0000394J0000000D01*
G01*
G37*
G36*
G01*
X0180020Y0284486D02*
X0180807Y0284486D01*
G75*
G02*
X0181201Y0284092I0000000J-000394D01*
G01*
X0181201Y0279072D01*
G75*
G02*
X0180807Y0278679I-000394J0000000D01*
G01*
X0180020Y0278679D01*
G75*
G02*
X0179626Y0279072I0000000J0000394D01*
G01*
X0179626Y0284092D01*
G75*
G02*
X0180020Y0284486I0000394J0000000D01*
G01*
G37*
G36*
G01*
X0182579Y0284486D02*
X0183366Y0284486D01*
G75*
G02*
X0183760Y0284092I0000000J-000394D01*
G01*
X0183760Y0279072D01*
G75*
G02*
X0183366Y0278679I-000394J0000000D01*
G01*
X0182579Y0278679D01*
G75*
G02*
X0182185Y0279072I0000000J0000394D01*
G01*
X0182185Y0284092D01*
G75*
G02*
X0182579Y0284486I0000394J0000000D01*
G01*
G37*
G36*
G01*
X0185138Y0284486D02*
X0185925Y0284486D01*
G75*
G02*
X0186319Y0284092I0000000J-000394D01*
G01*
X0186319Y0279072D01*
G75*
G02*
X0185925Y0278679I-000394J0000000D01*
G01*
X0185138Y0278679D01*
G75*
G02*
X0184744Y0279072I0000000J0000394D01*
G01*
X0184744Y0284092D01*
G75*
G02*
X0185138Y0284486I0000394J0000000D01*
G01*
G37*
G36*
G01*
X0185138Y0261946D02*
X0185925Y0261946D01*
G75*
G02*
X0186319Y0261553I0000000J-000394D01*
G01*
X0186319Y0256533D01*
G75*
G02*
X0185925Y0256139I-000394J0000000D01*
G01*
X0185138Y0256139D01*
G75*
G02*
X0184744Y0256533I0000000J0000394D01*
G01*
X0184744Y0261553D01*
G75*
G02*
X0185138Y0261946I0000394J0000000D01*
G01*
G37*
G36*
G01*
X0182579Y0261946D02*
X0183366Y0261946D01*
G75*
G02*
X0183760Y0261553I0000000J-000394D01*
G01*
X0183760Y0256533D01*
G75*
G02*
X0183366Y0256139I-000394J0000000D01*
G01*
X0182579Y0256139D01*
G75*
G02*
X0182185Y0256533I0000000J0000394D01*
G01*
X0182185Y0261553D01*
G75*
G02*
X0182579Y0261946I0000394J0000000D01*
G01*
G37*
G36*
G01*
X0180020Y0261946D02*
X0180807Y0261946D01*
G75*
G02*
X0181201Y0261553I0000000J-000394D01*
G01*
X0181201Y0256533D01*
G75*
G02*
X0180807Y0256139I-000394J0000000D01*
G01*
X0180020Y0256139D01*
G75*
G02*
X0179626Y0256533I0000000J0000394D01*
G01*
X0179626Y0261553D01*
G75*
G02*
X0180020Y0261946I0000394J0000000D01*
G01*
G37*
G36*
G01*
X0177461Y0261946D02*
X0178248Y0261946D01*
G75*
G02*
X0178642Y0261553I0000000J-000394D01*
G01*
X0178642Y0256533D01*
G75*
G02*
X0178248Y0256139I-000394J0000000D01*
G01*
X0177461Y0256139D01*
G75*
G02*
X0177067Y0256533I0000000J0000394D01*
G01*
X0177067Y0261553D01*
G75*
G02*
X0177461Y0261946I0000394J0000000D01*
G01*
G37*
G36*
G01*
X0174902Y0261946D02*
X0175689Y0261946D01*
G75*
G02*
X0176083Y0261553I0000000J-000394D01*
G01*
X0176083Y0256533D01*
G75*
G02*
X0175689Y0256139I-000394J0000000D01*
G01*
X0174902Y0256139D01*
G75*
G02*
X0174508Y0256533I0000000J0000394D01*
G01*
X0174508Y0261553D01*
G75*
G02*
X0174902Y0261946I0000394J0000000D01*
G01*
G37*
G36*
G01*
X0172343Y0261946D02*
X0173130Y0261946D01*
G75*
G02*
X0173524Y0261553I0000000J-000394D01*
G01*
X0173524Y0256533D01*
G75*
G02*
X0173130Y0256139I-000394J0000000D01*
G01*
X0172343Y0256139D01*
G75*
G02*
X0171949Y0256533I0000000J0000394D01*
G01*
X0171949Y0261553D01*
G75*
G02*
X0172343Y0261946I0000394J0000000D01*
G01*
G37*
G36*
G01*
X0169783Y0261946D02*
X0170571Y0261946D01*
G75*
G02*
X0170965Y0261553I0000000J-000394D01*
G01*
X0170965Y0256533D01*
G75*
G02*
X0170571Y0256139I-000394J0000000D01*
G01*
X0169783Y0256139D01*
G75*
G02*
X0169390Y0256533I0000000J0000394D01*
G01*
X0169390Y0261553D01*
G75*
G02*
X0169783Y0261946I0000394J0000000D01*
G01*
G37*
G36*
G01*
X0177654Y0302129D02*
X0181197Y0302129D01*
G75*
G02*
X0182181Y0301145I0000000J-000984D01*
G01*
X0182181Y0299078D01*
G75*
G02*
X0181197Y0298094I-000984J0000000D01*
G01*
X0177654Y0298094D01*
G75*
G02*
X0176669Y0299078I0000000J0000984D01*
G01*
X0176669Y0301145D01*
G75*
G02*
X0177654Y0302129I0000984J0000000D01*
G01*
G37*
G36*
G01*
X0177654Y0294944D02*
X0181197Y0294944D01*
G75*
G02*
X0182181Y0293960I0000000J-000984D01*
G01*
X0182181Y0291893D01*
G75*
G02*
X0181197Y0290909I-000984J0000000D01*
G01*
X0177654Y0290909D01*
G75*
G02*
X0176669Y0291893I0000000J0000984D01*
G01*
X0176669Y0293960D01*
G75*
G02*
X0177654Y0294944I0000984J0000000D01*
G01*
G37*
G36*
G01*
X0191378Y0255886D02*
X0189921Y0255886D01*
G75*
G02*
X0189390Y0256418I0000000J0000531D01*
G01*
X0189390Y0257481D01*
G75*
G02*
X0189921Y0258012I0000531J0000000D01*
G01*
X0191378Y0258012D01*
G75*
G02*
X0191909Y0257481I0000000J-000531D01*
G01*
X0191909Y0256418D01*
G75*
G02*
X0191378Y0255886I-000531J0000000D01*
G01*
G37*
G36*
G01*
X0191378Y0259902D02*
X0189921Y0259902D01*
G75*
G02*
X0189390Y0260433I0000000J0000531D01*
G01*
X0189390Y0261496D01*
G75*
G02*
X0189921Y0262028I0000531J0000000D01*
G01*
X0191378Y0262028D01*
G75*
G02*
X0191909Y0261496I0000000J-000531D01*
G01*
X0191909Y0260433D01*
G75*
G02*
X0191378Y0259902I-000531J0000000D01*
G01*
G37*
G36*
G01*
X0202303Y0296319D02*
X0200965Y0296319D01*
G75*
G02*
X0200413Y0296870I0000000J0000551D01*
G01*
X0200413Y0297973D01*
G75*
G02*
X0200965Y0298524I0000551J0000000D01*
G01*
X0202303Y0298524D01*
G75*
G02*
X0202854Y0297973I0000000J-000551D01*
G01*
X0202854Y0296870D01*
G75*
G02*
X0202303Y0296319I-000551J0000000D01*
G01*
G37*
G36*
G01*
X0202303Y0300099D02*
X0200965Y0300099D01*
G75*
G02*
X0200413Y0300650I0000000J0000551D01*
G01*
X0200413Y0301752D01*
G75*
G02*
X0200965Y0302303I0000551J0000000D01*
G01*
X0202303Y0302303D01*
G75*
G02*
X0202854Y0301752I0000000J-000551D01*
G01*
X0202854Y0300650D01*
G75*
G02*
X0202303Y0300099I-000551J0000000D01*
G01*
G37*
G36*
G01*
X0195118Y0248209D02*
X0193661Y0248209D01*
G75*
G02*
X0193130Y0248740I0000000J0000531D01*
G01*
X0193130Y0249803D01*
G75*
G02*
X0193661Y0250335I0000531J0000000D01*
G01*
X0195118Y0250335D01*
G75*
G02*
X0195650Y0249803I0000000J-000531D01*
G01*
X0195650Y0248740D01*
G75*
G02*
X0195118Y0248209I-000531J0000000D01*
G01*
G37*
G36*
G01*
X0195118Y0252225D02*
X0193661Y0252225D01*
G75*
G02*
X0193130Y0252756I0000000J0000531D01*
G01*
X0193130Y0253819D01*
G75*
G02*
X0193661Y0254351I0000531J0000000D01*
G01*
X0195118Y0254351D01*
G75*
G02*
X0195650Y0253819I0000000J-000531D01*
G01*
X0195650Y0252756D01*
G75*
G02*
X0195118Y0252225I-000531J0000000D01*
G01*
G37*
G36*
G01*
X0191378Y0264142D02*
X0189922Y0264142D01*
G75*
G02*
X0189390Y0264674I0000000J0000531D01*
G01*
X0189390Y0265737D01*
G75*
G02*
X0189922Y0266268I0000531J0000000D01*
G01*
X0191378Y0266268D01*
G75*
G02*
X0191910Y0265737I0000000J-000531D01*
G01*
X0191910Y0264674D01*
G75*
G02*
X0191378Y0264142I-000531J0000000D01*
G01*
G37*
G36*
G01*
X0191378Y0268158D02*
X0189922Y0268158D01*
G75*
G02*
X0189390Y0268690I0000000J0000531D01*
G01*
X0189390Y0269753D01*
G75*
G02*
X0189922Y0270284I0000531J0000000D01*
G01*
X0191378Y0270284D01*
G75*
G02*
X0191910Y0269753I0000000J-000531D01*
G01*
X0191910Y0268690D01*
G75*
G02*
X0191378Y0268158I-000531J0000000D01*
G01*
G37*
G36*
G01*
X0173622Y0290909D02*
X0170079Y0290909D01*
G75*
G02*
X0169094Y0291893I0000000J0000984D01*
G01*
X0169094Y0293960D01*
G75*
G02*
X0170079Y0294944I0000984J0000000D01*
G01*
X0173622Y0294944D01*
G75*
G02*
X0174606Y0293960I0000000J-000984D01*
G01*
X0174606Y0291893D01*
G75*
G02*
X0173622Y0290909I-000984J0000000D01*
G01*
G37*
G36*
G01*
X0173622Y0298094D02*
X0170079Y0298094D01*
G75*
G02*
X0169094Y0299078I0000000J0000984D01*
G01*
X0169094Y0301145D01*
G75*
G02*
X0170079Y0302129I0000984J0000000D01*
G01*
X0173622Y0302129D01*
G75*
G02*
X0174606Y0301145I0000000J-000984D01*
G01*
X0174606Y0299078D01*
G75*
G02*
X0173622Y0298094I-000984J0000000D01*
G01*
G37*
G36*
G01*
X0202520Y0264193D02*
X0201063Y0264193D01*
G75*
G02*
X0200531Y0264725I0000000J0000531D01*
G01*
X0200531Y0265788D01*
G75*
G02*
X0201063Y0266319I0000531J0000000D01*
G01*
X0202520Y0266319D01*
G75*
G02*
X0203051Y0265788I0000000J-000531D01*
G01*
X0203051Y0264725D01*
G75*
G02*
X0202520Y0264193I-000531J0000000D01*
G01*
G37*
G36*
G01*
X0202520Y0268209D02*
X0201063Y0268209D01*
G75*
G02*
X0200531Y0268740I0000000J0000531D01*
G01*
X0200531Y0269803D01*
G75*
G02*
X0201063Y0270335I0000531J0000000D01*
G01*
X0202520Y0270335D01*
G75*
G02*
X0203051Y0269803I0000000J-000531D01*
G01*
X0203051Y0268740D01*
G75*
G02*
X0202520Y0268209I-000531J0000000D01*
G01*
G37*
G36*
G01*
X0169016Y0254508D02*
X0170472Y0254508D01*
G75*
G02*
X0171004Y0253977I0000000J-000531D01*
G01*
X0171004Y0252914D01*
G75*
G02*
X0170472Y0252382I-000531J0000000D01*
G01*
X0169016Y0252382D01*
G75*
G02*
X0168484Y0252914I0000000J0000531D01*
G01*
X0168484Y0253977D01*
G75*
G02*
X0169016Y0254508I0000531J0000000D01*
G01*
G37*
G36*
G01*
X0169016Y0250492D02*
X0170472Y0250492D01*
G75*
G02*
X0171004Y0249961I0000000J-000531D01*
G01*
X0171004Y0248898D01*
G75*
G02*
X0170472Y0248366I-000531J0000000D01*
G01*
X0169016Y0248366D01*
G75*
G02*
X0168484Y0248898I0000000J0000531D01*
G01*
X0168484Y0249961D01*
G75*
G02*
X0169016Y0250492I0000531J0000000D01*
G01*
G37*
G36*
G01*
X0180965Y0254055D02*
X0182421Y0254055D01*
G75*
G02*
X0182953Y0253524I0000000J-000531D01*
G01*
X0182953Y0252461D01*
G75*
G02*
X0182421Y0251929I-000531J0000000D01*
G01*
X0180965Y0251929D01*
G75*
G02*
X0180433Y0252461I0000000J0000531D01*
G01*
X0180433Y0253524D01*
G75*
G02*
X0180965Y0254055I0000531J0000000D01*
G01*
G37*
G36*
G01*
X0180965Y0250040D02*
X0182421Y0250040D01*
G75*
G02*
X0182953Y0249508I0000000J-000531D01*
G01*
X0182953Y0248445D01*
G75*
G02*
X0182421Y0247914I-000531J0000000D01*
G01*
X0180965Y0247914D01*
G75*
G02*
X0180433Y0248445I0000000J0000531D01*
G01*
X0180433Y0249508D01*
G75*
G02*
X0180965Y0250040I0000531J0000000D01*
G01*
G37*
G36*
G01*
X0195118Y0255591D02*
X0193661Y0255591D01*
G75*
G02*
X0193130Y0256122I0000000J0000531D01*
G01*
X0193130Y0257185D01*
G75*
G02*
X0193661Y0257717I0000531J0000000D01*
G01*
X0195118Y0257717D01*
G75*
G02*
X0195650Y0257185I0000000J-000531D01*
G01*
X0195650Y0256122D01*
G75*
G02*
X0195118Y0255591I-000531J0000000D01*
G01*
G37*
G36*
G01*
X0195118Y0259607D02*
X0193661Y0259607D01*
G75*
G02*
X0193130Y0260138I0000000J0000531D01*
G01*
X0193130Y0261201D01*
G75*
G02*
X0193661Y0261733I0000531J0000000D01*
G01*
X0195118Y0261733D01*
G75*
G02*
X0195650Y0261201I0000000J-000531D01*
G01*
X0195650Y0260138D01*
G75*
G02*
X0195118Y0259607I-000531J0000000D01*
G01*
G37*
G36*
G01*
X0186201Y0247894D02*
X0184862Y0247894D01*
G75*
G02*
X0184311Y0248445I0000000J0000551D01*
G01*
X0184311Y0249548D01*
G75*
G02*
X0184862Y0250099I0000551J0000000D01*
G01*
X0186201Y0250099D01*
G75*
G02*
X0186752Y0249548I0000000J-000551D01*
G01*
X0186752Y0248445D01*
G75*
G02*
X0186201Y0247894I-000551J0000000D01*
G01*
G37*
G36*
G01*
X0186201Y0251674D02*
X0184862Y0251674D01*
G75*
G02*
X0184311Y0252225I0000000J0000551D01*
G01*
X0184311Y0253327D01*
G75*
G02*
X0184862Y0253878I0000551J0000000D01*
G01*
X0186201Y0253878D01*
G75*
G02*
X0186752Y0253327I0000000J-000551D01*
G01*
X0186752Y0252225D01*
G75*
G02*
X0186201Y0251674I-000551J0000000D01*
G01*
G37*
G36*
G01*
X0175986Y0287042D02*
X0175986Y0288380D01*
G75*
G02*
X0176537Y0288932I0000551J0000000D01*
G01*
X0177639Y0288932D01*
G75*
G02*
X0178191Y0288380I0000000J-000551D01*
G01*
X0178191Y0287042D01*
G75*
G02*
X0177639Y0286491I-000551J0000000D01*
G01*
X0176537Y0286491D01*
G75*
G02*
X0175986Y0287042I0000000J0000551D01*
G01*
G37*
G36*
G01*
X0179765Y0287042D02*
X0179765Y0288380D01*
G75*
G02*
X0180316Y0288932I0000551J0000000D01*
G01*
X0181419Y0288932D01*
G75*
G02*
X0181970Y0288380I0000000J-000551D01*
G01*
X0181970Y0287042D01*
G75*
G02*
X0181419Y0286491I-000551J0000000D01*
G01*
X0180316Y0286491D01*
G75*
G02*
X0179765Y0287042I0000000J0000551D01*
G01*
G37*
G36*
G01*
X0189921Y0254548D02*
X0191378Y0254548D01*
G75*
G02*
X0191909Y0254016I0000000J-000531D01*
G01*
X0191909Y0252953D01*
G75*
G02*
X0191378Y0252422I-000531J0000000D01*
G01*
X0189921Y0252422D01*
G75*
G02*
X0189390Y0252953I0000000J0000531D01*
G01*
X0189390Y0254016D01*
G75*
G02*
X0189921Y0254548I0000531J0000000D01*
G01*
G37*
G36*
G01*
X0189921Y0250532D02*
X0191378Y0250532D01*
G75*
G02*
X0191909Y0250000I0000000J-000531D01*
G01*
X0191909Y0248937D01*
G75*
G02*
X0191378Y0248406I-000531J0000000D01*
G01*
X0189921Y0248406D01*
G75*
G02*
X0189390Y0248937I0000000J0000531D01*
G01*
X0189390Y0250000D01*
G75*
G02*
X0189921Y0250532I0000531J0000000D01*
G01*
G37*
G36*
G01*
X0201280Y0271949D02*
X0200098Y0271949D01*
G75*
G02*
X0199508Y0272540I0000000J0000591D01*
G01*
X0199508Y0276575D01*
G75*
G02*
X0200098Y0277166I0000591J0000000D01*
G01*
X0201280Y0277166D01*
G75*
G02*
X0201870Y0276575I0000000J-000591D01*
G01*
X0201870Y0272540D01*
G75*
G02*
X0201280Y0271949I-000591J0000000D01*
G01*
G37*
G36*
G01*
X0197539Y0271949D02*
X0196358Y0271949D01*
G75*
G02*
X0195768Y0272540I0000000J0000591D01*
G01*
X0195768Y0276575D01*
G75*
G02*
X0196358Y0277166I0000591J0000000D01*
G01*
X0197539Y0277166D01*
G75*
G02*
X0198130Y0276575I0000000J-000591D01*
G01*
X0198130Y0272540D01*
G75*
G02*
X0197539Y0271949I-000591J0000000D01*
G01*
G37*
G36*
G01*
X0193799Y0271949D02*
X0192618Y0271949D01*
G75*
G02*
X0192028Y0272540I0000000J0000591D01*
G01*
X0192028Y0276575D01*
G75*
G02*
X0192618Y0277166I0000591J0000000D01*
G01*
X0193799Y0277166D01*
G75*
G02*
X0194390Y0276575I0000000J-000591D01*
G01*
X0194390Y0272540D01*
G75*
G02*
X0193799Y0271949I-000591J0000000D01*
G01*
G37*
G36*
G01*
X0193799Y0280906D02*
X0192618Y0280906D01*
G75*
G02*
X0192028Y0281496I0000000J0000591D01*
G01*
X0192028Y0285532D01*
G75*
G02*
X0192618Y0286122I0000591J0000000D01*
G01*
X0193799Y0286122D01*
G75*
G02*
X0194390Y0285532I0000000J-000591D01*
G01*
X0194390Y0281496D01*
G75*
G02*
X0193799Y0280906I-000591J0000000D01*
G01*
G37*
G36*
G01*
X0201280Y0280906D02*
X0200098Y0280906D01*
G75*
G02*
X0199508Y0281496I0000000J0000591D01*
G01*
X0199508Y0285532D01*
G75*
G02*
X0200098Y0286122I0000591J0000000D01*
G01*
X0201280Y0286122D01*
G75*
G02*
X0201870Y0285532I0000000J-000591D01*
G01*
X0201870Y0281496D01*
G75*
G02*
X0201280Y0280906I-000591J0000000D01*
G01*
G37*
G36*
G01*
X0197461Y0270256D02*
X0198799Y0270256D01*
G75*
G02*
X0199350Y0269705I0000000J-000551D01*
G01*
X0199350Y0268603D01*
G75*
G02*
X0198799Y0268051I-000551J0000000D01*
G01*
X0197461Y0268051D01*
G75*
G02*
X0196909Y0268603I0000000J0000551D01*
G01*
X0196909Y0269705D01*
G75*
G02*
X0197461Y0270256I0000551J0000000D01*
G01*
G37*
G36*
G01*
X0197461Y0266477D02*
X0198799Y0266477D01*
G75*
G02*
X0199350Y0265926I0000000J-000551D01*
G01*
X0199350Y0264823D01*
G75*
G02*
X0198799Y0264272I-000551J0000000D01*
G01*
X0197461Y0264272D01*
G75*
G02*
X0196909Y0264823I0000000J0000551D01*
G01*
X0196909Y0265926D01*
G75*
G02*
X0197461Y0266477I0000551J0000000D01*
G01*
G37*
X0122933Y0305020D02*
%LPD*%
G01*
X0391437Y0155906D02*
%LPD*%
G01*
G36*
G01*
X0384078Y0235611D02*
X0382720Y0235611D01*
G75*
G02*
X0382139Y0236191I0000000J0000581D01*
G01*
X0382139Y0237353D01*
G75*
G02*
X0382720Y0237934I0000581J0000000D01*
G01*
X0384078Y0237934D01*
G75*
G02*
X0384659Y0237353I0000000J-000581D01*
G01*
X0384659Y0236191D01*
G75*
G02*
X0384078Y0235611I-000581J0000000D01*
G01*
G37*
G36*
G01*
X0384078Y0239430D02*
X0382720Y0239430D01*
G75*
G02*
X0382139Y0240010I0000000J0000581D01*
G01*
X0382139Y0241172D01*
G75*
G02*
X0382720Y0241752I0000581J0000000D01*
G01*
X0384078Y0241752D01*
G75*
G02*
X0384659Y0241172I0000000J-000581D01*
G01*
X0384659Y0240010D01*
G75*
G02*
X0384078Y0239430I-000581J0000000D01*
G01*
G37*
G36*
G01*
X0368789Y0250079D02*
X0367431Y0250079D01*
G75*
G02*
X0366850Y0250660I0000000J0000581D01*
G01*
X0366850Y0251821D01*
G75*
G02*
X0367431Y0252402I0000581J0000000D01*
G01*
X0368789Y0252402D01*
G75*
G02*
X0369370Y0251821I0000000J-000581D01*
G01*
X0369370Y0250660D01*
G75*
G02*
X0368789Y0250079I-000581J0000000D01*
G01*
G37*
G36*
G01*
X0368789Y0253898D02*
X0367431Y0253898D01*
G75*
G02*
X0366850Y0254479I0000000J0000581D01*
G01*
X0366850Y0255640D01*
G75*
G02*
X0367431Y0256221I0000581J0000000D01*
G01*
X0368789Y0256221D01*
G75*
G02*
X0369370Y0255640I0000000J-000581D01*
G01*
X0369370Y0254479D01*
G75*
G02*
X0368789Y0253898I-000581J0000000D01*
G01*
G37*
G36*
G01*
X0342593Y0200197D02*
X0344611Y0200197D01*
G75*
G02*
X0345472Y0199336I0000000J-000861D01*
G01*
X0345472Y0197614D01*
G75*
G02*
X0344611Y0196752I-000861J0000000D01*
G01*
X0342593Y0196752D01*
G75*
G02*
X0341732Y0197614I0000000J0000861D01*
G01*
X0341732Y0199336D01*
G75*
G02*
X0342593Y0200197I0000861J0000000D01*
G01*
G37*
G36*
G01*
X0342593Y0193997D02*
X0344611Y0193997D01*
G75*
G02*
X0345472Y0193135I0000000J-000861D01*
G01*
X0345472Y0191413D01*
G75*
G02*
X0344611Y0190552I-000861J0000000D01*
G01*
X0342593Y0190552D01*
G75*
G02*
X0341732Y0191413I0000000J0000861D01*
G01*
X0341732Y0193135D01*
G75*
G02*
X0342593Y0193997I0000861J0000000D01*
G01*
G37*
G36*
G01*
X0386919Y0241752D02*
X0388278Y0241752D01*
G75*
G02*
X0388858Y0241172I0000000J-000581D01*
G01*
X0388858Y0240010D01*
G75*
G02*
X0388278Y0239430I-000581J0000000D01*
G01*
X0386919Y0239430D01*
G75*
G02*
X0386339Y0240010I0000000J0000581D01*
G01*
X0386339Y0241172D01*
G75*
G02*
X0386919Y0241752I0000581J0000000D01*
G01*
G37*
G36*
G01*
X0386919Y0237934D02*
X0388278Y0237934D01*
G75*
G02*
X0388858Y0237353I0000000J-000581D01*
G01*
X0388858Y0236191D01*
G75*
G02*
X0388278Y0235611I-000581J0000000D01*
G01*
X0386919Y0235611D01*
G75*
G02*
X0386339Y0236191I0000000J0000581D01*
G01*
X0386339Y0237353D01*
G75*
G02*
X0386919Y0237934I0000581J0000000D01*
G01*
G37*
G36*
G01*
X0347923Y0182051D02*
X0346565Y0182051D01*
G75*
G02*
X0345984Y0182631I0000000J0000581D01*
G01*
X0345984Y0183793D01*
G75*
G02*
X0346565Y0184373I0000581J0000000D01*
G01*
X0347923Y0184373D01*
G75*
G02*
X0348504Y0183793I0000000J-000581D01*
G01*
X0348504Y0182631D01*
G75*
G02*
X0347923Y0182051I-000581J0000000D01*
G01*
G37*
G36*
G01*
X0347923Y0185869D02*
X0346565Y0185869D01*
G75*
G02*
X0345984Y0186450I0000000J0000581D01*
G01*
X0345984Y0187612D01*
G75*
G02*
X0346565Y0188192I0000581J0000000D01*
G01*
X0347923Y0188192D01*
G75*
G02*
X0348504Y0187612I0000000J-000581D01*
G01*
X0348504Y0186450D01*
G75*
G02*
X0347923Y0185869I-000581J0000000D01*
G01*
G37*
G36*
G01*
X0349793Y0190138D02*
X0348435Y0190138D01*
G75*
G02*
X0347854Y0190719I0000000J0000581D01*
G01*
X0347854Y0191880D01*
G75*
G02*
X0348435Y0192461I0000581J0000000D01*
G01*
X0349793Y0192461D01*
G75*
G02*
X0350374Y0191880I0000000J-000581D01*
G01*
X0350374Y0190719D01*
G75*
G02*
X0349793Y0190138I-000581J0000000D01*
G01*
G37*
G36*
G01*
X0349793Y0193957D02*
X0348435Y0193957D01*
G75*
G02*
X0347854Y0194538I0000000J0000581D01*
G01*
X0347854Y0195699D01*
G75*
G02*
X0348435Y0196280I0000581J0000000D01*
G01*
X0349793Y0196280D01*
G75*
G02*
X0350374Y0195699I0000000J-000581D01*
G01*
X0350374Y0194538D01*
G75*
G02*
X0349793Y0193957I-000581J0000000D01*
G01*
G37*
G36*
G01*
X0342461Y0161526D02*
X0342461Y0162884D01*
G75*
G02*
X0343041Y0163465I0000581J0000000D01*
G01*
X0344203Y0163465D01*
G75*
G02*
X0344783Y0162884I0000000J-000581D01*
G01*
X0344783Y0161526D01*
G75*
G02*
X0344203Y0160945I-000581J0000000D01*
G01*
X0343041Y0160945D01*
G75*
G02*
X0342461Y0161526I0000000J0000581D01*
G01*
G37*
G36*
G01*
X0346280Y0161526D02*
X0346280Y0162884D01*
G75*
G02*
X0346860Y0163465I0000581J0000000D01*
G01*
X0348022Y0163465D01*
G75*
G02*
X0348602Y0162884I0000000J-000581D01*
G01*
X0348602Y0161526D01*
G75*
G02*
X0348022Y0160945I-000581J0000000D01*
G01*
X0346860Y0160945D01*
G75*
G02*
X0346280Y0161526I0000000J0000581D01*
G01*
G37*
G36*
G01*
X0360049Y0211044D02*
X0361407Y0211044D01*
G75*
G02*
X0361988Y0210463I0000000J-000581D01*
G01*
X0361988Y0209302D01*
G75*
G02*
X0361407Y0208721I-000581J0000000D01*
G01*
X0360049Y0208721D01*
G75*
G02*
X0359468Y0209302I0000000J0000581D01*
G01*
X0359468Y0210463D01*
G75*
G02*
X0360049Y0211044I0000581J0000000D01*
G01*
G37*
G36*
G01*
X0360049Y0207225D02*
X0361407Y0207225D01*
G75*
G02*
X0361988Y0206644I0000000J-000581D01*
G01*
X0361988Y0205483D01*
G75*
G02*
X0361407Y0204902I-000581J0000000D01*
G01*
X0360049Y0204902D01*
G75*
G02*
X0359468Y0205483I0000000J0000581D01*
G01*
X0359468Y0206644D01*
G75*
G02*
X0360049Y0207225I0000581J0000000D01*
G01*
G37*
G36*
G01*
X0365344Y0204902D02*
X0363986Y0204902D01*
G75*
G02*
X0363406Y0205483I0000000J0000581D01*
G01*
X0363406Y0206644D01*
G75*
G02*
X0363986Y0207225I0000581J0000000D01*
G01*
X0365344Y0207225D01*
G75*
G02*
X0365925Y0206644I0000000J-000581D01*
G01*
X0365925Y0205483D01*
G75*
G02*
X0365344Y0204902I-000581J0000000D01*
G01*
G37*
G36*
G01*
X0365344Y0208721D02*
X0363986Y0208721D01*
G75*
G02*
X0363406Y0209302I0000000J0000581D01*
G01*
X0363406Y0210463D01*
G75*
G02*
X0363986Y0211044I0000581J0000000D01*
G01*
X0365344Y0211044D01*
G75*
G02*
X0365925Y0210463I0000000J-000581D01*
G01*
X0365925Y0209302D01*
G75*
G02*
X0365344Y0208721I-000581J0000000D01*
G01*
G37*
G36*
G01*
X0362904Y0252382D02*
X0364262Y0252382D01*
G75*
G02*
X0364843Y0251802I0000000J-000581D01*
G01*
X0364843Y0250640D01*
G75*
G02*
X0364262Y0250060I-000581J0000000D01*
G01*
X0362904Y0250060D01*
G75*
G02*
X0362323Y0250640I0000000J0000581D01*
G01*
X0362323Y0251802D01*
G75*
G02*
X0362904Y0252382I0000581J0000000D01*
G01*
G37*
G36*
G01*
X0362904Y0248563D02*
X0364262Y0248563D01*
G75*
G02*
X0364843Y0247983I0000000J-000581D01*
G01*
X0364843Y0246821D01*
G75*
G02*
X0364262Y0246241I-000581J0000000D01*
G01*
X0362904Y0246241D01*
G75*
G02*
X0362323Y0246821I0000000J0000581D01*
G01*
X0362323Y0247983D01*
G75*
G02*
X0362904Y0248563I0000581J0000000D01*
G01*
G37*
D312*
X0386319Y0198032D03*
X0383760Y0198032D03*
X0381201Y0198032D03*
X0378642Y0198032D03*
X0376083Y0198032D03*
X0373524Y0198032D03*
X0370965Y0198032D03*
X0370965Y0221260D03*
X0373524Y0221260D03*
X0376083Y0221260D03*
X0378642Y0221260D03*
X0381201Y0221260D03*
X0383760Y0221260D03*
X0386319Y0221260D03*
G36*
G01*
X0342825Y0188209D02*
X0344183Y0188209D01*
G75*
G02*
X0344764Y0187628I0000000J-000581D01*
G01*
X0344764Y0186467D01*
G75*
G02*
X0344183Y0185886I-000581J0000000D01*
G01*
X0342825Y0185886D01*
G75*
G02*
X0342244Y0186467I0000000J0000581D01*
G01*
X0342244Y0187628D01*
G75*
G02*
X0342825Y0188209I0000581J0000000D01*
G01*
G37*
G36*
G01*
X0342825Y0184390D02*
X0344183Y0184390D01*
G75*
G02*
X0344764Y0183810I0000000J-000581D01*
G01*
X0344764Y0182648D01*
G75*
G02*
X0344183Y0182067I-000581J0000000D01*
G01*
X0342825Y0182067D01*
G75*
G02*
X0342244Y0182648I0000000J0000581D01*
G01*
X0342244Y0183810D01*
G75*
G02*
X0342825Y0184390I0000581J0000000D01*
G01*
G37*
G36*
G01*
X0340443Y0182067D02*
X0339085Y0182067D01*
G75*
G02*
X0338504Y0182648I0000000J0000581D01*
G01*
X0338504Y0183810D01*
G75*
G02*
X0339085Y0184390I0000581J0000000D01*
G01*
X0340443Y0184390D01*
G75*
G02*
X0341024Y0183810I0000000J-000581D01*
G01*
X0341024Y0182648D01*
G75*
G02*
X0340443Y0182067I-000581J0000000D01*
G01*
G37*
G36*
G01*
X0340443Y0185886D02*
X0339085Y0185886D01*
G75*
G02*
X0338504Y0186467I0000000J0000581D01*
G01*
X0338504Y0187628D01*
G75*
G02*
X0339085Y0188209I0000581J0000000D01*
G01*
X0340443Y0188209D01*
G75*
G02*
X0341024Y0187628I0000000J-000581D01*
G01*
X0341024Y0186467D01*
G75*
G02*
X0340443Y0185886I-000581J0000000D01*
G01*
G37*
G36*
G01*
X0349892Y0242304D02*
X0348533Y0242304D01*
G75*
G02*
X0347953Y0242884I0000000J0000581D01*
G01*
X0347953Y0244046D01*
G75*
G02*
X0348533Y0244626I0000581J0000000D01*
G01*
X0349892Y0244626D01*
G75*
G02*
X0350472Y0244046I0000000J-000581D01*
G01*
X0350472Y0242884D01*
G75*
G02*
X0349892Y0242304I-000581J0000000D01*
G01*
G37*
G36*
G01*
X0349892Y0246123D02*
X0348533Y0246123D01*
G75*
G02*
X0347953Y0246703I0000000J0000581D01*
G01*
X0347953Y0247865D01*
G75*
G02*
X0348533Y0248445I0000581J0000000D01*
G01*
X0349892Y0248445D01*
G75*
G02*
X0350472Y0247865I0000000J-000581D01*
G01*
X0350472Y0246703D01*
G75*
G02*
X0349892Y0246123I-000581J0000000D01*
G01*
G37*
G36*
G01*
X0379190Y0235611D02*
X0377831Y0235611D01*
G75*
G02*
X0377251Y0236191I0000000J0000581D01*
G01*
X0377251Y0237353D01*
G75*
G02*
X0377831Y0237934I0000581J0000000D01*
G01*
X0379190Y0237934D01*
G75*
G02*
X0379770Y0237353I0000000J-000581D01*
G01*
X0379770Y0236191D01*
G75*
G02*
X0379190Y0235611I-000581J0000000D01*
G01*
G37*
G36*
G01*
X0379190Y0239430D02*
X0377831Y0239430D01*
G75*
G02*
X0377251Y0240010I0000000J0000581D01*
G01*
X0377251Y0241172D01*
G75*
G02*
X0377831Y0241752I0000581J0000000D01*
G01*
X0379190Y0241752D01*
G75*
G02*
X0379770Y0241172I0000000J-000581D01*
G01*
X0379770Y0240010D01*
G75*
G02*
X0379190Y0239430I-000581J0000000D01*
G01*
G37*
G36*
G01*
X0356112Y0207796D02*
X0357470Y0207796D01*
G75*
G02*
X0358051Y0207215I0000000J-000581D01*
G01*
X0358051Y0206054D01*
G75*
G02*
X0357470Y0205473I-000581J0000000D01*
G01*
X0356112Y0205473D01*
G75*
G02*
X0355531Y0206054I0000000J0000581D01*
G01*
X0355531Y0207215D01*
G75*
G02*
X0356112Y0207796I0000581J0000000D01*
G01*
G37*
G36*
G01*
X0356112Y0203977D02*
X0357470Y0203977D01*
G75*
G02*
X0358051Y0203396I0000000J-000581D01*
G01*
X0358051Y0202235D01*
G75*
G02*
X0357470Y0201654I-000581J0000000D01*
G01*
X0356112Y0201654D01*
G75*
G02*
X0355531Y0202235I0000000J0000581D01*
G01*
X0355531Y0203396D01*
G75*
G02*
X0356112Y0203977I0000581J0000000D01*
G01*
G37*
G36*
G01*
X0348533Y0256123D02*
X0349892Y0256123D01*
G75*
G02*
X0350472Y0255542I0000000J-000581D01*
G01*
X0350472Y0254380D01*
G75*
G02*
X0349892Y0253800I-000581J0000000D01*
G01*
X0348533Y0253800D01*
G75*
G02*
X0347953Y0254380I0000000J0000581D01*
G01*
X0347953Y0255542D01*
G75*
G02*
X0348533Y0256123I0000581J0000000D01*
G01*
G37*
G36*
G01*
X0348533Y0252304D02*
X0349892Y0252304D01*
G75*
G02*
X0350472Y0251723I0000000J-000581D01*
G01*
X0350472Y0250562D01*
G75*
G02*
X0349892Y0249981I-000581J0000000D01*
G01*
X0348533Y0249981D01*
G75*
G02*
X0347953Y0250562I0000000J0000581D01*
G01*
X0347953Y0251723D01*
G75*
G02*
X0348533Y0252304I0000581J0000000D01*
G01*
G37*
G36*
G01*
X0363986Y0203662D02*
X0365344Y0203662D01*
G75*
G02*
X0365925Y0203081I0000000J-000581D01*
G01*
X0365925Y0201920D01*
G75*
G02*
X0365344Y0201339I-000581J0000000D01*
G01*
X0363986Y0201339D01*
G75*
G02*
X0363406Y0201920I0000000J0000581D01*
G01*
X0363406Y0203081D01*
G75*
G02*
X0363986Y0203662I0000581J0000000D01*
G01*
G37*
G36*
G01*
X0363986Y0199843D02*
X0365344Y0199843D01*
G75*
G02*
X0365925Y0199262I0000000J-000581D01*
G01*
X0365925Y0198101D01*
G75*
G02*
X0365344Y0197520I-000581J0000000D01*
G01*
X0363986Y0197520D01*
G75*
G02*
X0363406Y0198101I0000000J0000581D01*
G01*
X0363406Y0199262D01*
G75*
G02*
X0363986Y0199843I0000581J0000000D01*
G01*
G37*
G36*
G01*
X0388602Y0192412D02*
X0388602Y0191054D01*
G75*
G02*
X0388022Y0190473I-000581J0000000D01*
G01*
X0386860Y0190473D01*
G75*
G02*
X0386280Y0191054I0000000J0000581D01*
G01*
X0386280Y0192412D01*
G75*
G02*
X0386860Y0192993I0000581J0000000D01*
G01*
X0388022Y0192993D01*
G75*
G02*
X0388602Y0192412I0000000J-000581D01*
G01*
G37*
G36*
G01*
X0384783Y0192412D02*
X0384783Y0191054D01*
G75*
G02*
X0384203Y0190473I-000581J0000000D01*
G01*
X0383041Y0190473D01*
G75*
G02*
X0382461Y0191054I0000000J0000581D01*
G01*
X0382461Y0192412D01*
G75*
G02*
X0383041Y0192993I0000581J0000000D01*
G01*
X0384203Y0192993D01*
G75*
G02*
X0384783Y0192412I0000000J-000581D01*
G01*
G37*
G36*
G01*
X0360049Y0218524D02*
X0361407Y0218524D01*
G75*
G02*
X0361988Y0217943I0000000J-000581D01*
G01*
X0361988Y0216782D01*
G75*
G02*
X0361407Y0216201I-000581J0000000D01*
G01*
X0360049Y0216201D01*
G75*
G02*
X0359468Y0216782I0000000J0000581D01*
G01*
X0359468Y0217943D01*
G75*
G02*
X0360049Y0218524I0000581J0000000D01*
G01*
G37*
G36*
G01*
X0360049Y0214705D02*
X0361407Y0214705D01*
G75*
G02*
X0361988Y0214125I0000000J-000581D01*
G01*
X0361988Y0212963D01*
G75*
G02*
X0361407Y0212382I-000581J0000000D01*
G01*
X0360049Y0212382D01*
G75*
G02*
X0359468Y0212963I0000000J0000581D01*
G01*
X0359468Y0214125D01*
G75*
G02*
X0360049Y0214705I0000581J0000000D01*
G01*
G37*
G36*
G01*
X0361407Y0219863D02*
X0360049Y0219863D01*
G75*
G02*
X0359468Y0220443I0000000J0000581D01*
G01*
X0359468Y0221605D01*
G75*
G02*
X0360049Y0222186I0000581J0000000D01*
G01*
X0361407Y0222186D01*
G75*
G02*
X0361988Y0221605I0000000J-000581D01*
G01*
X0361988Y0220443D01*
G75*
G02*
X0361407Y0219863I-000581J0000000D01*
G01*
G37*
G36*
G01*
X0361407Y0223682D02*
X0360049Y0223682D01*
G75*
G02*
X0359468Y0224262I0000000J0000581D01*
G01*
X0359468Y0225424D01*
G75*
G02*
X0360049Y0226004I0000581J0000000D01*
G01*
X0361407Y0226004D01*
G75*
G02*
X0361988Y0225424I0000000J-000581D01*
G01*
X0361988Y0224262D01*
G75*
G02*
X0361407Y0223682I-000581J0000000D01*
G01*
G37*
G36*
G01*
X0388602Y0188672D02*
X0388602Y0187313D01*
G75*
G02*
X0388022Y0186733I-000581J0000000D01*
G01*
X0386860Y0186733D01*
G75*
G02*
X0386280Y0187313I0000000J0000581D01*
G01*
X0386280Y0188672D01*
G75*
G02*
X0386860Y0189252I0000581J0000000D01*
G01*
X0388022Y0189252D01*
G75*
G02*
X0388602Y0188672I0000000J-000581D01*
G01*
G37*
G36*
G01*
X0384783Y0188672D02*
X0384783Y0187313D01*
G75*
G02*
X0384203Y0186733I-000581J0000000D01*
G01*
X0383041Y0186733D01*
G75*
G02*
X0382461Y0187313I0000000J0000581D01*
G01*
X0382461Y0188672D01*
G75*
G02*
X0383041Y0189252I0000581J0000000D01*
G01*
X0384203Y0189252D01*
G75*
G02*
X0384783Y0188672I0000000J-000581D01*
G01*
G37*
D313*
X0339764Y0177993D03*
X0343504Y0177993D03*
X0347244Y0177993D03*
X0347244Y0167678D03*
X0339764Y0167678D03*
G36*
G01*
X0357470Y0212481D02*
X0356112Y0212481D01*
G75*
G02*
X0355531Y0213062I0000000J0000581D01*
G01*
X0355531Y0214223D01*
G75*
G02*
X0356112Y0214804I0000581J0000000D01*
G01*
X0357470Y0214804D01*
G75*
G02*
X0358051Y0214223I0000000J-000581D01*
G01*
X0358051Y0213062D01*
G75*
G02*
X0357470Y0212481I-000581J0000000D01*
G01*
G37*
G36*
G01*
X0357470Y0216300D02*
X0356112Y0216300D01*
G75*
G02*
X0355531Y0216880I0000000J0000581D01*
G01*
X0355531Y0218042D01*
G75*
G02*
X0356112Y0218623I0000581J0000000D01*
G01*
X0357470Y0218623D01*
G75*
G02*
X0358051Y0218042I0000000J-000581D01*
G01*
X0358051Y0216880D01*
G75*
G02*
X0357470Y0216300I-000581J0000000D01*
G01*
G37*
G36*
G01*
X0353366Y0199892D02*
X0353366Y0198534D01*
G75*
G02*
X0352785Y0197953I-000581J0000000D01*
G01*
X0351624Y0197953D01*
G75*
G02*
X0351043Y0198534I0000000J0000581D01*
G01*
X0351043Y0199892D01*
G75*
G02*
X0351624Y0200473I0000581J0000000D01*
G01*
X0352785Y0200473D01*
G75*
G02*
X0353366Y0199892I0000000J-000581D01*
G01*
G37*
G36*
G01*
X0349547Y0199892D02*
X0349547Y0198534D01*
G75*
G02*
X0348967Y0197953I-000581J0000000D01*
G01*
X0347805Y0197953D01*
G75*
G02*
X0347224Y0198534I0000000J0000581D01*
G01*
X0347224Y0199892D01*
G75*
G02*
X0347805Y0200473I0000581J0000000D01*
G01*
X0348967Y0200473D01*
G75*
G02*
X0349547Y0199892I0000000J-000581D01*
G01*
G37*
G36*
G01*
X0373799Y0191054D02*
X0373799Y0192412D01*
G75*
G02*
X0374380Y0192993I0000581J0000000D01*
G01*
X0375541Y0192993D01*
G75*
G02*
X0376122Y0192412I0000000J-000581D01*
G01*
X0376122Y0191054D01*
G75*
G02*
X0375541Y0190473I-000581J0000000D01*
G01*
X0374380Y0190473D01*
G75*
G02*
X0373799Y0191054I0000000J0000581D01*
G01*
G37*
G36*
G01*
X0377618Y0191054D02*
X0377618Y0192412D01*
G75*
G02*
X0378199Y0192993I0000581J0000000D01*
G01*
X0379360Y0192993D01*
G75*
G02*
X0379941Y0192412I0000000J-000581D01*
G01*
X0379941Y0191054D01*
G75*
G02*
X0379360Y0190473I-000581J0000000D01*
G01*
X0378199Y0190473D01*
G75*
G02*
X0377618Y0191054I0000000J0000581D01*
G01*
G37*
G36*
G01*
X0372844Y0234174D02*
X0374203Y0234174D01*
G75*
G02*
X0374783Y0233593I0000000J-000581D01*
G01*
X0374783Y0232432D01*
G75*
G02*
X0374203Y0231851I-000581J0000000D01*
G01*
X0372844Y0231851D01*
G75*
G02*
X0372264Y0232432I0000000J0000581D01*
G01*
X0372264Y0233593D01*
G75*
G02*
X0372844Y0234174I0000581J0000000D01*
G01*
G37*
G36*
G01*
X0372844Y0230355D02*
X0374203Y0230355D01*
G75*
G02*
X0374783Y0229774I0000000J-000581D01*
G01*
X0374783Y0228613D01*
G75*
G02*
X0374203Y0228032I-000581J0000000D01*
G01*
X0372844Y0228032D01*
G75*
G02*
X0372264Y0228613I0000000J0000581D01*
G01*
X0372264Y0229774D01*
G75*
G02*
X0372844Y0230355I0000581J0000000D01*
G01*
G37*
G36*
G01*
X0372844Y0241752D02*
X0374203Y0241752D01*
G75*
G02*
X0374783Y0241172I0000000J-000581D01*
G01*
X0374783Y0240010D01*
G75*
G02*
X0374203Y0239430I-000581J0000000D01*
G01*
X0372844Y0239430D01*
G75*
G02*
X0372264Y0240010I0000000J0000581D01*
G01*
X0372264Y0241172D01*
G75*
G02*
X0372844Y0241752I0000581J0000000D01*
G01*
G37*
G36*
G01*
X0372844Y0237934D02*
X0374203Y0237934D01*
G75*
G02*
X0374783Y0237353I0000000J-000581D01*
G01*
X0374783Y0236191D01*
G75*
G02*
X0374203Y0235611I-000581J0000000D01*
G01*
X0372844Y0235611D01*
G75*
G02*
X0372264Y0236191I0000000J0000581D01*
G01*
X0372264Y0237353D01*
G75*
G02*
X0372844Y0237934I0000581J0000000D01*
G01*
G37*
G36*
G01*
X0373799Y0187313D02*
X0373799Y0188672D01*
G75*
G02*
X0374380Y0189252I0000581J0000000D01*
G01*
X0375541Y0189252D01*
G75*
G02*
X0376122Y0188672I0000000J-000581D01*
G01*
X0376122Y0187313D01*
G75*
G02*
X0375541Y0186733I-000581J0000000D01*
G01*
X0374380Y0186733D01*
G75*
G02*
X0373799Y0187313I0000000J0000581D01*
G01*
G37*
G36*
G01*
X0377618Y0187313D02*
X0377618Y0188672D01*
G75*
G02*
X0378199Y0189252I0000581J0000000D01*
G01*
X0379360Y0189252D01*
G75*
G02*
X0379941Y0188672I0000000J-000581D01*
G01*
X0379941Y0187313D01*
G75*
G02*
X0379360Y0186733I-000581J0000000D01*
G01*
X0378199Y0186733D01*
G75*
G02*
X0377618Y0187313I0000000J0000581D01*
G01*
G37*
G36*
G01*
X0363986Y0221674D02*
X0365344Y0221674D01*
G75*
G02*
X0365925Y0221093I0000000J-000581D01*
G01*
X0365925Y0219932D01*
G75*
G02*
X0365344Y0219351I-000581J0000000D01*
G01*
X0363986Y0219351D01*
G75*
G02*
X0363406Y0219932I0000000J0000581D01*
G01*
X0363406Y0221093D01*
G75*
G02*
X0363986Y0221674I0000581J0000000D01*
G01*
G37*
G36*
G01*
X0363986Y0217855D02*
X0365344Y0217855D01*
G75*
G02*
X0365925Y0217274I0000000J-000581D01*
G01*
X0365925Y0216113D01*
G75*
G02*
X0365344Y0215532I-000581J0000000D01*
G01*
X0363986Y0215532D01*
G75*
G02*
X0363406Y0216113I0000000J0000581D01*
G01*
X0363406Y0217274D01*
G75*
G02*
X0363986Y0217855I0000581J0000000D01*
G01*
G37*
G36*
G01*
X0373799Y0183573D02*
X0373799Y0184932D01*
G75*
G02*
X0374380Y0185512I0000581J0000000D01*
G01*
X0375541Y0185512D01*
G75*
G02*
X0376122Y0184932I0000000J-000581D01*
G01*
X0376122Y0183573D01*
G75*
G02*
X0375541Y0182993I-000581J0000000D01*
G01*
X0374380Y0182993D01*
G75*
G02*
X0373799Y0183573I0000000J0000581D01*
G01*
G37*
G36*
G01*
X0377618Y0183573D02*
X0377618Y0184932D01*
G75*
G02*
X0378199Y0185512I0000581J0000000D01*
G01*
X0379360Y0185512D01*
G75*
G02*
X0379941Y0184932I0000000J-000581D01*
G01*
X0379941Y0183573D01*
G75*
G02*
X0379360Y0182993I-000581J0000000D01*
G01*
X0378199Y0182993D01*
G75*
G02*
X0377618Y0183573I0000000J0000581D01*
G01*
G37*
G36*
G01*
X0382461Y0183573D02*
X0382461Y0184932D01*
G75*
G02*
X0383041Y0185512I0000581J0000000D01*
G01*
X0384203Y0185512D01*
G75*
G02*
X0384783Y0184932I0000000J-000581D01*
G01*
X0384783Y0183573D01*
G75*
G02*
X0384203Y0182993I-000581J0000000D01*
G01*
X0383041Y0182993D01*
G75*
G02*
X0382461Y0183573I0000000J0000581D01*
G01*
G37*
G36*
G01*
X0386280Y0183573D02*
X0386280Y0184932D01*
G75*
G02*
X0386860Y0185512I0000581J0000000D01*
G01*
X0388022Y0185512D01*
G75*
G02*
X0388602Y0184932I0000000J-000581D01*
G01*
X0388602Y0183573D01*
G75*
G02*
X0388022Y0182993I-000581J0000000D01*
G01*
X0386860Y0182993D01*
G75*
G02*
X0386280Y0183573I0000000J0000581D01*
G01*
G37*
G36*
G01*
X0376654Y0168760D02*
X0375315Y0168760D01*
G75*
G02*
X0374764Y0169311I0000000J0000551D01*
G01*
X0374764Y0170414D01*
G75*
G02*
X0375315Y0170965I0000551J0000000D01*
G01*
X0376654Y0170965D01*
G75*
G02*
X0377205Y0170414I0000000J-000551D01*
G01*
X0377205Y0169311D01*
G75*
G02*
X0376654Y0168760I-000551J0000000D01*
G01*
G37*
G36*
G01*
X0376654Y0172540D02*
X0375315Y0172540D01*
G75*
G02*
X0374764Y0173091I0000000J0000551D01*
G01*
X0374764Y0174193D01*
G75*
G02*
X0375315Y0174744I0000551J0000000D01*
G01*
X0376654Y0174744D01*
G75*
G02*
X0377205Y0174193I0000000J-000551D01*
G01*
X0377205Y0173091D01*
G75*
G02*
X0376654Y0172540I-000551J0000000D01*
G01*
G37*
G36*
G01*
X0350394Y0223701D02*
X0351850Y0223701D01*
G75*
G02*
X0352382Y0223170I0000000J-000531D01*
G01*
X0352382Y0222107D01*
G75*
G02*
X0351850Y0221575I-000531J0000000D01*
G01*
X0350394Y0221575D01*
G75*
G02*
X0349862Y0222107I0000000J0000531D01*
G01*
X0349862Y0223170D01*
G75*
G02*
X0350394Y0223701I0000531J0000000D01*
G01*
G37*
G36*
G01*
X0350394Y0219686D02*
X0351850Y0219686D01*
G75*
G02*
X0352382Y0219154I0000000J-000531D01*
G01*
X0352382Y0218091D01*
G75*
G02*
X0351850Y0217560I-000531J0000000D01*
G01*
X0350394Y0217560D01*
G75*
G02*
X0349862Y0218091I0000000J0000531D01*
G01*
X0349862Y0219154D01*
G75*
G02*
X0350394Y0219686I0000531J0000000D01*
G01*
G37*
G36*
G01*
X0364927Y0162973D02*
X0364927Y0161516D01*
G75*
G02*
X0364395Y0160985I-000531J0000000D01*
G01*
X0363332Y0160985D01*
G75*
G02*
X0362801Y0161516I0000000J0000531D01*
G01*
X0362801Y0162973D01*
G75*
G02*
X0363332Y0163504I0000531J0000000D01*
G01*
X0364395Y0163504D01*
G75*
G02*
X0364927Y0162973I0000000J-000531D01*
G01*
G37*
G36*
G01*
X0360911Y0162973D02*
X0360911Y0161516D01*
G75*
G02*
X0360379Y0160985I-000531J0000000D01*
G01*
X0359316Y0160985D01*
G75*
G02*
X0358785Y0161516I0000000J0000531D01*
G01*
X0358785Y0162973D01*
G75*
G02*
X0359316Y0163504I0000531J0000000D01*
G01*
X0360379Y0163504D01*
G75*
G02*
X0360911Y0162973I0000000J-000531D01*
G01*
G37*
G36*
G01*
X0388878Y0163583D02*
X0387697Y0163583D01*
G75*
G02*
X0387106Y0164174I0000000J0000591D01*
G01*
X0387106Y0168800D01*
G75*
G02*
X0387697Y0169390I0000591J0000000D01*
G01*
X0388878Y0169390D01*
G75*
G02*
X0389468Y0168800I0000000J-000591D01*
G01*
X0389468Y0164174D01*
G75*
G02*
X0388878Y0163583I-000591J0000000D01*
G01*
G37*
G36*
G01*
X0381398Y0163583D02*
X0380217Y0163583D01*
G75*
G02*
X0379626Y0164174I0000000J0000591D01*
G01*
X0379626Y0168800D01*
G75*
G02*
X0380217Y0169390I0000591J0000000D01*
G01*
X0381398Y0169390D01*
G75*
G02*
X0381988Y0168800I0000000J-000591D01*
G01*
X0381988Y0164174D01*
G75*
G02*
X0381398Y0163583I-000591J0000000D01*
G01*
G37*
G36*
G01*
X0385138Y0170965D02*
X0383957Y0170965D01*
G75*
G02*
X0383366Y0171556I0000000J0000591D01*
G01*
X0383366Y0176182D01*
G75*
G02*
X0383957Y0176772I0000591J0000000D01*
G01*
X0385138Y0176772D01*
G75*
G02*
X0385728Y0176182I0000000J-000591D01*
G01*
X0385728Y0171556D01*
G75*
G02*
X0385138Y0170965I-000591J0000000D01*
G01*
G37*
G36*
G01*
X0350946Y0161536D02*
X0350946Y0162875D01*
G75*
G02*
X0351498Y0163426I0000551J0000000D01*
G01*
X0352600Y0163426D01*
G75*
G02*
X0353151Y0162875I0000000J-000551D01*
G01*
X0353151Y0161536D01*
G75*
G02*
X0352600Y0160985I-000551J0000000D01*
G01*
X0351498Y0160985D01*
G75*
G02*
X0350946Y0161536I0000000J0000551D01*
G01*
G37*
G36*
G01*
X0354726Y0161536D02*
X0354726Y0162875D01*
G75*
G02*
X0355277Y0163426I0000551J0000000D01*
G01*
X0356379Y0163426D01*
G75*
G02*
X0356931Y0162875I0000000J-000551D01*
G01*
X0356931Y0161536D01*
G75*
G02*
X0356379Y0160985I-000551J0000000D01*
G01*
X0355277Y0160985D01*
G75*
G02*
X0354726Y0161536I0000000J0000551D01*
G01*
G37*
G36*
G01*
X0354017Y0192323D02*
X0355198Y0192323D01*
G75*
G02*
X0355789Y0191733I0000000J-000591D01*
G01*
X0355789Y0186024D01*
G75*
G02*
X0355198Y0185434I-000591J0000000D01*
G01*
X0354017Y0185434D01*
G75*
G02*
X0353427Y0186024I0000000J0000591D01*
G01*
X0353427Y0191733D01*
G75*
G02*
X0354017Y0192323I0000591J0000000D01*
G01*
G37*
G36*
G01*
X0359017Y0192323D02*
X0360198Y0192323D01*
G75*
G02*
X0360789Y0191733I0000000J-000591D01*
G01*
X0360789Y0186024D01*
G75*
G02*
X0360198Y0185434I-000591J0000000D01*
G01*
X0359017Y0185434D01*
G75*
G02*
X0358427Y0186024I0000000J0000591D01*
G01*
X0358427Y0191733D01*
G75*
G02*
X0359017Y0192323I0000591J0000000D01*
G01*
G37*
G36*
G01*
X0364017Y0192323D02*
X0365198Y0192323D01*
G75*
G02*
X0365789Y0191733I0000000J-000591D01*
G01*
X0365789Y0186024D01*
G75*
G02*
X0365198Y0185434I-000591J0000000D01*
G01*
X0364017Y0185434D01*
G75*
G02*
X0363427Y0186024I0000000J0000591D01*
G01*
X0363427Y0191733D01*
G75*
G02*
X0364017Y0192323I0000591J0000000D01*
G01*
G37*
G36*
G01*
X0369017Y0192323D02*
X0370198Y0192323D01*
G75*
G02*
X0370789Y0191733I0000000J-000591D01*
G01*
X0370789Y0186024D01*
G75*
G02*
X0370198Y0185434I-000591J0000000D01*
G01*
X0369017Y0185434D01*
G75*
G02*
X0368427Y0186024I0000000J0000591D01*
G01*
X0368427Y0191733D01*
G75*
G02*
X0369017Y0192323I0000591J0000000D01*
G01*
G37*
G36*
G01*
X0369017Y0172048D02*
X0370198Y0172048D01*
G75*
G02*
X0370789Y0171457I0000000J-000591D01*
G01*
X0370789Y0165749D01*
G75*
G02*
X0370198Y0165158I-000591J0000000D01*
G01*
X0369017Y0165158D01*
G75*
G02*
X0368427Y0165749I0000000J0000591D01*
G01*
X0368427Y0171457D01*
G75*
G02*
X0369017Y0172048I0000591J0000000D01*
G01*
G37*
G36*
G01*
X0364017Y0172048D02*
X0365198Y0172048D01*
G75*
G02*
X0365789Y0171457I0000000J-000591D01*
G01*
X0365789Y0165749D01*
G75*
G02*
X0365198Y0165158I-000591J0000000D01*
G01*
X0364017Y0165158D01*
G75*
G02*
X0363427Y0165749I0000000J0000591D01*
G01*
X0363427Y0171457D01*
G75*
G02*
X0364017Y0172048I0000591J0000000D01*
G01*
G37*
G36*
G01*
X0359017Y0172048D02*
X0360198Y0172048D01*
G75*
G02*
X0360789Y0171457I0000000J-000591D01*
G01*
X0360789Y0165749D01*
G75*
G02*
X0360198Y0165158I-000591J0000000D01*
G01*
X0359017Y0165158D01*
G75*
G02*
X0358427Y0165749I0000000J0000591D01*
G01*
X0358427Y0171457D01*
G75*
G02*
X0359017Y0172048I0000591J0000000D01*
G01*
G37*
G36*
G01*
X0354017Y0172048D02*
X0355198Y0172048D01*
G75*
G02*
X0355789Y0171457I0000000J-000591D01*
G01*
X0355789Y0165749D01*
G75*
G02*
X0355198Y0165158I-000591J0000000D01*
G01*
X0354017Y0165158D01*
G75*
G02*
X0353427Y0165749I0000000J0000591D01*
G01*
X0353427Y0171457D01*
G75*
G02*
X0354017Y0172048I0000591J0000000D01*
G01*
G37*
X0312992Y0189764D02*
G01*
G75*
D65*
X0259645Y0048425D02*
D03*
D64*
X0273425Y0048425D02*
D03*
D67*
X0179527Y0154528D02*
D03*
D62*
X0221260Y0048425D02*
D03*
X0305512Y0189370D02*
D03*
D63*
X0191732Y0189370D02*
D03*
X0297244Y0048425D02*
D03*
D60*
X0312598Y0153740D02*
D03*
D61*
X0312598Y0185236D02*
D03*
D59*
X0312598Y0100000D02*
D03*
D68*
X0179527Y0177362D02*
D03*
D66*
X0179527Y0061811D02*
D03*
D57*
X0312598Y0082481D02*
D03*
X0312598Y0058465D02*
D03*
D58*
X0312598Y0070473D02*
D03*
X0179527Y0096063D02*
D03*
D392*
X0261023Y0104725D02*
D03*
X0261023Y0130020D02*
D03*
X0261023Y0114764D02*
D03*
X0261023Y0119980D02*
D03*
X0268110Y0089469D02*
D03*
X0261023Y0089469D02*
D03*
X0261023Y0099508D02*
D03*
X0268110Y0099508D02*
D03*
X0268110Y0130020D02*
D03*
X0268110Y0119980D02*
D03*
X0268110Y0114764D02*
D03*
X0268110Y0104725D02*
D03*
D393*
X0261023Y0108170D02*
D03*
X0261023Y0123425D02*
D03*
X0261023Y0111319D02*
D03*
X0261023Y0126575D02*
D03*
X0261023Y0096063D02*
D03*
X0261023Y0092914D02*
D03*
X0268110Y0092914D02*
D03*
X0268110Y0096063D02*
D03*
X0268110Y0123425D02*
D03*
X0268110Y0126575D02*
D03*
X0268110Y0108170D02*
D03*
X0268110Y0111319D02*
D03*
D396*
X0259055Y0051575D02*
D03*
X0262992Y0051575D02*
D03*
X0264567Y0055118D02*
D03*
X0268504Y0055118D02*
D03*
X0256693Y0072441D02*
D03*
X0260630Y0072441D02*
D03*
X0228040Y0130143D02*
D03*
X0231977Y0130143D02*
D03*
X0236236Y0130143D02*
D03*
X0240173Y0130143D02*
D03*
X0279558Y0097676D02*
D03*
X0283495Y0097676D02*
D03*
X0279558Y0101399D02*
D03*
X0283495Y0101399D02*
D03*
X0281974Y0064567D02*
D03*
X0278037Y0064567D02*
D03*
X0193340Y0053634D02*
D03*
X0229088Y0053873D02*
D03*
X0214173Y0130143D02*
D03*
X0246457Y0075985D02*
D03*
X0246457Y0080315D02*
D03*
X0249887Y0084534D02*
D03*
X0261164Y0084479D02*
D03*
X0240748Y0114139D02*
D03*
X0249537Y0114139D02*
D03*
X0253474Y0122624D02*
D03*
X0188557Y0152490D02*
D03*
X0214173Y0134646D02*
D03*
X0255118Y0051575D02*
D03*
X0268504Y0084570D02*
D03*
X0290157Y0083172D02*
D03*
X0304222Y0083172D02*
D03*
X0290157Y0087402D02*
D03*
X0304222Y0087402D02*
D03*
X0264519Y0134310D02*
D03*
X0309055Y0136221D02*
D03*
X0242520Y0075985D02*
D03*
X0253474Y0114139D02*
D03*
X0244685Y0114139D02*
D03*
X0244685Y0118627D02*
D03*
X0240748Y0118627D02*
D03*
X0186614Y0138583D02*
D03*
X0190551Y0138583D02*
D03*
X0192494Y0152490D02*
D03*
X0277939Y0081666D02*
D03*
X0281876Y0081666D02*
D03*
X0308160Y0083172D02*
D03*
X0264567Y0084570D02*
D03*
X0249537Y0122624D02*
D03*
X0257227Y0084479D02*
D03*
X0253824Y0084534D02*
D03*
X0294094Y0087402D02*
D03*
X0268456Y0134310D02*
D03*
X0305118Y0136221D02*
D03*
X0233025Y0053873D02*
D03*
X0259055Y0051575D02*
D03*
X0285827Y0076599D02*
D03*
X0289764Y0076599D02*
D03*
X0294094Y0083172D02*
D03*
X0210236Y0134646D02*
D03*
X0210236Y0130143D02*
D03*
X0242520Y0080315D02*
D03*
X0197277Y0053634D02*
D03*
X0206593Y0053634D02*
D03*
X0202656Y0053634D02*
D03*
X0300285Y0087402D02*
D03*
X0309055Y0132284D02*
D03*
X0305118Y0132284D02*
D03*
X0309055Y0119882D02*
D03*
X0305118Y0119882D02*
D03*
X0309055Y0115748D02*
D03*
X0305118Y0115748D02*
D03*
X0309055Y0107480D02*
D03*
X0305118Y0107480D02*
D03*
X0309055Y0111614D02*
D03*
X0305118Y0111614D02*
D03*
X0309055Y0103347D02*
D03*
X0305118Y0103347D02*
D03*
X0309055Y0124016D02*
D03*
X0305118Y0124016D02*
D03*
X0309055Y0128150D02*
D03*
X0305118Y0128150D02*
D03*
D398*
X0254065Y0100788D02*
D03*
X0254065Y0096555D02*
D03*
X0208661Y0184646D02*
D03*
X0213386Y0184646D02*
D03*
X0218110Y0184646D02*
D03*
X0222834Y0184646D02*
D03*
X0292913Y0056299D02*
D03*
X0288779Y0056299D02*
D03*
X0197599Y0148520D02*
D03*
X0197599Y0144583D02*
D03*
X0308528Y0057481D02*
D03*
X0308528Y0061417D02*
D03*
X0254065Y0092618D02*
D03*
X0254065Y0104725D02*
D03*
X0201771Y0149016D02*
D03*
X0201771Y0145079D02*
D03*
X0226544Y0176792D02*
D03*
X0226544Y0172855D02*
D03*
X0222834Y0172855D02*
D03*
X0222834Y0176792D02*
D03*
X0222834Y0162205D02*
D03*
X0222834Y0166142D02*
D03*
X0222834Y0180709D02*
D03*
X0218110Y0180709D02*
D03*
X0208661Y0180709D02*
D03*
X0213386Y0180709D02*
D03*
X0307493Y0147515D02*
D03*
X0307493Y0143578D02*
D03*
X0257283Y0144488D02*
D03*
X0257283Y0148425D02*
D03*
X0257283Y0154725D02*
D03*
X0257283Y0158662D02*
D03*
X0285236Y0144488D02*
D03*
X0285236Y0148425D02*
D03*
X0261811Y0169882D02*
D03*
X0261811Y0165945D02*
D03*
X0291141Y0169882D02*
D03*
X0291141Y0165945D02*
D03*
X0303937Y0169882D02*
D03*
X0303937Y0165945D02*
D03*
X0287045Y0176792D02*
D03*
X0287045Y0180729D02*
D03*
X0308661Y0177166D02*
D03*
X0308661Y0173229D02*
D03*
X0308464Y0180315D02*
D03*
X0308464Y0184252D02*
D03*
X0308528Y0069007D02*
D03*
X0308528Y0065070D02*
D03*
X0292913Y0052362D02*
D03*
X0288779Y0052362D02*
D03*
X0285039Y0165945D02*
D03*
X0285039Y0169882D02*
D03*
X0280709Y0165945D02*
D03*
X0280709Y0169882D02*
D03*
X0272244Y0165945D02*
D03*
X0272244Y0169882D02*
D03*
X0268078Y0180729D02*
D03*
X0268078Y0176792D02*
D03*
X0229331Y0148425D02*
D03*
X0229331Y0144488D02*
D03*
X0299606Y0165945D02*
D03*
X0299606Y0169882D02*
D03*
X0249235Y0180729D02*
D03*
X0249235Y0176792D02*
D03*
X0253346Y0165945D02*
D03*
X0253346Y0169882D02*
D03*
X0266141Y0165945D02*
D03*
X0266141Y0169882D02*
D03*
X0230255Y0180729D02*
D03*
X0230255Y0176792D02*
D03*
X0234448Y0165945D02*
D03*
X0234448Y0169882D02*
D03*
X0242913Y0165945D02*
D03*
X0242913Y0169882D02*
D03*
X0247244Y0165945D02*
D03*
X0247244Y0169882D02*
D03*
X0229467Y0162205D02*
D03*
X0229467Y0166142D02*
D03*
D400*
X0273435Y0059508D02*
D03*
X0281175Y0068983D02*
D03*
X0299508Y0092353D02*
D03*
D403*
X0225787Y0060925D02*
D03*
X0232087Y0060925D02*
D03*
X0262401Y0059547D02*
D03*
X0268701Y0059547D02*
D03*
X0262401Y0064173D02*
D03*
X0268701Y0064173D02*
D03*
D400*
X0290256Y0096094D02*
D03*
X0281175Y0076463D02*
D03*
X0271923Y0072723D02*
D03*
X0273435Y0052028D02*
D03*
X0282687Y0055768D02*
D03*
X0299508Y0099834D02*
D03*
D424*
X0264961Y0069370D02*
D03*
X0264961Y0075591D02*
D03*
D425*
X0235531Y0140158D02*
D03*
X0235531Y0147244D02*
D03*
X0245571Y0147244D02*
D03*
X0245571Y0140158D02*
D03*
X0263484Y0147244D02*
D03*
X0291437Y0147244D02*
D03*
X0273523Y0151181D02*
D03*
X0218405Y0176378D02*
D03*
X0218405Y0169292D02*
D03*
X0208366Y0169292D02*
D03*
X0208366Y0176378D02*
D03*
X0301476Y0158268D02*
D03*
X0301476Y0151181D02*
D03*
X0291437Y0151181D02*
D03*
X0291437Y0158268D02*
D03*
X0291437Y0140158D02*
D03*
X0301476Y0147244D02*
D03*
X0301476Y0140158D02*
D03*
X0273523Y0158268D02*
D03*
X0263484Y0151181D02*
D03*
X0263484Y0158268D02*
D03*
X0263484Y0140158D02*
D03*
X0273523Y0147244D02*
D03*
X0273523Y0140158D02*
D03*
X0272539Y0182087D02*
D03*
X0272539Y0175000D02*
D03*
X0282579Y0175000D02*
D03*
X0282579Y0182087D02*
D03*
X0291437Y0182087D02*
D03*
X0291437Y0175000D02*
D03*
X0301476Y0175000D02*
D03*
X0301476Y0182087D02*
D03*
X0253641Y0182087D02*
D03*
X0253641Y0175000D02*
D03*
X0263681Y0175000D02*
D03*
X0263681Y0182087D02*
D03*
X0234744Y0182087D02*
D03*
X0234744Y0175000D02*
D03*
X0244783Y0175000D02*
D03*
X0244783Y0182087D02*
D03*
X0235531Y0158268D02*
D03*
X0235531Y0151181D02*
D03*
X0245571Y0151181D02*
D03*
X0245571Y0158268D02*
D03*
X0207972Y0158268D02*
D03*
X0207972Y0151181D02*
D03*
X0218012Y0151181D02*
D03*
X0218012Y0158268D02*
D03*
X0218012Y0140158D02*
D03*
X0218012Y0147244D02*
D03*
X0207972Y0147244D02*
D03*
X0207972Y0140158D02*
D03*
D426*
X0242126Y0147244D02*
D03*
X0238976Y0147244D02*
D03*
X0238976Y0140158D02*
D03*
X0242126Y0140158D02*
D03*
X0266929Y0147244D02*
D03*
X0294882Y0147244D02*
D03*
X0270079Y0151181D02*
D03*
X0211811Y0169292D02*
D03*
X0214960Y0169292D02*
D03*
X0214960Y0176378D02*
D03*
X0211811Y0176378D02*
D03*
X0294882Y0151181D02*
D03*
X0298031Y0151181D02*
D03*
X0298031Y0158268D02*
D03*
X0294882Y0158268D02*
D03*
X0298031Y0147244D02*
D03*
X0294882Y0140158D02*
D03*
X0298031Y0140158D02*
D03*
X0266929Y0151181D02*
D03*
X0270079Y0158268D02*
D03*
X0266929Y0158268D02*
D03*
X0270078Y0147244D02*
D03*
X0266929Y0140158D02*
D03*
X0270078Y0140158D02*
D03*
X0275984Y0182087D02*
D03*
X0279134Y0182087D02*
D03*
X0279134Y0175000D02*
D03*
X0275984Y0175000D02*
D03*
X0294881Y0182087D02*
D03*
X0298031Y0182087D02*
D03*
X0298031Y0175000D02*
D03*
X0294881Y0175000D02*
D03*
X0257086Y0182087D02*
D03*
X0260236Y0182087D02*
D03*
X0260236Y0175000D02*
D03*
X0257086Y0175000D02*
D03*
X0238189Y0182087D02*
D03*
X0241338Y0182087D02*
D03*
X0241338Y0175000D02*
D03*
X0238189Y0175000D02*
D03*
X0238976Y0158268D02*
D03*
X0242126Y0158268D02*
D03*
X0242126Y0151181D02*
D03*
X0238976Y0151181D02*
D03*
X0211417Y0158268D02*
D03*
X0214567Y0158268D02*
D03*
X0214567Y0151181D02*
D03*
X0211417Y0151181D02*
D03*
X0214567Y0140158D02*
D03*
X0211417Y0140158D02*
D03*
X0211417Y0147244D02*
D03*
X0214567Y0147244D02*
D03*
D427*
X0203189Y0062894D02*
D03*
X0203189Y0057904D02*
D03*
X0209409Y0057904D02*
D03*
X0209409Y0062894D02*
D03*
D428*
X0190551Y0069784D02*
D03*
X0223228Y0069784D02*
D03*
X0190551Y0123917D02*
D03*
X0223228Y0123917D02*
D03*
D429*
X0200787Y0087815D02*
D03*
X0200787Y0079154D02*
D03*
X0200787Y0083484D02*
D03*
X0200787Y0092146D02*
D03*
X0200787Y0096477D02*
D03*
X0200787Y0100807D02*
D03*
X0200787Y0105138D02*
D03*
X0200787Y0109469D02*
D03*
D430*
X0182480Y0168425D02*
D03*
X0195684Y0168425D02*
D03*
X0189961Y0176457D02*
D03*
X0203164Y0176457D02*
D03*
X0186220Y0159173D02*
D03*
X0199424Y0159173D02*
D03*
X0199424Y0185709D02*
D03*
X0287598Y0070788D02*
D03*
X0291338Y0061536D02*
D03*
X0186220Y0185709D02*
D03*
D235*
X0188557Y0142652D02*
D03*
X0192494Y0142652D02*
D03*
X0188557Y0148656D02*
D03*
X0190525Y0148656D02*
D03*
X0190525Y0142652D02*
D03*
X0192494Y0148656D02*
D03*
D431*
X0279122Y0086004D02*
D03*
X0284240Y0086004D02*
D03*
X0281681Y0086004D02*
D03*
X0279122Y0093485D02*
D03*
X0284240Y0093485D02*
D03*
D238*
X0275905Y0105512D02*
D03*
X0298897Y0108071D02*
D03*
X0298897Y0105512D02*
D03*
X0275905Y0128543D02*
D03*
X0298897Y0131102D02*
D03*
X0298897Y0133662D02*
D03*
X0298897Y0128543D02*
D03*
X0298897Y0125984D02*
D03*
X0298897Y0123425D02*
D03*
X0298897Y0120866D02*
D03*
X0298897Y0118307D02*
D03*
X0298897Y0115748D02*
D03*
X0298897Y0113189D02*
D03*
X0298897Y0110630D02*
D03*
X0275905Y0133662D02*
D03*
X0275905Y0131102D02*
D03*
X0275905Y0125984D02*
D03*
X0275905Y0123425D02*
D03*
X0275905Y0120866D02*
D03*
X0275905Y0118307D02*
D03*
X0275905Y0115748D02*
D03*
X0275905Y0113189D02*
D03*
X0275905Y0110630D02*
D03*
X0275905Y0108071D02*
D03*
D432*
X0301968Y0067925D02*
D03*
X0301968Y0056507D02*
D03*
D433*
X0243878Y0065790D02*
D03*
X0256870Y0065790D02*
D03*
X0307955Y0076990D02*
D03*
X0294963Y0076990D02*
D03*
D240*
X0245103Y0091195D02*
D03*
X0245103Y0105762D02*
D03*
D241*
X0193527Y0146638D02*
D03*
X0193527Y0144670D02*
D03*
X0187523Y0144670D02*
D03*
X0187523Y0146638D02*
D03*
D434*
X0258514Y0078672D02*
D03*
X0252609Y0078672D02*
D03*
D430*
X0189961Y0168425D02*
D03*
X0203164Y0168425D02*
D03*
X0195684Y0176457D02*
D03*
X0295079Y0070788D02*
D03*
X0182480Y0176457D02*
D03*
D243*
X0255711Y0129331D02*
D03*
X0249018Y0129331D02*
D03*
D435*
X0239350Y0055794D02*
D03*
X0250767Y0055794D02*
D03*
D436*
X0308267Y0090158D02*
D03*
X0308267Y0096457D02*
D03*
M02*
