M48
INCH,TZ
T01C0.013750
T02C0.021650
T03C0.026600
T04C0.032500
T05C0.039200
T06C0.043300
T07C0.059100
T08C0.120000
T09C0.126000
%
T01
X12598Y18499
X12805Y18844
X13100Y18381
X14498Y18411
X13018Y30359
X13411Y30359
X14537Y24680
X15010Y24680
X15482Y24680
X15955Y24680
X16270Y2298
X16270Y1905
X17368Y30359
X17762Y30359
X18031Y14611
X18031Y14296
X18031Y13981
X18031Y13666
X18031Y13351
X18031Y13036
X18031Y12722
X18031Y12407
X18031Y12092
X18031Y11777
X18031Y11462
X18031Y11147
X18031Y10832
X18031Y10517
X18031Y9887
X18031Y9336
X18031Y9021
X18031Y8706
X18031Y8391
X18031Y8076
X18031Y7761
X18032Y16304
X18032Y10202
X18189Y4926
X18504Y4926
X18819Y4926
X18888Y24680
X19134Y4926
X19360Y24680
X19449Y4926
X19764Y4926
X19833Y24680
X20079Y4926
X20305Y24680
X20394Y4926
X20630Y18863
X20709Y4926
X21024Y4926
X21102Y18863
X21339Y4926
X21575Y18863
X21654Y4926
X22047Y18863
X22520Y18863
X22598Y4926
X22913Y4926
X22992Y18863
X23228Y4926
X23465Y18863
X23543Y4926
X23858Y4926
X23937Y18863
X24173Y4926
X24409Y18863
X24488Y4926
X24803Y4926
X24882Y18863
X25118Y4926
X25354Y18863
X25827Y18863
X26299Y18863
X26772Y18863
X26811Y4926
X27244Y18863
X27717Y18863
X27874Y4926
X28189Y18863
X28268Y4926
X28661Y18863
X29134Y18863
X29606Y18863
X30079Y18863
X30581Y28794
X30955Y28794
X30974Y32220
X31024Y18863
X31181Y17879
X31181Y17485
X31181Y13273
X31181Y12879
X31181Y12485
X31181Y12092
X31181Y11698
X31181Y11304
X31181Y10911
X31181Y10517
X31181Y9493
X31181Y9178
X31181Y7328
X31181Y6777
X31181Y4926
X31329Y32220
X31329Y28794
X34301Y15816
X34695Y15816
X35089Y15816
X35986Y15816
X36386Y15816
X37313Y26285
X37707Y26285
X38100Y26285
X38494Y26285
X236Y29848
X256Y23824
X264Y3143
X409Y16501
X433Y32131
X512Y27190
X630Y36147
X703Y13209
X941Y26553
X941Y25103
X941Y23056
X961Y21698
X982Y19617
X984Y2958
X988Y7855
X1063Y6698
X1065Y7474
X1102Y5517
X1181Y17092
X1260Y32977
X1614Y20418
X1648Y17111
X1654Y8391
X1756Y17615
X2224Y26560
X2224Y23056
X2244Y25281
X2244Y19631
X2253Y21923
X2254Y18430
X2283Y8312
X2286Y17049
X2313Y6682
X2480Y32840
X2480Y281
X2505Y30687
X2520Y3863
X2625Y13847
X2657Y16174
X2756Y4966
X2835Y8273
X2913Y477
X2947Y5879
X2965Y17307
X3025Y10267
X3025Y9887
X3115Y22997
X3135Y26997
X3135Y20997
X3268Y832
X3409Y32873
X3504Y3824
X3543Y2997
X3543Y2052
X3581Y10523
X3583Y8273
X3583Y5871
X3602Y32485
X3635Y35607
X3772Y5129
X4015Y33057
X4045Y34467
X4180Y4605
X4323Y8316
X4331Y5871
X4409Y1304
X4843Y4651
X4921Y2958
X5079Y8470
X5354Y2170
X5354Y1304
X5373Y37344
X5433Y4572
X5453Y8233
X5472Y5399
X5709Y38666
X5709Y9415
X5906Y8312
X6142Y4611
X6142Y2170
X6142Y1304
X6161Y6363
X6575Y9611
X6666Y28946
X6855Y17297
X6890Y1304
X6929Y2170
X7008Y31895
X7047Y26855
X7087Y29769
X7126Y6698
X7382Y22623
X7440Y19661
X7441Y25399
X7480Y4690
X7795Y19060
X7795Y17131
X7795Y16462
X7815Y22190
X7835Y25005
X7839Y10836
X7953Y1698
X8189Y27052
X8268Y30005
X8268Y28981
X8333Y29532
X8390Y392
X8484Y31521
X8583Y28312
X8645Y10824
X8701Y13548
X8701Y2603
X8740Y2193
X8819Y3036
X8917Y27603
X8976Y5084
X9016Y32170
X9055Y241
X9213Y14060
X9409Y1344
X9449Y596
X9567Y6698
X9665Y30025
X9722Y9069
X9764Y31383
X9921Y38745
X9941Y28096
X10114Y29570
X10197Y11777
X10217Y19962
X10236Y25536
X10236Y22761
X10236Y17761
X10236Y17210
X10276Y23706
X10295Y20947
X10295Y18190
X10295Y15397
X10295Y12678
X10315Y14493
X10433Y26166
X10709Y17749
X10866Y23233
X10866Y14926
X10906Y20438
X10906Y12170
X10945Y28096
X10945Y11107
X11142Y10753
X11339Y20458
X11415Y19963
X11496Y14454
X11516Y13548
X11535Y22761
X11575Y25536
X11575Y9729
X11599Y11576
X11811Y12367
X11890Y26344
X11929Y29572
X11949Y28076
X11969Y10005
X12126Y12682
X12126Y11363
X12205Y10714
X12224Y24257
X12343Y21777
X12362Y16777
X12382Y16009
X12441Y14296
X12520Y30989
X12675Y33057
X12685Y34477
X12913Y21777
X12933Y11718
X13031Y24296
X13271Y16756
X13735Y34497
X13745Y33067
X13760Y9985
X13790Y10959
X14016Y21777
X14331Y30871
X14414Y14264
X14547Y12603
X14708Y10719
X14882Y31501
X15039Y18863
X15039Y16934
X15157Y13509
X15204Y9871
X15205Y34497
X15236Y12722
X15265Y33047
X15512Y30832
X15591Y9533
X15630Y13312
X15709Y18903
X15913Y19233
X15945Y21225
X15984Y31934
X16365Y9040
X16378Y29533
X16378Y27210
X16417Y12407
X16417Y24729
X16417Y15832
X16417Y13981
X16417Y9454
X16535Y17446
X16535Y6816
X16575Y1462
X16589Y2688
X16614Y3785
X16634Y4178
X16811Y30871
X17025Y33067
X17035Y34487
X17126Y23155
X17203Y38623
X17224Y3725
X17303Y7603
X17461Y5174
X17539Y4301
X17539Y3927
X17638Y15123
X17638Y241
X17677Y17722
X17717Y6186
X17740Y9674
X17972Y3826
X18055Y23174
X18095Y34477
X18095Y33067
X18307Y2131
X18622Y30871
X18701Y1344
X18750Y4176
X19016Y20281
X19016Y281
X19252Y2446
X19449Y32131
X20039Y20320
X20068Y22212
X20157Y30832
X20157Y4572
X20157Y596
X20431Y2598
X20615Y33067
X20630Y32131
X20630Y29257
X20665Y34477
X20709Y1344
X20748Y25517
X20866Y399
X21535Y38666
X21614Y28155
X21637Y26695
X21850Y31580
X21890Y2407
X21929Y4651
X21969Y281
X22061Y27912
X22279Y3470
X22992Y32131
X23031Y21383
X23110Y28903
X23445Y33877
X23661Y3155
X23819Y29253
X23937Y21225
X24213Y31462
X24213Y24611
X24365Y33587
X24406Y3804
X24567Y28627
X24567Y22997
X24803Y25950
X25000Y27722
X25039Y4454
X25276Y32092
X25305Y33437
X25827Y4611
X26417Y29808
X26686Y27643
X26693Y25989
X26811Y359
X27165Y38745
X27185Y33437
X27205Y25320
X27323Y4572
X27905Y4226
X27913Y24060
X28035Y33307
X28661Y27525
X29140Y31947
X29435Y33287
X29961Y22603
X30118Y2407
X30315Y33027
X30354Y4572
X30516Y20084
X30551Y27210
X30551Y19159
X30551Y24060
X30709Y21619
X30805Y33017
X31024Y399
X31102Y23824
X31299Y25320
X31457Y18430
X31457Y17013
X31496Y13824
X31496Y10005
X31535Y12918
X31535Y8745
X31535Y7800
X31535Y3351
X31575Y7052
X31575Y6344
X31614Y20517
X31758Y30365
X32755Y32472
X32835Y8588
X32913Y359
X33031Y27048
X33110Y15491
X33155Y17567
X33189Y10753
X33307Y12840
X33346Y32472
X33346Y17013
X33396Y18155
X33425Y38863
X33425Y21659
X33701Y26698
X33819Y32446
X33898Y438
X34606Y26737
X34862Y15458
X35079Y11580
X35157Y26737
X35433Y8194
X35551Y13233
X35669Y26737
X36417Y399
X37047Y26816
X37047Y13194
X37598Y28253
X37835Y9493
X37990Y31626
X37990Y30641
X37990Y29657
X38071Y15359
X38150Y14099
X38248Y6422
X38386Y12643
X38504Y5832
X38714Y30133
X38935Y32216
X38976Y13391
X39033Y28965
X39134Y26777
X39134Y15438
X39615Y7067
X40285Y33857
X41025Y16257
X41295Y18137
X41655Y29457
X43055Y33707
X43205Y29447
X43295Y15987
X44965Y7057
X44975Y18407
X10788Y665
X10516Y1301
X10730Y1686
X10089Y2115
X10049Y2451
X10246Y3041
X10522Y3297
X10640Y3828
X10246Y4124
X10049Y3632
X10049Y4813
X10049Y6388
X10522Y6368
X11633Y6660
X12680Y6635
X13002Y6347
X14055Y6272
X15167Y6388
X15955Y6388
X15482Y5384
X14837Y5378
X14897Y4132
X15364Y4222
X15532Y3742
X15955Y4025
X15533Y2857
X16229Y2685
X16270Y2293
X16270Y1899
X15588Y1993
X15278Y1504
X15665Y1187
X15268Y757
X14879Y1136
X14804Y1860
X14852Y2293
X13536Y1308
X13536Y679
X12617Y665
X11762Y665
X11985Y1307
X12569Y2332
X12962Y3779
X12215Y3828
X12648Y4338
X13237Y5336
X14183Y7293
X15115Y7360
X15167Y7765
X15955Y7569
X15561Y6978
X13087Y8118
X13129Y8524
X12300Y8108
X12035Y7705
X10598Y7782
X11007Y7147
X10167Y6914
X30434Y32209
X30687Y32057
X30974Y32215
X31329Y32215
X30995Y31213
X30890Y30939
X31103Y30696
X30590Y31246
X31330Y29767
X31329Y28790
X30955Y28790
X30581Y28790
X18514Y30364
X20160Y30337
X19331Y30315
X16807Y29593
X17564Y29584
X18343Y29558
X20172Y29510
X19240Y29508
X18538Y29336
X20144Y29162
X16935Y29075
X18250Y29045
X16801Y28770
X20335Y28714
X18788Y28637
X17542Y28626
X19863Y28472
X18852Y28349
X18829Y28055
X19230Y27813
X18424Y27681
X18750Y27628
X18032Y27618
X16949Y27598
X17321Y27548
X17671Y27508
X18329Y27287
X16801Y26978
X18376Y26909
X18800Y26595
X18514Y26476
X18010Y26378
X19473Y26356
X16961Y26313
X18770Y26290
X20144Y26221
X20085Y25925
X18815Y25742
X20314Y25730
X17441Y25403
X17433Y24927
X17264Y24685
X17677Y24675
X16782Y24659
X17762Y30354
X17368Y30354
X20305Y24675
X19833Y24675
X19361Y24675
X18888Y24675
X14517Y30226
X12549Y30226
X15856Y30187
X14439Y29360
X13376Y29203
X12549Y29085
X15856Y28848
X14950Y28455
X13966Y28415
X13336Y27864
X12549Y27825
X15856Y27431
X15147Y27195
X12549Y27116
X14456Y27030
X12903Y26604
X13769Y26093
X12824Y25856
X15856Y25699
X12549Y25384
X15031Y25066
X14163Y24793
X12824Y24793
X13411Y30354
X13017Y30354
X15954Y24675
X15482Y24675
X15010Y24675
X14537Y24675
X36762Y15748
X33832Y15823
X35502Y15867
X38868Y15867
X38678Y16100
X37398Y16156
X37087Y16156
X34064Y16310
X35655Y16538
X34957Y16630
X37585Y16693
X38518Y16830
X38790Y17122
X33750Y17225
X34387Y17271
X34764Y17313
X36071Y17388
X37308Y17392
X38829Y17668
X36743Y17749
X38032Y17874
X36083Y17934
X35036Y17943
X36793Y18052
X38868Y18150
X33745Y18947
X38061Y19115
X36256Y19405
X35317Y19635
X36817Y19636
X36024Y19637
X35781Y19843
X38967Y19863
X36122Y19921
X34745Y20228
X36880Y20436
X34796Y20525
X38937Y20650
X35443Y20666
X34790Y20835
X38223Y20853
X36841Y20926
X35841Y20985
X35166Y21138
X38140Y21142
X37407Y21443
X34441Y21461
X34140Y21469
X38947Y21841
X34309Y22048
X33724Y22073
X34608Y22082
X33943Y22339
X35585Y22477
X36432Y22523
X36945Y22593
X37845Y22593
X38146Y22593
X38447Y22593
X38748Y22593
X37353Y22597
X35817Y22973
X36034Y23229
X38989Y25304
X37240Y25521
X33987Y25561
X34400Y25709
X37333Y25808
X34981Y25847
X35256Y25847
X35532Y25847
X34420Y26024
X38996Y26044
X34981Y26152
X35256Y26152
X34006Y26349
X34301Y15811
X34695Y15811
X35089Y15811
X35987Y15811
X36387Y15811
X37313Y26280
X37707Y26280
X38101Y26280
X38494Y26280
X31023Y18858
X30547Y18827
X30315Y18637
X30079Y18858
X29842Y18657
X29606Y18858
X29370Y18657
X29134Y18858
X28897Y18657
X28661Y18858
X28425Y18657
X28189Y18858
X27953Y18657
X27716Y18858
X27480Y18657
X27244Y18858
X27008Y18657
X26771Y18858
X26535Y18657
X26299Y18858
X26063Y18657
X25827Y18858
X25590Y18657
X25354Y18858
X25118Y18657
X24882Y18858
X24645Y18657
X24409Y18858
X24173Y18657
X23937Y18858
X23701Y18657
X23464Y18858
X23228Y18657
X22992Y18858
X22756Y18657
X22519Y18858
X22283Y18657
X22047Y18858
X21811Y18657
X21575Y18858
X21338Y18657
X21102Y18858
X20866Y18657
X20630Y18858
X20315Y18700
X20322Y18165
X20749Y17971
X21200Y17961
X21642Y17954
X22115Y17956
X22620Y16909
X22930Y16909
X23177Y17382
X23775Y17179
X24071Y17170
X23914Y16899
X23797Y16217
X24052Y15949
X24149Y15408
X23710Y15408
X23250Y15528
X23250Y15196
X23250Y14901
X23256Y14610
X22926Y13926
X22381Y13930
X22519Y13346
X23149Y13425
X23219Y12593
X23234Y12207
X23582Y12401
X23816Y12601
X24073Y12168
X24766Y11867
X25364Y11850
X25711Y12146
X26486Y11971
X26468Y12526
X26478Y13073
X27186Y12946
X27141Y12147
X27167Y11382
X27189Y10572
X26486Y10532
X26486Y10817
X26486Y11102
X26486Y10231
X25698Y9915
X25711Y9630
X25743Y9332
X25693Y8850
X25289Y8799
X24659Y8321
X24282Y8333
X23346Y8189
X23021Y8789
X22813Y8586
X22831Y9113
X22473Y9160
X23024Y9344
X23230Y10487
X23453Y10716
X23499Y11399
X23790Y11410
X23303Y11618
X22634Y11618
X21768Y11807
X21574Y12021
X21370Y12225
X21168Y12427
X21171Y11614
X21618Y11149
X21631Y10448
X21255Y10546
X21378Y10078
X21580Y9541
X21340Y9315
X21146Y8917
X21338Y8661
X21439Y8278
X21479Y7972
X21181Y8070
X20677Y8272
X20621Y8573
X20677Y9135
X20530Y9380
X20787Y9763
X20805Y10254
X19577Y10646
X19267Y10960
X19449Y11181
X19484Y11701
X18031Y11771
X18031Y11456
X18031Y11141
X18031Y10826
X18031Y10511
X18031Y10196
X18031Y9882
X18170Y9604
X18031Y9330
X18031Y9015
X18031Y8700
X18031Y8385
X18031Y8070
X18031Y7756
X18388Y7668
X18171Y7424
X18480Y6722
X18484Y5787
X18857Y5743
X18859Y6028
X19232Y5787
X19134Y4921
X19449Y4921
X19764Y4921
X20079Y4921
X20393Y4921
X20708Y4921
X21023Y4921
X21338Y4921
X21653Y4921
X22244Y5118
X22598Y4921
X22913Y4921
X23228Y4921
X23543Y4921
X23858Y4921
X24173Y4921
X24488Y4921
X24803Y4921
X25118Y4921
X25630Y4960
X25536Y5615
X25934Y5651
X26279Y5606
X26558Y5908
X26500Y5153
X26811Y4921
X27874Y4921
X28268Y4921
X28629Y4945
X28621Y5408
X28851Y5853
X28932Y6726
X29372Y6503
X28186Y6191
X27723Y5872
X27766Y6723
X27323Y6771
X26838Y7199
X26830Y7484
X26762Y7844
X26759Y8140
X27489Y8041
X27480Y8425
X27489Y8750
X27150Y9078
X27489Y9458
X27473Y9810
X27493Y10105
X27176Y9787
X28171Y9359
X28174Y8915
X29350Y9059
X29330Y9580
X29331Y9969
X28506Y10434
X28206Y10395
X28183Y10848
X28183Y11135
X28183Y11422
X28183Y11838
X28183Y12124
X28165Y12548
X28165Y12856
X28165Y13145
X27941Y13885
X27661Y13980
X27349Y14375
X27647Y14695
X27647Y15261
X27654Y15547
X27563Y16208
X27766Y16953
X27598Y17185
X27898Y17220
X28523Y17384
X28819Y17384
X29445Y17179
X29731Y17179
X29567Y16896
X29463Y16220
X29622Y15951
X29802Y15374
X29326Y15374
X28840Y15528
X28840Y15196
X28840Y14901
X28847Y14610
X29610Y14388
X29606Y14011
X30409Y14003
X30382Y14337
X30677Y13905
X31156Y13862
X31181Y13267
X31181Y12874
X31181Y12480
X31181Y12086
X31181Y11693
X31181Y11299
X31181Y10905
X31181Y10511
X31142Y9882
X31181Y9488
X31181Y9173
X31181Y8799
X31053Y8316
X31142Y7952
X31181Y7322
X30897Y7212
X31181Y6771
X31160Y5609
X31181Y4921
X30157Y8189
X30031Y8484
X29162Y7999
X27170Y7707
X26293Y7259
X26161Y6870
X25823Y6941
X25400Y7263
X24960Y7362
X24219Y7284
X23691Y6348
X23551Y6069
X23480Y5762
X23218Y6452
X22387Y6423
X22195Y6098
X21451Y6444
X21525Y7292
X21231Y7292
X20940Y7292
X19754Y7234
X19724Y6771
X19999Y6240
X20025Y5336
X21135Y5209
X18819Y4921
X18504Y4921
X18189Y4921
X19383Y7825
X19539Y8064
X19311Y8356
X19094Y8783
X19535Y8781
X19633Y9465
X19117Y9754
X18841Y9200
X18830Y10409
X18031Y12086
X18031Y12401
X18031Y12716
X18031Y13031
X18031Y13346
X18031Y13661
X18031Y13976
X18031Y14291
X18031Y14606
X18550Y15220
X18110Y15826
X18031Y16299
X18602Y16897
X18602Y17216
X18602Y17534
X18602Y17852
X18602Y18171
X18966Y18497
X18248Y18540
X19844Y17709
X19711Y17130
X20275Y16220
X20508Y15516
X20494Y15196
X20499Y14908
X20500Y14610
X21287Y14388
X21296Y13975
X21806Y14360
X22096Y14576
X22096Y15149
X22059Y15535
X21455Y15401
X20955Y15408
X21295Y15954
X21174Y16620
X21491Y16620
X21837Y16620
X20827Y16631
X22638Y16220
X24854Y15535
X24852Y15136
X24852Y14697
X24770Y14313
X24043Y14335
X24094Y14053
X25236Y13921
X25560Y13913
X25582Y13421
X25992Y13701
X26063Y14530
X26040Y14901
X26053Y15196
X26063Y15696
X26358Y15433
X27027Y15388
X26827Y15930
X26898Y16806
X26667Y17386
X25957Y17179
X25665Y17179
X25807Y16889
X25684Y16220
X25038Y17340
X24710Y17391
X26705Y14382
X26904Y13976
X28517Y13926
X29051Y13307
X29051Y12546
X29051Y11785
X29050Y11023
X25367Y11076
X25571Y10751
X25409Y9863
X26488Y8763
X25689Y6140
X25245Y6236
X25152Y6506
X24949Y6143
X22443Y7485
X22385Y7768
X20812Y13301
X20433Y12952
X19346Y13097
X19395Y13826
X19707Y13794
X20170Y13926
X18635Y13619
X24957Y12564
X30443Y15108
X30405Y15573
X30687Y15895
X31178Y15934
X30580Y16486
X30846Y16798
X31181Y17480
X31181Y17874
X31161Y18459
X30590Y18267
X30393Y17384
X31053Y14576
X12805Y18839
X12598Y18495
X13100Y18376
X14498Y18406
T02
X433Y37997
X433Y1383
X710Y38665
X710Y37329
X710Y2051
X710Y715
X1378Y38942
X1378Y37052
X1378Y2328
X1378Y438
X2046Y38665
X2046Y37329
X2046Y2051
X2046Y715
X2323Y37997
X2323Y1383
X37047Y37997
X37047Y1383
X37324Y38665
X37324Y37329
X37324Y2051
X37324Y715
X37992Y38942
X37992Y37052
X37992Y2328
X37992Y438
X38660Y38665
X38660Y37329
X38660Y2051
X38660Y715
X38937Y37997
X38937Y1383
X17984Y3019G85X17984Y2586
X17984Y1275G85X17984Y1038
X21386Y3019G85X21386Y2586
X21386Y1275G85X21386Y1038
T03
X22638Y2170
X22638Y1540
X23327Y2485
X23327Y1855
X23327Y1225
X22726Y3292G85X23238Y3292
X22726Y418G85X23238Y418
X18547Y2605
X20823Y2605
T04
X7244Y7662
X7244Y5733
X7303Y8903
X8110Y7662
X8110Y5733
X8976Y7662
X8976Y5733
X9232Y8903
X17116Y2554
X17116Y1054
X23426Y27702
X23426Y26702
X23426Y25702
X23426Y24702
X23426Y23702
X23426Y22702
X32677Y5123
X32677Y4139
X32677Y3155
X32677Y2170
X32677Y1186
X25086Y13563
X23508Y13563
X22086Y13563
T05
X1181Y4533
X2181Y4533
X3181Y4533
X4065Y27497
X4065Y26497
X4065Y25497
X4065Y24497
X4065Y23497
X4065Y22497
X4065Y21497
X4065Y20497
X4065Y19497
X4065Y14997
X4065Y13997
X4065Y12997
X4065Y11997
X5065Y27497
X5065Y26497
X5065Y25497
X5065Y24497
X5065Y23497
X5065Y22497
X5065Y21497
X5065Y20497
X5065Y19497
X5065Y14997
X5065Y13997
X5065Y12997
X5065Y11997
X9055Y4336
X9990Y8381
X9990Y7653
X9990Y5704
X9990Y960
X12598Y22643
X13740Y22643
X15551Y23674
X15551Y22674
X15551Y21674
X15551Y20674
X15551Y19674
X16093Y8204
X16093Y5684
X16093Y4936
X16093Y3243
X16093Y783
X16551Y23674
X16551Y22674
X16551Y21674
X16551Y20674
X16551Y19674
X17551Y23674
X17551Y22674
X17551Y21674
X17551Y20674
X17551Y19674
X18551Y23674
X18551Y22674
X18551Y21674
X18551Y20674
X18551Y19674
X19551Y23674
X19551Y22674
X19551Y21674
X19551Y20674
X19551Y19674
X20551Y23674
X20551Y22674
X20551Y21674
X20551Y20674
X20551Y19674
X24606Y2958
X24606Y989
X32756Y9454
X32756Y7603
X33642Y14926
X34035Y31147
X34035Y30147
X34035Y29147
X34642Y14926
X35035Y31147
X35035Y30147
X35035Y29147
X35642Y14926
X36642Y14926
X37642Y14926
X38642Y14926
X42015Y28497
X42015Y27497
X42015Y26497
X42015Y25497
X42015Y24497
X42015Y23497
X42015Y22497
X42015Y21497
X42015Y20497
X42015Y19497
X42015Y14997
X42015Y13997
X42015Y12997
X42015Y11997
X42015Y10997
X42015Y9997
X42015Y8997
X42015Y7997
X43015Y28497
X43015Y27497
X43015Y26497
X43015Y25497
X43015Y24497
X43015Y23497
X43015Y22497
X43015Y21497
X43015Y20497
X43015Y19497
X43015Y14997
X43015Y13997
X43015Y12997
X43015Y11997
X43015Y10997
X43015Y9997
X43015Y8997
X43015Y7997
X9990Y954
X9990Y5699
X16093Y5679
X16093Y4931
X16093Y3238
X16093Y777
X16093Y8199
X9990Y8376
X9990Y7647
X37983Y23134
X36801Y23922
X37983Y24709
X38061Y16008
X37661Y18008
X38461Y18008
X30866Y5236
X21787Y6207
X21787Y5407
X19787Y5807
T06
X34174Y22957
X34174Y23957
X34174Y24957
T07
X36220Y11462
X36220Y8509
T08
X28426Y29702
X28426Y20702
T09
X1378Y37997
X1378Y1383
X37992Y37997
X37992Y1383
M30
