G75*
G70*
%OFA0B0*%
%FSLAX25Y25*%
%IPPOS*%
%LPD*%
%AMOC8*
5,1,8,0,0,1.08239X$1,22.5*
%
%AMM116*
21,1,0.027170,0.052760,0.000000,-0.000000,180.000000*
21,1,0.017320,0.062600,0.000000,-0.000000,180.000000*
1,1,0.009840,-0.008660,0.026380*
1,1,0.009840,0.008660,0.026380*
1,1,0.009840,0.008660,-0.026380*
1,1,0.009840,-0.008660,-0.026380*
%
%AMM14*
21,1,0.092130,0.073230,0.000000,0.000000,270.000000*
21,1,0.069290,0.096060,0.000000,0.000000,270.000000*
1,1,0.022840,-0.036610,-0.034650*
1,1,0.022840,-0.036610,0.034650*
1,1,0.022840,0.036610,0.034650*
1,1,0.022840,0.036610,-0.034650*
%
%AMM15*
21,1,0.100000,0.111020,0.000000,0.000000,0.000000*
21,1,0.075590,0.135430,0.000000,0.000000,0.000000*
1,1,0.024410,0.037800,-0.055510*
1,1,0.024410,-0.037800,-0.055510*
1,1,0.024410,-0.037800,0.055510*
1,1,0.024410,0.037800,0.055510*
%
%AMM16*
21,1,0.080320,0.083460,0.000000,0.000000,0.000000*
21,1,0.059840,0.103940,0.000000,0.000000,0.000000*
1,1,0.020470,0.029920,-0.041730*
1,1,0.020470,-0.029920,-0.041730*
1,1,0.020470,-0.029920,0.041730*
1,1,0.020470,0.029920,0.041730*
%
%AMM17*
21,1,0.084250,0.053540,0.000000,0.000000,180.000000*
21,1,0.065350,0.072440,0.000000,0.000000,180.000000*
1,1,0.018900,-0.032680,0.026770*
1,1,0.018900,0.032680,0.026770*
1,1,0.018900,0.032680,-0.026770*
1,1,0.018900,-0.032680,-0.026770*
%
%AMM18*
21,1,0.040950,0.030320,0.000000,0.000000,90.000000*
21,1,0.028350,0.042910,0.000000,0.000000,90.000000*
1,1,0.012600,0.015160,0.014170*
1,1,0.012600,0.015160,-0.014170*
1,1,0.012600,-0.015160,-0.014170*
1,1,0.012600,-0.015160,0.014170*
%
%AMM19*
21,1,0.027170,0.052760,0.000000,0.000000,270.000000*
21,1,0.017320,0.062600,0.000000,0.000000,270.000000*
1,1,0.009840,-0.026380,-0.008660*
1,1,0.009840,-0.026380,0.008660*
1,1,0.009840,0.026380,0.008660*
1,1,0.009840,0.026380,-0.008660*
%
%AMM199*
21,1,0.029530,0.026380,-0.000000,-0.000000,90.000000*
21,1,0.020470,0.035430,-0.000000,-0.000000,90.000000*
1,1,0.009060,0.013190,0.010240*
1,1,0.009060,0.013190,-0.010240*
1,1,0.009060,-0.013190,-0.010240*
1,1,0.009060,-0.013190,0.010240*
%
%AMM20*
21,1,0.041340,0.026770,0.000000,0.000000,0.000000*
21,1,0.029130,0.038980,0.000000,0.000000,0.000000*
1,1,0.012210,0.014570,-0.013390*
1,1,0.012210,-0.014570,-0.013390*
1,1,0.012210,-0.014570,0.013390*
1,1,0.012210,0.014570,0.013390*
%
%AMM200*
21,1,0.021650,0.027950,-0.000000,-0.000000,90.000000*
21,1,0.014170,0.035430,-0.000000,-0.000000,90.000000*
1,1,0.007480,0.013980,0.007090*
1,1,0.007480,0.013980,-0.007090*
1,1,0.007480,-0.013980,-0.007090*
1,1,0.007480,-0.013980,0.007090*
%
%AMM201*
21,1,0.016540,0.028980,-0.000000,-0.000000,270.000000*
21,1,0.010080,0.035430,-0.000000,-0.000000,270.000000*
1,1,0.006460,-0.014490,-0.005040*
1,1,0.006460,-0.014490,0.005040*
1,1,0.006460,0.014490,0.005040*
1,1,0.006460,0.014490,-0.005040*
%
%AMM202*
21,1,0.027560,0.030710,-0.000000,-0.000000,0.000000*
21,1,0.018900,0.039370,-0.000000,-0.000000,0.000000*
1,1,0.008660,0.009450,-0.015350*
1,1,0.008660,-0.009450,-0.015350*
1,1,0.008660,-0.009450,0.015350*
1,1,0.008660,0.009450,0.015350*
%
%AMM203*
21,1,0.031500,0.018900,-0.000000,-0.000000,270.000000*
21,1,0.022840,0.027560,-0.000000,-0.000000,270.000000*
1,1,0.008660,-0.009450,-0.011420*
1,1,0.008660,-0.009450,0.011420*
1,1,0.008660,0.009450,0.011420*
1,1,0.008660,0.009450,-0.011420*
%
%AMM204*
21,1,0.035430,0.072440,-0.000000,-0.000000,270.000000*
21,1,0.025200,0.082680,-0.000000,-0.000000,270.000000*
1,1,0.010240,-0.036220,-0.012600*
1,1,0.010240,-0.036220,0.012600*
1,1,0.010240,0.036220,0.012600*
1,1,0.010240,0.036220,-0.012600*
%
%AMM205*
21,1,0.031500,0.018900,-0.000000,-0.000000,0.000000*
21,1,0.022840,0.027560,-0.000000,-0.000000,0.000000*
1,1,0.008660,0.011420,-0.009450*
1,1,0.008660,-0.011420,-0.009450*
1,1,0.008660,-0.011420,0.009450*
1,1,0.008660,0.011420,0.009450*
%
%AMM206*
21,1,0.027560,0.030710,-0.000000,-0.000000,90.000000*
21,1,0.018900,0.039370,-0.000000,-0.000000,90.000000*
1,1,0.008660,0.015350,0.009450*
1,1,0.008660,0.015350,-0.009450*
1,1,0.008660,-0.015350,-0.009450*
1,1,0.008660,-0.015350,0.009450*
%
%AMM207*
21,1,0.039370,0.030320,-0.000000,-0.000000,90.000000*
21,1,0.028350,0.041340,-0.000000,-0.000000,90.000000*
1,1,0.011020,0.015160,0.014170*
1,1,0.011020,0.015160,-0.014170*
1,1,0.011020,-0.015160,-0.014170*
1,1,0.011020,-0.015160,0.014170*
%
%AMM208*
21,1,0.047240,0.075980,-0.000000,-0.000000,180.000000*
21,1,0.034650,0.088580,-0.000000,-0.000000,180.000000*
1,1,0.012600,-0.017320,0.037990*
1,1,0.012600,0.017320,0.037990*
1,1,0.012600,0.017320,-0.037990*
1,1,0.012600,-0.017320,-0.037990*
%
%AMM209*
21,1,0.043310,0.035430,-0.000000,-0.000000,180.000000*
21,1,0.031500,0.047240,-0.000000,-0.000000,180.000000*
1,1,0.011810,-0.015750,0.017720*
1,1,0.011810,0.015750,0.017720*
1,1,0.011810,0.015750,-0.017720*
1,1,0.011810,-0.015750,-0.017720*
%
%AMM21*
21,1,0.076380,0.036220,0.000000,0.000000,90.000000*
21,1,0.061810,0.050790,0.000000,0.000000,90.000000*
1,1,0.014570,0.018110,0.030910*
1,1,0.014570,0.018110,-0.030910*
1,1,0.014570,-0.018110,-0.030910*
1,1,0.014570,-0.018110,0.030910*
%
%AMM210*
21,1,0.031500,0.030710,-0.000000,-0.000000,180.000000*
21,1,0.022050,0.040160,-0.000000,-0.000000,180.000000*
1,1,0.009450,-0.011020,0.015350*
1,1,0.009450,0.011020,0.015350*
1,1,0.009450,0.011020,-0.015350*
1,1,0.009450,-0.011020,-0.015350*
%
%AMM211*
21,1,0.035430,0.072440,-0.000000,-0.000000,180.000000*
21,1,0.025200,0.082680,-0.000000,-0.000000,180.000000*
1,1,0.010240,-0.012600,0.036220*
1,1,0.010240,0.012600,0.036220*
1,1,0.010240,0.012600,-0.036220*
1,1,0.010240,-0.012600,-0.036220*
%
%AMM212*
21,1,0.141730,0.067720,-0.000000,-0.000000,180.000000*
21,1,0.120870,0.088580,-0.000000,-0.000000,180.000000*
1,1,0.020870,-0.060430,0.033860*
1,1,0.020870,0.060430,0.033860*
1,1,0.020870,0.060430,-0.033860*
1,1,0.020870,-0.060430,-0.033860*
%
%AMM213*
21,1,0.047240,0.075990,-0.000000,-0.000000,180.000000*
21,1,0.034650,0.088580,-0.000000,-0.000000,180.000000*
1,1,0.012600,-0.017320,0.037990*
1,1,0.012600,0.017320,0.037990*
1,1,0.012600,0.017320,-0.037990*
1,1,0.012600,-0.017320,-0.037990*
%
%AMM214*
21,1,0.090550,0.073230,-0.000000,-0.000000,270.000000*
21,1,0.069290,0.094490,-0.000000,-0.000000,270.000000*
1,1,0.021260,-0.036610,-0.034650*
1,1,0.021260,-0.036610,0.034650*
1,1,0.021260,0.036610,0.034650*
1,1,0.021260,0.036610,-0.034650*
%
%AMM22*
21,1,0.038980,0.026770,0.000000,0.000000,0.000000*
21,1,0.026770,0.038980,0.000000,0.000000,0.000000*
1,1,0.012210,0.013390,-0.013390*
1,1,0.012210,-0.013390,-0.013390*
1,1,0.012210,-0.013390,0.013390*
1,1,0.012210,0.013390,0.013390*
%
%AMM23*
21,1,0.021260,0.016540,0.000000,0.000000,270.000000*
21,1,0.012600,0.025200,0.000000,0.000000,270.000000*
1,1,0.008660,-0.008270,-0.006300*
1,1,0.008660,-0.008270,0.006300*
1,1,0.008660,0.008270,0.006300*
1,1,0.008660,0.008270,-0.006300*
%
%AMM24*
21,1,0.029130,0.018900,0.000000,0.000000,90.000000*
21,1,0.018900,0.029130,0.000000,0.000000,90.000000*
1,1,0.010240,0.009450,0.009450*
1,1,0.010240,0.009450,-0.009450*
1,1,0.010240,-0.009450,-0.009450*
1,1,0.010240,-0.009450,0.009450*
%
%AMM25*
21,1,0.025200,0.019680,0.000000,0.000000,0.000000*
21,1,0.015750,0.029130,0.000000,0.000000,0.000000*
1,1,0.009450,0.007870,-0.009840*
1,1,0.009450,-0.007870,-0.009840*
1,1,0.009450,-0.007870,0.009840*
1,1,0.009450,0.007870,0.009840*
%
%AMM252*
21,1,0.040950,0.030320,0.000000,-0.000000,90.000000*
21,1,0.028350,0.042910,0.000000,-0.000000,90.000000*
1,1,0.012600,0.015160,0.014170*
1,1,0.012600,0.015160,-0.014170*
1,1,0.012600,-0.015160,-0.014170*
1,1,0.012600,-0.015160,0.014170*
%
%AMM253*
21,1,0.038980,0.026770,0.000000,-0.000000,270.000000*
21,1,0.026770,0.038980,0.000000,-0.000000,270.000000*
1,1,0.012210,-0.013390,-0.013390*
1,1,0.012210,-0.013390,0.013390*
1,1,0.012210,0.013390,0.013390*
1,1,0.012210,0.013390,-0.013390*
%
%AMM254*
21,1,0.033070,0.030710,0.000000,-0.000000,90.000000*
21,1,0.022050,0.041730,0.000000,-0.000000,90.000000*
1,1,0.011020,0.015350,0.011020*
1,1,0.011020,0.015350,-0.011020*
1,1,0.011020,-0.015350,-0.011020*
1,1,0.011020,-0.015350,0.011020*
%
%AMM26*
21,1,0.025200,0.019680,0.000000,0.000000,270.000000*
21,1,0.015750,0.029130,0.000000,0.000000,270.000000*
1,1,0.009450,-0.009840,-0.007870*
1,1,0.009450,-0.009840,0.007870*
1,1,0.009450,0.009840,0.007870*
1,1,0.009450,0.009840,-0.007870*
%
%ADD11C,0.06693*%
%ADD116M14*%
%ADD117M15*%
%ADD118M16*%
%ADD119M17*%
%ADD120M18*%
%ADD121M19*%
%ADD122M20*%
%ADD123M21*%
%ADD124M22*%
%ADD125M23*%
%ADD126M24*%
%ADD127M25*%
%ADD128M26*%
%ADD129C,0.02913*%
%ADD130C,0.06457*%
%ADD152R,0.02559X0.01575*%
%ADD153R,0.01575X0.02559*%
%ADD156R,0.03543X0.03150*%
%ADD158C,0.05118*%
%ADD160R,0.03150X0.03543*%
%ADD168C,0.03100*%
%ADD171C,0.03900*%
%ADD205O,0.05118X0.01260*%
%ADD206O,0.01260X0.05118*%
%ADD207O,0.04724X0.01575*%
%ADD208C,0.03494*%
%ADD21R,0.06693X0.06693*%
%ADD211R,0.01772X0.01378*%
%ADD212R,0.01378X0.01772*%
%ADD217O,0.09055X0.02756*%
%ADD22O,0.06693X0.06693*%
%ADD224C,0.03543*%
%ADD226C,0.04724*%
%ADD227C,0.04294*%
%ADD23C,0.03150*%
%ADD24C,0.25197*%
%ADD25C,0.06000*%
%ADD26O,0.07283X0.06693*%
%ADD27C,0.02362*%
%ADD271O,0.02520X0.01535*%
%ADD272O,0.01535X0.02520*%
%ADD297M116*%
%ADD306R,0.01181X0.05512*%
%ADD307R,0.08661X0.04724*%
%ADD308R,0.25197X0.22835*%
%ADD309R,0.07874X0.07500*%
%ADD310O,0.07874X0.07500*%
%ADD33R,0.04331X0.04331*%
%ADD34C,0.04331*%
%ADD35O,0.09449X0.04331*%
%ADD38C,0.05906*%
%ADD408M199*%
%ADD409M200*%
%ADD410M201*%
%ADD411M202*%
%ADD412M203*%
%ADD413M204*%
%ADD414M205*%
%ADD415M206*%
%ADD416M207*%
%ADD417M208*%
%ADD418M209*%
%ADD419M210*%
%ADD420M211*%
%ADD421M212*%
%ADD422M213*%
%ADD423M214*%
%ADD452O,0.02913X0.09213*%
%ADD462M252*%
%ADD463M253*%
%ADD464M254*%
%ADD51O,0.00984X0.01969*%
%ADD53O,0.01969X0.00984*%
%ADD54R,0.05118X0.03937*%
%ADD55R,0.07874X0.02559*%
%ADD56R,0.17717X0.31890*%
%ADD69R,0.01181X0.04528*%
%ADD70O,0.03937X0.08268*%
%ADD71O,0.03937X0.06299*%
%ADD72C,0.13000*%
%ADD73R,0.02717X0.05315*%
%ADD78C,0.00472*%
%ADD79C,0.02559*%
X0000000Y0000000D02*
%LPD*%
G01*
D78*
X0390354Y0028503D02*
X0339173Y0028503D01*
X0339173Y0056062D01*
X0390354Y0056062D01*
X0390354Y0028503D01*
G36*
X0390354Y0028503D02*
G01*
X0339173Y0028503D01*
X0339173Y0056062D01*
X0390354Y0056062D01*
X0390354Y0028503D01*
G37*
G36*
G01*
X0380883Y0294119D02*
X0380883Y0299040D01*
G75*
G02*
X0381277Y0299434I0000394J0000000D01*
G01*
X0384427Y0299434D01*
G75*
G02*
X0384820Y0299040I0000000J-000394D01*
G01*
X0384820Y0294119D01*
G75*
G02*
X0384427Y0293725I-000394J0000000D01*
G01*
X0381277Y0293725D01*
G75*
G02*
X0380883Y0294119I0000000J0000394D01*
G01*
G37*
G36*
G01*
X0388364Y0294119D02*
X0388364Y0299040D01*
G75*
G02*
X0388757Y0299434I0000394J0000000D01*
G01*
X0391907Y0299434D01*
G75*
G02*
X0392301Y0299040I0000000J-000394D01*
G01*
X0392301Y0294119D01*
G75*
G02*
X0391907Y0293725I-000394J0000000D01*
G01*
X0388757Y0293725D01*
G75*
G02*
X0388364Y0294119I0000000J0000394D01*
G01*
G37*
G36*
G01*
X0113287Y0295767D02*
X0113287Y0294586D01*
G75*
G02*
X0112697Y0293995I-000591J0000000D01*
G01*
X0106201Y0293995D01*
G75*
G02*
X0105610Y0294586I0000000J0000591D01*
G01*
X0105610Y0295767D01*
G75*
G02*
X0106201Y0296357I0000591J0000000D01*
G01*
X0112697Y0296357D01*
G75*
G02*
X0113287Y0295767I0000000J-000591D01*
G01*
G37*
G36*
G01*
X0113287Y0300767D02*
X0113287Y0299586D01*
G75*
G02*
X0112697Y0298995I-000591J0000000D01*
G01*
X0106201Y0298995D01*
G75*
G02*
X0105610Y0299586I0000000J0000591D01*
G01*
X0105610Y0300767D01*
G75*
G02*
X0106201Y0301357I0000591J0000000D01*
G01*
X0112697Y0301357D01*
G75*
G02*
X0113287Y0300767I0000000J-000591D01*
G01*
G37*
G36*
G01*
X0113287Y0305767D02*
X0113287Y0304586D01*
G75*
G02*
X0112697Y0303995I-000591J0000000D01*
G01*
X0106201Y0303995D01*
G75*
G02*
X0105610Y0304586I0000000J0000591D01*
G01*
X0105610Y0305767D01*
G75*
G02*
X0106201Y0306357I0000591J0000000D01*
G01*
X0112697Y0306357D01*
G75*
G02*
X0113287Y0305767I0000000J-000591D01*
G01*
G37*
G36*
G01*
X0113287Y0310767D02*
X0113287Y0309586D01*
G75*
G02*
X0112697Y0308995I-000591J0000000D01*
G01*
X0106201Y0308995D01*
G75*
G02*
X0105610Y0309586I0000000J0000591D01*
G01*
X0105610Y0310767D01*
G75*
G02*
X0106201Y0311357I0000591J0000000D01*
G01*
X0112697Y0311357D01*
G75*
G02*
X0113287Y0310767I0000000J-000591D01*
G01*
G37*
G36*
G01*
X0093799Y0310767D02*
X0093799Y0309586D01*
G75*
G02*
X0093209Y0308995I-000591J0000000D01*
G01*
X0086713Y0308995D01*
G75*
G02*
X0086122Y0309586I0000000J0000591D01*
G01*
X0086122Y0310767D01*
G75*
G02*
X0086713Y0311357I0000591J0000000D01*
G01*
X0093209Y0311357D01*
G75*
G02*
X0093799Y0310767I0000000J-000591D01*
G01*
G37*
G36*
G01*
X0093799Y0305767D02*
X0093799Y0304586D01*
G75*
G02*
X0093209Y0303995I-000591J0000000D01*
G01*
X0086713Y0303995D01*
G75*
G02*
X0086122Y0304586I0000000J0000591D01*
G01*
X0086122Y0305767D01*
G75*
G02*
X0086713Y0306357I0000591J0000000D01*
G01*
X0093209Y0306357D01*
G75*
G02*
X0093799Y0305767I0000000J-000591D01*
G01*
G37*
G36*
G01*
X0093799Y0300767D02*
X0093799Y0299586D01*
G75*
G02*
X0093209Y0298995I-000591J0000000D01*
G01*
X0086713Y0298995D01*
G75*
G02*
X0086122Y0299586I0000000J0000591D01*
G01*
X0086122Y0300767D01*
G75*
G02*
X0086713Y0301357I0000591J0000000D01*
G01*
X0093209Y0301357D01*
G75*
G02*
X0093799Y0300767I0000000J-000591D01*
G01*
G37*
G36*
G01*
X0093799Y0295767D02*
X0093799Y0294586D01*
G75*
G02*
X0093209Y0293995I-000591J0000000D01*
G01*
X0086713Y0293995D01*
G75*
G02*
X0086122Y0294586I0000000J0000591D01*
G01*
X0086122Y0295767D01*
G75*
G02*
X0086713Y0296357I0000591J0000000D01*
G01*
X0093209Y0296357D01*
G75*
G02*
X0093799Y0295767I0000000J-000591D01*
G01*
G37*
G36*
G01*
X0028583Y0040275D02*
X0031260Y0040275D01*
G75*
G02*
X0031594Y0039940I0000000J-000335D01*
G01*
X0031594Y0037263D01*
G75*
G02*
X0031260Y0036928I-000335J0000000D01*
G01*
X0028583Y0036928D01*
G75*
G02*
X0028248Y0037263I0000000J0000335D01*
G01*
X0028248Y0039940D01*
G75*
G02*
X0028583Y0040275I0000335J0000000D01*
G01*
G37*
G36*
G01*
X0028583Y0034054D02*
X0031260Y0034054D01*
G75*
G02*
X0031594Y0033719I0000000J-000335D01*
G01*
X0031594Y0031042D01*
G75*
G02*
X0031260Y0030708I-000335J0000000D01*
G01*
X0028583Y0030708D01*
G75*
G02*
X0028248Y0031042I0000000J0000335D01*
G01*
X0028248Y0033719D01*
G75*
G02*
X0028583Y0034054I0000335J0000000D01*
G01*
G37*
G36*
G01*
X0380883Y0303961D02*
X0380883Y0308882D01*
G75*
G02*
X0381277Y0309276I0000394J0000000D01*
G01*
X0384427Y0309276D01*
G75*
G02*
X0384820Y0308882I0000000J-000394D01*
G01*
X0384820Y0303961D01*
G75*
G02*
X0384427Y0303567I-000394J0000000D01*
G01*
X0381277Y0303567D01*
G75*
G02*
X0380883Y0303961I0000000J0000394D01*
G01*
G37*
G36*
G01*
X0388364Y0303961D02*
X0388364Y0308882D01*
G75*
G02*
X0388757Y0309276I0000394J0000000D01*
G01*
X0391907Y0309276D01*
G75*
G02*
X0392301Y0308882I0000000J-000394D01*
G01*
X0392301Y0303961D01*
G75*
G02*
X0391907Y0303567I-000394J0000000D01*
G01*
X0388757Y0303567D01*
G75*
G02*
X0388364Y0303961I0000000J0000394D01*
G01*
G37*
G36*
G01*
X0113386Y0155845D02*
X0113386Y0153089D01*
G75*
G02*
X0112402Y0152105I-000984J0000000D01*
G01*
X0105709Y0152105D01*
G75*
G02*
X0104724Y0153089I0000000J0000984D01*
G01*
X0104724Y0155845D01*
G75*
G02*
X0105709Y0156830I0000984J0000000D01*
G01*
X0112402Y0156830D01*
G75*
G02*
X0113386Y0155845I0000000J-000984D01*
G01*
G37*
G36*
G01*
X0096850Y0173877D02*
X0096850Y0153011D01*
G75*
G02*
X0095866Y0152027I-000984J0000000D01*
G01*
X0072638Y0152027D01*
G75*
G02*
X0071654Y0153011I0000000J0000984D01*
G01*
X0071654Y0173877D01*
G75*
G02*
X0072638Y0174861I0000984J0000000D01*
G01*
X0095866Y0174861D01*
G75*
G02*
X0096850Y0173877I0000000J-000984D01*
G01*
G37*
G36*
G01*
X0113386Y0173798D02*
X0113386Y0171042D01*
G75*
G02*
X0112402Y0170058I-000984J0000000D01*
G01*
X0105709Y0170058D01*
G75*
G02*
X0104724Y0171042I0000000J0000984D01*
G01*
X0104724Y0173798D01*
G75*
G02*
X0105709Y0174782I0000984J0000000D01*
G01*
X0112402Y0174782D01*
G75*
G02*
X0113386Y0173798I0000000J-000984D01*
G01*
G37*
D11*
X0327559Y0076042D03*
G36*
G01*
X0113386Y0238523D02*
X0113386Y0235767D01*
G75*
G02*
X0112402Y0234782I-000984J0000000D01*
G01*
X0105709Y0234782D01*
G75*
G02*
X0104724Y0235767I0000000J0000984D01*
G01*
X0104724Y0238523D01*
G75*
G02*
X0105709Y0239507I0000984J0000000D01*
G01*
X0112402Y0239507D01*
G75*
G02*
X0113386Y0238523I0000000J-000984D01*
G01*
G37*
G36*
G01*
X0096850Y0256554D02*
X0096850Y0235688D01*
G75*
G02*
X0095866Y0234704I-000984J0000000D01*
G01*
X0072638Y0234704D01*
G75*
G02*
X0071654Y0235688I0000000J0000984D01*
G01*
X0071654Y0256554D01*
G75*
G02*
X0072638Y0257538I0000984J0000000D01*
G01*
X0095866Y0257538D01*
G75*
G02*
X0096850Y0256554I0000000J-000984D01*
G01*
G37*
G36*
G01*
X0113386Y0256475D02*
X0113386Y0253719D01*
G75*
G02*
X0112402Y0252735I-000984J0000000D01*
G01*
X0105709Y0252735D01*
G75*
G02*
X0104724Y0253719I0000000J0000984D01*
G01*
X0104724Y0256475D01*
G75*
G02*
X0105709Y0257460I0000984J0000000D01*
G01*
X0112402Y0257460D01*
G75*
G02*
X0113386Y0256475I0000000J-000984D01*
G01*
G37*
G36*
G01*
X0113386Y0210964D02*
X0113386Y0208208D01*
G75*
G02*
X0112402Y0207223I-000984J0000000D01*
G01*
X0105709Y0207223D01*
G75*
G02*
X0104724Y0208208I0000000J0000984D01*
G01*
X0104724Y0210964D01*
G75*
G02*
X0105709Y0211948I0000984J0000000D01*
G01*
X0112402Y0211948D01*
G75*
G02*
X0113386Y0210964I0000000J-000984D01*
G01*
G37*
G36*
G01*
X0096850Y0228995D02*
X0096850Y0208129D01*
G75*
G02*
X0095866Y0207145I-000984J0000000D01*
G01*
X0072638Y0207145D01*
G75*
G02*
X0071654Y0208129I0000000J0000984D01*
G01*
X0071654Y0228995D01*
G75*
G02*
X0072638Y0229979I0000984J0000000D01*
G01*
X0095866Y0229979D01*
G75*
G02*
X0096850Y0228995I0000000J-000984D01*
G01*
G37*
G36*
G01*
X0113386Y0228916D02*
X0113386Y0226160D01*
G75*
G02*
X0112402Y0225176I-000984J0000000D01*
G01*
X0105709Y0225176D01*
G75*
G02*
X0104724Y0226160I0000000J0000984D01*
G01*
X0104724Y0228916D01*
G75*
G02*
X0105709Y0229901I0000984J0000000D01*
G01*
X0112402Y0229901D01*
G75*
G02*
X0113386Y0228916I0000000J-000984D01*
G01*
G37*
X0125984Y0226436D03*
G36*
G01*
X0091575Y0026495D02*
X0094252Y0026495D01*
G75*
G02*
X0094587Y0026160I0000000J-000335D01*
G01*
X0094587Y0023483D01*
G75*
G02*
X0094252Y0023149I-000335J0000000D01*
G01*
X0091575Y0023149D01*
G75*
G02*
X0091240Y0023483I0000000J0000335D01*
G01*
X0091240Y0026160D01*
G75*
G02*
X0091575Y0026495I0000335J0000000D01*
G01*
G37*
G36*
G01*
X0091575Y0020275D02*
X0094252Y0020275D01*
G75*
G02*
X0094587Y0019940I0000000J-000335D01*
G01*
X0094587Y0017263D01*
G75*
G02*
X0094252Y0016928I-000335J0000000D01*
G01*
X0091575Y0016928D01*
G75*
G02*
X0091240Y0017263I0000000J0000335D01*
G01*
X0091240Y0019940D01*
G75*
G02*
X0091575Y0020275I0000335J0000000D01*
G01*
G37*
G36*
G01*
X0142057Y0316259D02*
X0142057Y0313188D01*
G75*
G02*
X0141781Y0312912I-000276J0000000D01*
G01*
X0139577Y0312912D01*
G75*
G02*
X0139301Y0313188I0000000J0000276D01*
G01*
X0139301Y0316259D01*
G75*
G02*
X0139577Y0316534I0000276J0000000D01*
G01*
X0141781Y0316534D01*
G75*
G02*
X0142057Y0316259I0000000J-000276D01*
G01*
G37*
G36*
G01*
X0135758Y0316259D02*
X0135758Y0313188D01*
G75*
G02*
X0135482Y0312912I-000276J0000000D01*
G01*
X0133278Y0312912D01*
G75*
G02*
X0133002Y0313188I0000000J0000276D01*
G01*
X0133002Y0316259D01*
G75*
G02*
X0133278Y0316534I0000276J0000000D01*
G01*
X0135482Y0316534D01*
G75*
G02*
X0135758Y0316259I0000000J-000276D01*
G01*
G37*
X0137402Y0226436D03*
D21*
X0420150Y0284979D03*
D22*
X0430150Y0284979D03*
X0420150Y0274979D03*
X0430150Y0274979D03*
X0420150Y0264979D03*
X0430150Y0264979D03*
X0420150Y0254979D03*
X0430150Y0254979D03*
X0420150Y0244979D03*
X0430150Y0244979D03*
X0420150Y0234979D03*
X0430150Y0234979D03*
X0420150Y0224979D03*
X0430150Y0224979D03*
X0420150Y0214979D03*
X0430150Y0214979D03*
X0420150Y0204979D03*
X0430150Y0204979D03*
X0420150Y0194979D03*
X0430150Y0194979D03*
G36*
G01*
X0064508Y0063739D02*
X0067185Y0063739D01*
G75*
G02*
X0067520Y0063404I0000000J-000335D01*
G01*
X0067520Y0060727D01*
G75*
G02*
X0067185Y0060393I-000335J0000000D01*
G01*
X0064508Y0060393D01*
G75*
G02*
X0064173Y0060727I0000000J0000335D01*
G01*
X0064173Y0063404D01*
G75*
G02*
X0064508Y0063739I0000335J0000000D01*
G01*
G37*
G36*
G01*
X0064508Y0057519D02*
X0067185Y0057519D01*
G75*
G02*
X0067520Y0057184I0000000J-000335D01*
G01*
X0067520Y0054507D01*
G75*
G02*
X0067185Y0054172I-000335J0000000D01*
G01*
X0064508Y0054172D01*
G75*
G02*
X0064173Y0054507I0000000J0000335D01*
G01*
X0064173Y0057184D01*
G75*
G02*
X0064508Y0057519I0000335J0000000D01*
G01*
G37*
D11*
X0021811Y0045334D03*
D23*
X0004331Y0379979D03*
X0007098Y0386661D03*
X0007098Y0373298D03*
X0013780Y0389428D03*
D24*
X0013780Y0379979D03*
D23*
X0013780Y0370530D03*
X0020461Y0386661D03*
X0020461Y0373298D03*
X0023228Y0379979D03*
X0370472Y0379979D03*
X0373240Y0386661D03*
X0373240Y0373298D03*
X0379921Y0389428D03*
D24*
X0379921Y0379979D03*
D23*
X0379921Y0370530D03*
X0386603Y0386661D03*
X0386603Y0373298D03*
X0389370Y0379979D03*
D25*
X0072441Y0076633D03*
G36*
G01*
X0068898Y0071338D02*
X0068898Y0074054D01*
G75*
G02*
X0069803Y0074960I0000906J0000000D01*
G01*
X0075079Y0074960D01*
G75*
G02*
X0075984Y0074054I0000000J-000906D01*
G01*
X0075984Y0071338D01*
G75*
G02*
X0075079Y0070432I-000906J0000000D01*
G01*
X0069803Y0070432D01*
G75*
G02*
X0068898Y0071338I0000000J0000906D01*
G01*
G37*
G36*
G01*
X0068898Y0059920D02*
X0068898Y0062637D01*
G75*
G02*
X0069803Y0063542I0000906J0000000D01*
G01*
X0075079Y0063542D01*
G75*
G02*
X0075984Y0062637I0000000J-000906D01*
G01*
X0075984Y0059920D01*
G75*
G02*
X0075079Y0059015I-000906J0000000D01*
G01*
X0069803Y0059015D01*
G75*
G02*
X0068898Y0059920I0000000J0000906D01*
G01*
G37*
X0072441Y0057341D03*
G36*
G01*
X0367301Y0294119D02*
X0367301Y0299040D01*
G75*
G02*
X0367694Y0299434I0000394J0000000D01*
G01*
X0370844Y0299434D01*
G75*
G02*
X0371238Y0299040I0000000J-000394D01*
G01*
X0371238Y0294119D01*
G75*
G02*
X0370844Y0293725I-000394J0000000D01*
G01*
X0367694Y0293725D01*
G75*
G02*
X0367301Y0294119I0000000J0000394D01*
G01*
G37*
G36*
G01*
X0374781Y0294119D02*
X0374781Y0299040D01*
G75*
G02*
X0375175Y0299434I0000394J0000000D01*
G01*
X0378324Y0299434D01*
G75*
G02*
X0378718Y0299040I0000000J-000394D01*
G01*
X0378718Y0294119D01*
G75*
G02*
X0378324Y0293725I-000394J0000000D01*
G01*
X0375175Y0293725D01*
G75*
G02*
X0374781Y0294119I0000000J0000394D01*
G01*
G37*
G36*
G01*
X0004961Y0072952D02*
X0007638Y0072952D01*
G75*
G02*
X0007972Y0072617I0000000J-000335D01*
G01*
X0007972Y0069940D01*
G75*
G02*
X0007638Y0069605I-000335J0000000D01*
G01*
X0004961Y0069605D01*
G75*
G02*
X0004626Y0069940I0000000J0000335D01*
G01*
X0004626Y0072617D01*
G75*
G02*
X0004961Y0072952I0000335J0000000D01*
G01*
G37*
G36*
G01*
X0004961Y0066731D02*
X0007638Y0066731D01*
G75*
G02*
X0007972Y0066397I0000000J-000335D01*
G01*
X0007972Y0063719D01*
G75*
G02*
X0007638Y0063385I-000335J0000000D01*
G01*
X0004961Y0063385D01*
G75*
G02*
X0004626Y0063719I0000000J0000335D01*
G01*
X0004626Y0066397D01*
G75*
G02*
X0004961Y0066731I0000335J0000000D01*
G01*
G37*
G36*
G01*
X0329429Y0008523D02*
X0324114Y0008523D01*
G75*
G02*
X0323130Y0009507I0000000J0000984D01*
G01*
X0323130Y0014231D01*
G75*
G02*
X0324114Y0015215I0000984J0000000D01*
G01*
X0329429Y0015215D01*
G75*
G02*
X0330413Y0014231I0000000J-000984D01*
G01*
X0330413Y0009507D01*
G75*
G02*
X0329429Y0008523I-000984J0000000D01*
G01*
G37*
D26*
X0326772Y0021712D03*
X0326772Y0031554D03*
X0326772Y0041397D03*
X0326772Y0051239D03*
D11*
X0246063Y0029586D03*
D23*
X0004331Y0013838D03*
X0007098Y0020519D03*
X0007098Y0007156D03*
X0013780Y0023286D03*
D24*
X0013780Y0013838D03*
D23*
X0013780Y0004389D03*
X0020461Y0020519D03*
X0020461Y0007156D03*
X0023228Y0013838D03*
D27*
X0193602Y0246810D03*
X0188878Y0246810D03*
X0198327Y0246810D03*
X0203051Y0246810D03*
X0177618Y0303601D03*
X0173681Y0303601D03*
G36*
G01*
X0117126Y0286830D02*
X0117126Y0283759D01*
G75*
G02*
X0116850Y0283483I-000276J0000000D01*
G01*
X0114646Y0283483D01*
G75*
G02*
X0114370Y0283759I0000000J0000276D01*
G01*
X0114370Y0286830D01*
G75*
G02*
X0114646Y0287105I0000276J0000000D01*
G01*
X0116850Y0287105D01*
G75*
G02*
X0117126Y0286830I0000000J-000276D01*
G01*
G37*
G36*
G01*
X0110827Y0286830D02*
X0110827Y0283759D01*
G75*
G02*
X0110551Y0283483I-000276J0000000D01*
G01*
X0108346Y0283483D01*
G75*
G02*
X0108071Y0283759I0000000J0000276D01*
G01*
X0108071Y0286830D01*
G75*
G02*
X0108346Y0287105I0000276J0000000D01*
G01*
X0110551Y0287105D01*
G75*
G02*
X0110827Y0286830I0000000J-000276D01*
G01*
G37*
D11*
X0011811Y0045334D03*
D33*
X0233268Y0012263D03*
D34*
X0226378Y0015412D03*
X0233268Y0018562D03*
X0226378Y0021712D03*
X0233268Y0024861D03*
D35*
X0229823Y0004192D03*
X0229823Y0032932D03*
D25*
X0081102Y0076633D03*
G36*
G01*
X0077559Y0071338D02*
X0077559Y0074054D01*
G75*
G02*
X0078465Y0074960I0000906J0000000D01*
G01*
X0083740Y0074960D01*
G75*
G02*
X0084646Y0074054I0000000J-000906D01*
G01*
X0084646Y0071338D01*
G75*
G02*
X0083740Y0070432I-000906J0000000D01*
G01*
X0078465Y0070432D01*
G75*
G02*
X0077559Y0071338I0000000J0000906D01*
G01*
G37*
G36*
G01*
X0077559Y0059920D02*
X0077559Y0062637D01*
G75*
G02*
X0078465Y0063542I0000906J0000000D01*
G01*
X0083740Y0063542D01*
G75*
G02*
X0084646Y0062637I0000000J-000906D01*
G01*
X0084646Y0059920D01*
G75*
G02*
X0083740Y0059015I-000906J0000000D01*
G01*
X0078465Y0059015D01*
G75*
G02*
X0077559Y0059920I0000000J0000906D01*
G01*
G37*
X0081102Y0057341D03*
D27*
X0313287Y0287952D03*
X0309547Y0287952D03*
X0305807Y0287952D03*
X0309744Y0322204D03*
X0313287Y0322204D03*
G36*
G01*
X0031260Y0016928D02*
X0028583Y0016928D01*
G75*
G02*
X0028248Y0017263I0000000J0000335D01*
G01*
X0028248Y0019940D01*
G75*
G02*
X0028583Y0020275I0000335J0000000D01*
G01*
X0031260Y0020275D01*
G75*
G02*
X0031594Y0019940I0000000J-000335D01*
G01*
X0031594Y0017263D01*
G75*
G02*
X0031260Y0016928I-000335J0000000D01*
G01*
G37*
G36*
G01*
X0031260Y0023149D02*
X0028583Y0023149D01*
G75*
G02*
X0028248Y0023483I0000000J0000335D01*
G01*
X0028248Y0026160D01*
G75*
G02*
X0028583Y0026495I0000335J0000000D01*
G01*
X0031260Y0026495D01*
G75*
G02*
X0031594Y0026160I0000000J-000335D01*
G01*
X0031594Y0023483D01*
G75*
G02*
X0031260Y0023149I-000335J0000000D01*
G01*
G37*
D11*
X0090551Y0043365D03*
D38*
X0160925Y0082046D03*
X0160925Y0056849D03*
X0160925Y0049369D03*
X0160925Y0032440D03*
D27*
X0162697Y0022991D03*
X0162697Y0019054D03*
D38*
X0160925Y0007834D03*
X0099902Y0083818D03*
X0099902Y0076534D03*
X0099902Y0057046D03*
X0099902Y0009605D03*
D21*
X0340350Y0311479D03*
D22*
X0350350Y0311479D03*
X0340350Y0301479D03*
X0350350Y0301479D03*
X0340350Y0291479D03*
X0350350Y0291479D03*
G36*
G01*
X0113386Y0100727D02*
X0113386Y0097971D01*
G75*
G02*
X0112402Y0096987I-000984J0000000D01*
G01*
X0105709Y0096987D01*
G75*
G02*
X0104724Y0097971I0000000J0000984D01*
G01*
X0104724Y0100727D01*
G75*
G02*
X0105709Y0101712I0000984J0000000D01*
G01*
X0112402Y0101712D01*
G75*
G02*
X0113386Y0100727I0000000J-000984D01*
G01*
G37*
G36*
G01*
X0096850Y0118759D02*
X0096850Y0097893D01*
G75*
G02*
X0095866Y0096908I-000984J0000000D01*
G01*
X0072638Y0096908D01*
G75*
G02*
X0071654Y0097893I0000000J0000984D01*
G01*
X0071654Y0118759D01*
G75*
G02*
X0072638Y0119743I0000984J0000000D01*
G01*
X0095866Y0119743D01*
G75*
G02*
X0096850Y0118759I0000000J-000984D01*
G01*
G37*
G36*
G01*
X0113386Y0118680D02*
X0113386Y0115924D01*
G75*
G02*
X0112402Y0114940I-000984J0000000D01*
G01*
X0105709Y0114940D01*
G75*
G02*
X0104724Y0115924I0000000J0000984D01*
G01*
X0104724Y0118680D01*
G75*
G02*
X0105709Y0119664I0000984J0000000D01*
G01*
X0112402Y0119664D01*
G75*
G02*
X0113386Y0118680I0000000J-000984D01*
G01*
G37*
D51*
X0121654Y0172007D03*
D53*
X0121850Y0212755D03*
X0121850Y0210786D03*
D27*
X0125984Y0184999D03*
X0128051Y0188444D03*
X0131004Y0183818D03*
X0144980Y0184113D03*
G36*
G01*
X0064311Y0075294D02*
X0067382Y0075294D01*
G75*
G02*
X0067657Y0075019I0000000J-000276D01*
G01*
X0067657Y0072814D01*
G75*
G02*
X0067382Y0072538I-000276J0000000D01*
G01*
X0064311Y0072538D01*
G75*
G02*
X0064035Y0072814I0000000J0000276D01*
G01*
X0064035Y0075019D01*
G75*
G02*
X0064311Y0075294I0000276J0000000D01*
G01*
G37*
G36*
G01*
X0064311Y0068995D02*
X0067382Y0068995D01*
G75*
G02*
X0067657Y0068719I0000000J-000276D01*
G01*
X0067657Y0066515D01*
G75*
G02*
X0067382Y0066239I-000276J0000000D01*
G01*
X0064311Y0066239D01*
G75*
G02*
X0064035Y0066515I0000000J0000276D01*
G01*
X0064035Y0068719D01*
G75*
G02*
X0064311Y0068995I0000276J0000000D01*
G01*
G37*
G36*
G01*
X0113386Y0183404D02*
X0113386Y0180649D01*
G75*
G02*
X0112402Y0179664I-000984J0000000D01*
G01*
X0105709Y0179664D01*
G75*
G02*
X0104724Y0180649I0000000J0000984D01*
G01*
X0104724Y0183404D01*
G75*
G02*
X0105709Y0184389I0000984J0000000D01*
G01*
X0112402Y0184389D01*
G75*
G02*
X0113386Y0183404I0000000J-000984D01*
G01*
G37*
G36*
G01*
X0096850Y0201436D02*
X0096850Y0180570D01*
G75*
G02*
X0095866Y0179586I-000984J0000000D01*
G01*
X0072638Y0179586D01*
G75*
G02*
X0071654Y0180570I0000000J0000984D01*
G01*
X0071654Y0201436D01*
G75*
G02*
X0072638Y0202420I0000984J0000000D01*
G01*
X0095866Y0202420D01*
G75*
G02*
X0096850Y0201436I0000000J-000984D01*
G01*
G37*
G36*
G01*
X0113386Y0201357D02*
X0113386Y0198601D01*
G75*
G02*
X0112402Y0197617I-000984J0000000D01*
G01*
X0105709Y0197617D01*
G75*
G02*
X0104724Y0198601I0000000J0000984D01*
G01*
X0104724Y0201357D01*
G75*
G02*
X0105709Y0202341I0000984J0000000D01*
G01*
X0112402Y0202341D01*
G75*
G02*
X0113386Y0201357I0000000J-000984D01*
G01*
G37*
D54*
X0389764Y0058326D03*
X0389764Y0064231D03*
X0389764Y0070137D03*
X0389764Y0076042D03*
X0389764Y0081948D03*
X0389764Y0087853D03*
X0389764Y0093759D03*
X0389764Y0099664D03*
X0389764Y0105570D03*
X0389764Y0111475D03*
X0389764Y0117381D03*
X0389764Y0123286D03*
X0389764Y0129192D03*
X0339764Y0129192D03*
X0339764Y0123286D03*
X0339764Y0117381D03*
X0339764Y0111475D03*
X0339764Y0105570D03*
X0339764Y0099664D03*
X0339764Y0093759D03*
X0339764Y0087853D03*
X0339764Y0081948D03*
X0339764Y0076042D03*
X0339764Y0070137D03*
X0339764Y0064231D03*
X0339764Y0058326D03*
G36*
G01*
X0367301Y0313804D02*
X0367301Y0318725D01*
G75*
G02*
X0367694Y0319119I0000394J0000000D01*
G01*
X0370844Y0319119D01*
G75*
G02*
X0371238Y0318725I0000000J-000394D01*
G01*
X0371238Y0313804D01*
G75*
G02*
X0370844Y0313410I-000394J0000000D01*
G01*
X0367694Y0313410D01*
G75*
G02*
X0367301Y0313804I0000000J0000394D01*
G01*
G37*
G36*
G01*
X0374781Y0313804D02*
X0374781Y0318725D01*
G75*
G02*
X0375175Y0319119I0000394J0000000D01*
G01*
X0378324Y0319119D01*
G75*
G02*
X0378718Y0318725I0000000J-000394D01*
G01*
X0378718Y0313804D01*
G75*
G02*
X0378324Y0313410I-000394J0000000D01*
G01*
X0375175Y0313410D01*
G75*
G02*
X0374781Y0313804I0000000J0000394D01*
G01*
G37*
D25*
X0089764Y0076633D03*
G36*
G01*
X0086220Y0071338D02*
X0086220Y0074054D01*
G75*
G02*
X0087126Y0074960I0000906J0000000D01*
G01*
X0092402Y0074960D01*
G75*
G02*
X0093307Y0074054I0000000J-000906D01*
G01*
X0093307Y0071338D01*
G75*
G02*
X0092402Y0070432I-000906J0000000D01*
G01*
X0087126Y0070432D01*
G75*
G02*
X0086220Y0071338I0000000J0000906D01*
G01*
G37*
G36*
G01*
X0086220Y0059920D02*
X0086220Y0062637D01*
G75*
G02*
X0087126Y0063542I0000906J0000000D01*
G01*
X0092402Y0063542D01*
G75*
G02*
X0093307Y0062637I0000000J-000906D01*
G01*
X0093307Y0059920D01*
G75*
G02*
X0092402Y0059015I-000906J0000000D01*
G01*
X0087126Y0059015D01*
G75*
G02*
X0086220Y0059920I0000000J0000906D01*
G01*
G37*
X0089764Y0057341D03*
D11*
X0155512Y0196751D03*
X0155512Y0206751D03*
X0155512Y0216751D03*
X0155512Y0226751D03*
X0155512Y0236751D03*
X0165512Y0196751D03*
X0165512Y0206751D03*
X0165512Y0216751D03*
X0165512Y0226751D03*
X0165512Y0236751D03*
X0175512Y0196751D03*
X0175512Y0206751D03*
X0175512Y0216751D03*
X0175512Y0226751D03*
X0175512Y0236751D03*
X0246063Y0009901D03*
D25*
X0171160Y0025549D03*
G36*
G01*
X0168699Y0023757D02*
X0173621Y0023757D01*
G75*
G02*
X0174014Y0023364I0000000J-000394D01*
G01*
X0174014Y0020214D01*
G75*
G02*
X0173621Y0019820I-000394J0000000D01*
G01*
X0168699Y0019820D01*
G75*
G02*
X0168306Y0020214I0000000J0000394D01*
G01*
X0168306Y0023364D01*
G75*
G02*
X0168699Y0023757I0000394J0000000D01*
G01*
G37*
G36*
G01*
X0168699Y0016277D02*
X0173621Y0016277D01*
G75*
G02*
X0174014Y0015883I0000000J-000394D01*
G01*
X0174014Y0012734D01*
G75*
G02*
X0173621Y0012340I-000394J0000000D01*
G01*
X0168699Y0012340D01*
G75*
G02*
X0168306Y0012734I0000000J0000394D01*
G01*
X0168306Y0015883D01*
G75*
G02*
X0168699Y0016277I0000394J0000000D01*
G01*
G37*
X0171160Y0010549D03*
G36*
G01*
X0117362Y0313050D02*
X0120433Y0313050D01*
G75*
G02*
X0120709Y0312775I0000000J-000276D01*
G01*
X0120709Y0310570D01*
G75*
G02*
X0120433Y0310294I-000276J0000000D01*
G01*
X0117362Y0310294D01*
G75*
G02*
X0117087Y0310570I0000000J0000276D01*
G01*
X0117087Y0312775D01*
G75*
G02*
X0117362Y0313050I0000276J0000000D01*
G01*
G37*
G36*
G01*
X0117362Y0306751D02*
X0120433Y0306751D01*
G75*
G02*
X0120709Y0306475I0000000J-000276D01*
G01*
X0120709Y0304271D01*
G75*
G02*
X0120433Y0303995I-000276J0000000D01*
G01*
X0117362Y0303995D01*
G75*
G02*
X0117087Y0304271I0000000J0000276D01*
G01*
X0117087Y0306475D01*
G75*
G02*
X0117362Y0306751I0000276J0000000D01*
G01*
G37*
G36*
G01*
X0076811Y0292971D02*
X0072795Y0292971D01*
G75*
G02*
X0072441Y0293326I0000000J0000354D01*
G01*
X0072441Y0296160D01*
G75*
G02*
X0072795Y0296515I0000354J0000000D01*
G01*
X0076811Y0296515D01*
G75*
G02*
X0077165Y0296160I0000000J-000354D01*
G01*
X0077165Y0293326D01*
G75*
G02*
X0076811Y0292971I-000354J0000000D01*
G01*
G37*
G36*
G01*
X0076811Y0305964D02*
X0072795Y0305964D01*
G75*
G02*
X0072441Y0306318I0000000J0000354D01*
G01*
X0072441Y0309152D01*
G75*
G02*
X0072795Y0309507I0000354J0000000D01*
G01*
X0076811Y0309507D01*
G75*
G02*
X0077165Y0309152I0000000J-000354D01*
G01*
X0077165Y0306318D01*
G75*
G02*
X0076811Y0305964I-000354J0000000D01*
G01*
G37*
G36*
G01*
X0380883Y0313804D02*
X0380883Y0318725D01*
G75*
G02*
X0381277Y0319119I0000394J0000000D01*
G01*
X0384427Y0319119D01*
G75*
G02*
X0384820Y0318725I0000000J-000394D01*
G01*
X0384820Y0313804D01*
G75*
G02*
X0384427Y0313410I-000394J0000000D01*
G01*
X0381277Y0313410D01*
G75*
G02*
X0380883Y0313804I0000000J0000394D01*
G01*
G37*
G36*
G01*
X0388364Y0313804D02*
X0388364Y0318725D01*
G75*
G02*
X0388757Y0319119I0000394J0000000D01*
G01*
X0391907Y0319119D01*
G75*
G02*
X0392301Y0318725I0000000J-000394D01*
G01*
X0392301Y0313804D01*
G75*
G02*
X0391907Y0313410I-000394J0000000D01*
G01*
X0388757Y0313410D01*
G75*
G02*
X0388364Y0313804I0000000J0000394D01*
G01*
G37*
G36*
G01*
X0367301Y0303961D02*
X0367301Y0308882D01*
G75*
G02*
X0367694Y0309276I0000394J0000000D01*
G01*
X0370844Y0309276D01*
G75*
G02*
X0371238Y0308882I0000000J-000394D01*
G01*
X0371238Y0303961D01*
G75*
G02*
X0370844Y0303567I-000394J0000000D01*
G01*
X0367694Y0303567D01*
G75*
G02*
X0367301Y0303961I0000000J0000394D01*
G01*
G37*
G36*
G01*
X0374781Y0303961D02*
X0374781Y0308882D01*
G75*
G02*
X0375175Y0309276I0000394J0000000D01*
G01*
X0378324Y0309276D01*
G75*
G02*
X0378718Y0308882I0000000J-000394D01*
G01*
X0378718Y0303961D01*
G75*
G02*
X0378324Y0303567I-000394J0000000D01*
G01*
X0375175Y0303567D01*
G75*
G02*
X0374781Y0303961I0000000J0000394D01*
G01*
G37*
D55*
X0016535Y0078798D03*
X0016535Y0074861D03*
X0016535Y0070924D03*
X0016535Y0066987D03*
X0016535Y0063050D03*
X0016535Y0059113D03*
X0054331Y0059113D03*
X0054331Y0063050D03*
X0054331Y0066987D03*
X0054331Y0070924D03*
X0054331Y0074861D03*
X0054331Y0078798D03*
D56*
X0035433Y0068956D03*
D21*
X0050650Y0119979D03*
D22*
X0040650Y0119979D03*
X0050650Y0129979D03*
X0040650Y0129979D03*
X0050650Y0139979D03*
X0040650Y0139979D03*
X0050650Y0149979D03*
X0040650Y0149979D03*
D55*
X0042618Y0041554D03*
X0042618Y0037617D03*
X0042618Y0033680D03*
X0042618Y0029743D03*
X0042618Y0025806D03*
X0042618Y0021869D03*
X0080413Y0021869D03*
X0080413Y0025806D03*
X0080413Y0029743D03*
X0080413Y0033680D03*
X0080413Y0037617D03*
X0080413Y0041554D03*
D56*
X0061516Y0031712D03*
D11*
X0327559Y0094546D03*
D21*
X0050650Y0194979D03*
D22*
X0040650Y0194979D03*
X0050650Y0204979D03*
X0040650Y0204979D03*
X0050650Y0214979D03*
X0040650Y0214979D03*
X0050650Y0224979D03*
X0040650Y0224979D03*
X0050650Y0234979D03*
X0040650Y0234979D03*
X0050650Y0244979D03*
X0040650Y0244979D03*
X0050650Y0254979D03*
X0040650Y0254979D03*
X0050650Y0264979D03*
X0040650Y0264979D03*
X0050650Y0274979D03*
X0040650Y0274979D03*
G36*
G01*
X0113386Y0128286D02*
X0113386Y0125530D01*
G75*
G02*
X0112402Y0124546I-000984J0000000D01*
G01*
X0105709Y0124546D01*
G75*
G02*
X0104724Y0125530I0000000J0000984D01*
G01*
X0104724Y0128286D01*
G75*
G02*
X0105709Y0129271I0000984J0000000D01*
G01*
X0112402Y0129271D01*
G75*
G02*
X0113386Y0128286I0000000J-000984D01*
G01*
G37*
G36*
G01*
X0096850Y0146318D02*
X0096850Y0125452D01*
G75*
G02*
X0095866Y0124467I-000984J0000000D01*
G01*
X0072638Y0124467D01*
G75*
G02*
X0071654Y0125452I0000000J0000984D01*
G01*
X0071654Y0146318D01*
G75*
G02*
X0072638Y0147302I0000984J0000000D01*
G01*
X0095866Y0147302D01*
G75*
G02*
X0096850Y0146318I0000000J-000984D01*
G01*
G37*
G36*
G01*
X0113386Y0146239D02*
X0113386Y0143483D01*
G75*
G02*
X0112402Y0142499I-000984J0000000D01*
G01*
X0105709Y0142499D01*
G75*
G02*
X0104724Y0143483I0000000J0000984D01*
G01*
X0104724Y0146239D01*
G75*
G02*
X0105709Y0147223I0000984J0000000D01*
G01*
X0112402Y0147223D01*
G75*
G02*
X0113386Y0146239I0000000J-000984D01*
G01*
G37*
D79*
X0185472Y0026062D03*
X0208228Y0026062D03*
D69*
X0183661Y0030255D03*
X0186811Y0030255D03*
X0191929Y0030255D03*
X0195866Y0030255D03*
X0197835Y0030255D03*
X0201772Y0030255D03*
X0206890Y0030255D03*
X0210039Y0030255D03*
X0208858Y0030255D03*
X0205709Y0030255D03*
X0203740Y0030255D03*
X0199803Y0030255D03*
X0193898Y0030255D03*
X0189961Y0030255D03*
X0187992Y0030255D03*
X0184843Y0030255D03*
D70*
X0179843Y0028030D03*
D71*
X0179843Y0011574D03*
D70*
X0213858Y0028030D03*
D71*
X0213858Y0011574D03*
D21*
X0420150Y0149979D03*
D22*
X0430150Y0149979D03*
X0420150Y0139979D03*
X0430150Y0139979D03*
X0420150Y0129979D03*
X0430150Y0129979D03*
X0420150Y0119979D03*
X0430150Y0119979D03*
X0420150Y0109979D03*
X0430150Y0109979D03*
X0420150Y0099979D03*
X0430150Y0099979D03*
X0420150Y0089979D03*
X0430150Y0089979D03*
X0420150Y0079979D03*
X0430150Y0079979D03*
D23*
X0370472Y0013838D03*
X0373240Y0020519D03*
X0373240Y0007156D03*
X0379921Y0023286D03*
D24*
X0379921Y0013838D03*
D23*
X0379921Y0004389D03*
X0386603Y0020519D03*
X0386603Y0007156D03*
X0389370Y0013838D03*
D27*
X0150098Y0246810D03*
X0145374Y0246810D03*
X0154823Y0246810D03*
X0159547Y0246810D03*
X0134114Y0303601D03*
X0130177Y0303601D03*
D25*
X0073031Y0089034D03*
G36*
G01*
X0078327Y0085491D02*
X0075610Y0085491D01*
G75*
G02*
X0074705Y0086397I0000000J0000906D01*
G01*
X0074705Y0091672D01*
G75*
G02*
X0075610Y0092578I0000906J0000000D01*
G01*
X0078327Y0092578D01*
G75*
G02*
X0079232Y0091672I0000000J-000906D01*
G01*
X0079232Y0086397D01*
G75*
G02*
X0078327Y0085491I-000906J0000000D01*
G01*
G37*
G36*
G01*
X0089744Y0085491D02*
X0087028Y0085491D01*
G75*
G02*
X0086122Y0086397I0000000J0000906D01*
G01*
X0086122Y0091672D01*
G75*
G02*
X0087028Y0092578I0000906J0000000D01*
G01*
X0089744Y0092578D01*
G75*
G02*
X0090650Y0091672I0000000J-000906D01*
G01*
X0090650Y0086397D01*
G75*
G02*
X0089744Y0085491I-000906J0000000D01*
G01*
G37*
X0092323Y0089034D03*
G36*
G01*
X0076811Y0263444D02*
X0072795Y0263444D01*
G75*
G02*
X0072441Y0263798I0000000J0000354D01*
G01*
X0072441Y0266633D01*
G75*
G02*
X0072795Y0266987I0000354J0000000D01*
G01*
X0076811Y0266987D01*
G75*
G02*
X0077165Y0266633I0000000J-000354D01*
G01*
X0077165Y0263798D01*
G75*
G02*
X0076811Y0263444I-000354J0000000D01*
G01*
G37*
G36*
G01*
X0076811Y0276436D02*
X0072795Y0276436D01*
G75*
G02*
X0072441Y0276790I0000000J0000354D01*
G01*
X0072441Y0279625D01*
G75*
G02*
X0072795Y0279979I0000354J0000000D01*
G01*
X0076811Y0279979D01*
G75*
G02*
X0077165Y0279625I0000000J-000354D01*
G01*
X0077165Y0276790D01*
G75*
G02*
X0076811Y0276436I-000354J0000000D01*
G01*
G37*
D21*
X0386417Y0149271D03*
D22*
X0376417Y0149271D03*
X0366417Y0149271D03*
X0356417Y0149271D03*
X0346417Y0149271D03*
X0336417Y0149271D03*
G36*
G01*
X0091378Y0037656D02*
X0094449Y0037656D01*
G75*
G02*
X0094724Y0037381I0000000J-000276D01*
G01*
X0094724Y0035176D01*
G75*
G02*
X0094449Y0034901I-000276J0000000D01*
G01*
X0091378Y0034901D01*
G75*
G02*
X0091102Y0035176I0000000J0000276D01*
G01*
X0091102Y0037381D01*
G75*
G02*
X0091378Y0037656I0000276J0000000D01*
G01*
G37*
G36*
G01*
X0091378Y0031357D02*
X0094449Y0031357D01*
G75*
G02*
X0094724Y0031082I0000000J-000276D01*
G01*
X0094724Y0028877D01*
G75*
G02*
X0094449Y0028601I-000276J0000000D01*
G01*
X0091378Y0028601D01*
G75*
G02*
X0091102Y0028877I0000000J0000276D01*
G01*
X0091102Y0031082D01*
G75*
G02*
X0091378Y0031357I0000276J0000000D01*
G01*
G37*
D72*
X0284265Y0297027D03*
X0284265Y0207027D03*
D73*
X0276863Y0271485D03*
X0276863Y0232735D03*
X0271863Y0232735D03*
X0266863Y0232735D03*
X0261863Y0232735D03*
D25*
X0234265Y0277027D03*
D73*
X0261863Y0271485D03*
X0266863Y0271485D03*
D25*
X0234265Y0267027D03*
D73*
X0271863Y0271485D03*
D25*
X0234265Y0257027D03*
X0234265Y0247027D03*
X0234265Y0237027D03*
X0234265Y0227027D03*
D11*
X0031811Y0045334D03*
G36*
G01*
X0007638Y0051180D02*
X0004961Y0051180D01*
G75*
G02*
X0004626Y0051515I0000000J0000335D01*
G01*
X0004626Y0054192D01*
G75*
G02*
X0004961Y0054527I0000335J0000000D01*
G01*
X0007638Y0054527D01*
G75*
G02*
X0007972Y0054192I0000000J-000335D01*
G01*
X0007972Y0051515D01*
G75*
G02*
X0007638Y0051180I-000335J0000000D01*
G01*
G37*
G36*
G01*
X0007638Y0057401D02*
X0004961Y0057401D01*
G75*
G02*
X0004626Y0057735I0000000J0000335D01*
G01*
X0004626Y0060412D01*
G75*
G02*
X0004961Y0060747I0000335J0000000D01*
G01*
X0007638Y0060747D01*
G75*
G02*
X0007972Y0060412I0000000J-000335D01*
G01*
X0007972Y0057735D01*
G75*
G02*
X0007638Y0057401I-000335J0000000D01*
G01*
G37*
X0185512Y0196751D03*
X0185512Y0206751D03*
X0185512Y0216751D03*
X0185512Y0226751D03*
X0185512Y0236751D03*
X0195512Y0196751D03*
X0195512Y0206751D03*
X0195512Y0216751D03*
X0195512Y0226751D03*
X0195512Y0236751D03*
X0205512Y0196751D03*
X0205512Y0206751D03*
X0205512Y0216751D03*
X0205512Y0226751D03*
X0205512Y0236751D03*
D38*
X0362205Y0085098D03*
X0362205Y0114625D03*
X0096949Y0004823D02*
G01*
G75*
D116*
X0142028Y0029190D02*
D03*
X0142028Y0011473D02*
D03*
D117*
X0138701Y0053642D02*
D03*
X0111339Y0053642D02*
D03*
D118*
X0127461Y0030414D02*
D03*
X0111319Y0030414D02*
D03*
D119*
X0129232Y0012303D02*
D03*
X0113484Y0012303D02*
D03*
D120*
X0106293Y0074081D02*
D03*
X0115545Y0070341D02*
D03*
D120*
X0115545Y0077821D02*
D03*
D121*
X0138380Y0083760D02*
D03*
D121*
X0138380Y0080020D02*
D03*
X0138380Y0076280D02*
D03*
X0146844Y0076280D02*
D03*
X0146844Y0083760D02*
D03*
D122*
X0150696Y0069759D02*
D03*
X0137704Y0069759D02*
D03*
D123*
X0132410Y0070047D02*
D03*
X0120992Y0070047D02*
D03*
D124*
X0151595Y0037500D02*
D03*
X0145374Y0037500D02*
D03*
X0141004Y0037500D02*
D03*
X0134784Y0037500D02*
D03*
D125*
X0100918Y0014611D02*
D03*
X0100918Y0018745D02*
D03*
X0151473Y0056485D02*
D03*
X0151473Y0060619D02*
D03*
X0151473Y0051772D02*
D03*
X0151473Y0047638D02*
D03*
X0152365Y0032123D02*
D03*
X0152365Y0027989D02*
D03*
D126*
X0133262Y0076330D02*
D03*
X0133262Y0080267D02*
D03*
X0119587Y0077232D02*
D03*
X0128248Y0077232D02*
D03*
X0119587Y0083629D02*
D03*
X0128248Y0083629D02*
D03*
D127*
X0111214Y0083760D02*
D03*
X0114758Y0083760D02*
D03*
D128*
X0147215Y0060422D02*
D03*
X0147215Y0056878D02*
D03*
X0147215Y0051378D02*
D03*
X0147215Y0047835D02*
D03*
X0152365Y0019822D02*
D03*
X0152365Y0023366D02*
D03*
D129*
X0162697Y0022933D02*
D03*
X0162697Y0018996D02*
D03*
D130*
X0099902Y0076476D02*
D03*
X0099902Y0009547D02*
D03*
X0099902Y0056988D02*
D03*
X0160925Y0056791D02*
D03*
X0160925Y0081988D02*
D03*
X0160925Y0032382D02*
D03*
X0160925Y0049311D02*
D03*
X0160925Y0007776D02*
D03*
X0099902Y0083760D02*
D03*
X0303051Y0323327D02*
G01*
G75*
D297*
X0313275Y0308622D02*
D03*
X0305795Y0308622D02*
D03*
X0305795Y0317087D02*
D03*
X0309535Y0317087D02*
D03*
X0313275Y0292973D02*
D03*
X0305795Y0292973D02*
D03*
X0305795Y0301437D02*
D03*
X0309535Y0301437D02*
D03*
D297*
X0313275Y0317087D02*
D03*
X0313275Y0301437D02*
D03*
D129*
X0313287Y0287894D02*
D03*
X0309547Y0287894D02*
D03*
X0305807Y0287894D02*
D03*
X0309744Y0322146D02*
D03*
X0313287Y0322146D02*
D03*
X0166437Y0305020D02*
%LPD*%
G01*
D27*
X0193602Y0246752D03*
X0188878Y0246752D03*
X0198327Y0246752D03*
X0203051Y0246752D03*
X0177618Y0303544D03*
X0173681Y0303544D03*
G36*
G01*
X0184055Y0287579D02*
X0185512Y0287579D01*
G75*
G02*
X0186043Y0287048I0000000J-000531D01*
G01*
X0186043Y0285985D01*
G75*
G02*
X0185512Y0285453I-000531J0000000D01*
G01*
X0184055Y0285453D01*
G75*
G02*
X0183524Y0285985I0000000J0000531D01*
G01*
X0183524Y0287048D01*
G75*
G02*
X0184055Y0287579I0000531J0000000D01*
G01*
G37*
G36*
G01*
X0184055Y0291595D02*
X0185512Y0291595D01*
G75*
G02*
X0186043Y0291063I0000000J-000531D01*
G01*
X0186043Y0290000D01*
G75*
G02*
X0185512Y0289469I-000531J0000000D01*
G01*
X0184055Y0289469D01*
G75*
G02*
X0183524Y0290000I0000000J0000531D01*
G01*
X0183524Y0291063D01*
G75*
G02*
X0184055Y0291595I0000531J0000000D01*
G01*
G37*
G36*
G01*
X0168366Y0264331D02*
X0168366Y0265788D01*
G75*
G02*
X0168898Y0266319I0000531J0000000D01*
G01*
X0169961Y0266319D01*
G75*
G02*
X0170492Y0265788I0000000J-000531D01*
G01*
X0170492Y0264331D01*
G75*
G02*
X0169961Y0263800I-000531J0000000D01*
G01*
X0168898Y0263800D01*
G75*
G02*
X0168366Y0264331I0000000J0000531D01*
G01*
G37*
G36*
G01*
X0172382Y0264331D02*
X0172382Y0265788D01*
G75*
G02*
X0172913Y0266319I0000531J0000000D01*
G01*
X0173976Y0266319D01*
G75*
G02*
X0174508Y0265788I0000000J-000531D01*
G01*
X0174508Y0264331D01*
G75*
G02*
X0173976Y0263800I-000531J0000000D01*
G01*
X0172913Y0263800D01*
G75*
G02*
X0172382Y0264331I0000000J0000531D01*
G01*
G37*
G36*
G01*
X0200709Y0275303D02*
X0201890Y0275303D01*
G75*
G02*
X0202480Y0274713I0000000J-000591D01*
G01*
X0202480Y0268217D01*
G75*
G02*
X0201890Y0267626I-000591J0000000D01*
G01*
X0200709Y0267626D01*
G75*
G02*
X0200118Y0268217I0000000J0000591D01*
G01*
X0200118Y0274713D01*
G75*
G02*
X0200709Y0275303I0000591J0000000D01*
G01*
G37*
G36*
G01*
X0195709Y0275303D02*
X0196890Y0275303D01*
G75*
G02*
X0197480Y0274713I0000000J-000591D01*
G01*
X0197480Y0268217D01*
G75*
G02*
X0196890Y0267626I-000591J0000000D01*
G01*
X0195709Y0267626D01*
G75*
G02*
X0195118Y0268217I0000000J0000591D01*
G01*
X0195118Y0274713D01*
G75*
G02*
X0195709Y0275303I0000591J0000000D01*
G01*
G37*
G36*
G01*
X0190709Y0275303D02*
X0191890Y0275303D01*
G75*
G02*
X0192480Y0274713I0000000J-000591D01*
G01*
X0192480Y0268217D01*
G75*
G02*
X0191890Y0267626I-000591J0000000D01*
G01*
X0190709Y0267626D01*
G75*
G02*
X0190118Y0268217I0000000J0000591D01*
G01*
X0190118Y0274713D01*
G75*
G02*
X0190709Y0275303I0000591J0000000D01*
G01*
G37*
G36*
G01*
X0185709Y0275303D02*
X0186890Y0275303D01*
G75*
G02*
X0187480Y0274713I0000000J-000591D01*
G01*
X0187480Y0268217D01*
G75*
G02*
X0186890Y0267626I-000591J0000000D01*
G01*
X0185709Y0267626D01*
G75*
G02*
X0185118Y0268217I0000000J0000591D01*
G01*
X0185118Y0274713D01*
G75*
G02*
X0185709Y0275303I0000591J0000000D01*
G01*
G37*
G36*
G01*
X0185709Y0255815D02*
X0186890Y0255815D01*
G75*
G02*
X0187480Y0255225I0000000J-000591D01*
G01*
X0187480Y0248729D01*
G75*
G02*
X0186890Y0248138I-000591J0000000D01*
G01*
X0185709Y0248138D01*
G75*
G02*
X0185118Y0248729I0000000J0000591D01*
G01*
X0185118Y0255225D01*
G75*
G02*
X0185709Y0255815I0000591J0000000D01*
G01*
G37*
G36*
G01*
X0190709Y0255815D02*
X0191890Y0255815D01*
G75*
G02*
X0192480Y0255225I0000000J-000591D01*
G01*
X0192480Y0248729D01*
G75*
G02*
X0191890Y0248138I-000591J0000000D01*
G01*
X0190709Y0248138D01*
G75*
G02*
X0190118Y0248729I0000000J0000591D01*
G01*
X0190118Y0255225D01*
G75*
G02*
X0190709Y0255815I0000591J0000000D01*
G01*
G37*
G36*
G01*
X0195709Y0255815D02*
X0196890Y0255815D01*
G75*
G02*
X0197480Y0255225I0000000J-000591D01*
G01*
X0197480Y0248729D01*
G75*
G02*
X0196890Y0248138I-000591J0000000D01*
G01*
X0195709Y0248138D01*
G75*
G02*
X0195118Y0248729I0000000J0000591D01*
G01*
X0195118Y0255225D01*
G75*
G02*
X0195709Y0255815I0000591J0000000D01*
G01*
G37*
G36*
G01*
X0200709Y0255815D02*
X0201890Y0255815D01*
G75*
G02*
X0202480Y0255225I0000000J-000591D01*
G01*
X0202480Y0248729D01*
G75*
G02*
X0201890Y0248138I-000591J0000000D01*
G01*
X0200709Y0248138D01*
G75*
G02*
X0200118Y0248729I0000000J0000591D01*
G01*
X0200118Y0255225D01*
G75*
G02*
X0200709Y0255815I0000591J0000000D01*
G01*
G37*
D153*
X0201437Y0289823D03*
X0198878Y0289823D03*
X0196319Y0289823D03*
X0196319Y0282343D03*
X0198878Y0282343D03*
X0201437Y0282343D03*
G36*
G01*
X0182349Y0273662D02*
X0182349Y0272205D01*
G75*
G02*
X0181817Y0271674I-000531J0000000D01*
G01*
X0180754Y0271674D01*
G75*
G02*
X0180223Y0272205I0000000J0000531D01*
G01*
X0180223Y0273662D01*
G75*
G02*
X0180754Y0274193I0000531J0000000D01*
G01*
X0181817Y0274193D01*
G75*
G02*
X0182349Y0273662I0000000J-000531D01*
G01*
G37*
G36*
G01*
X0178333Y0273662D02*
X0178333Y0272205D01*
G75*
G02*
X0177802Y0271674I-000531J0000000D01*
G01*
X0176739Y0271674D01*
G75*
G02*
X0176207Y0272205I0000000J0000531D01*
G01*
X0176207Y0273662D01*
G75*
G02*
X0176739Y0274193I0000531J0000000D01*
G01*
X0177802Y0274193D01*
G75*
G02*
X0178333Y0273662I0000000J-000531D01*
G01*
G37*
G36*
G01*
X0176286Y0268327D02*
X0176286Y0269666D01*
G75*
G02*
X0176837Y0270217I0000551J0000000D01*
G01*
X0177939Y0270217D01*
G75*
G02*
X0178491Y0269666I0000000J-000551D01*
G01*
X0178491Y0268327D01*
G75*
G02*
X0177939Y0267776I-000551J0000000D01*
G01*
X0176837Y0267776D01*
G75*
G02*
X0176286Y0268327I0000000J0000551D01*
G01*
G37*
G36*
G01*
X0180065Y0268327D02*
X0180065Y0269666D01*
G75*
G02*
X0180617Y0270217I0000551J0000000D01*
G01*
X0181719Y0270217D01*
G75*
G02*
X0182270Y0269666I0000000J-000551D01*
G01*
X0182270Y0268327D01*
G75*
G02*
X0181719Y0267776I-000551J0000000D01*
G01*
X0180617Y0267776D01*
G75*
G02*
X0180065Y0268327I0000000J0000551D01*
G01*
G37*
G36*
G01*
X0168366Y0272205D02*
X0168366Y0273662D01*
G75*
G02*
X0168898Y0274193I0000531J0000000D01*
G01*
X0169961Y0274193D01*
G75*
G02*
X0170492Y0273662I0000000J-000531D01*
G01*
X0170492Y0272205D01*
G75*
G02*
X0169961Y0271674I-000531J0000000D01*
G01*
X0168898Y0271674D01*
G75*
G02*
X0168366Y0272205I0000000J0000531D01*
G01*
G37*
G36*
G01*
X0172382Y0272205D02*
X0172382Y0273662D01*
G75*
G02*
X0172913Y0274193I0000531J0000000D01*
G01*
X0173976Y0274193D01*
G75*
G02*
X0174508Y0273662I0000000J-000531D01*
G01*
X0174508Y0272205D01*
G75*
G02*
X0173976Y0271674I-000531J0000000D01*
G01*
X0172913Y0271674D01*
G75*
G02*
X0172382Y0272205I0000000J0000531D01*
G01*
G37*
G36*
G01*
X0174429Y0260611D02*
X0174429Y0259272D01*
G75*
G02*
X0173878Y0258721I-000551J0000000D01*
G01*
X0172776Y0258721D01*
G75*
G02*
X0172224Y0259272I0000000J0000551D01*
G01*
X0172224Y0260611D01*
G75*
G02*
X0172776Y0261162I0000551J0000000D01*
G01*
X0173878Y0261162D01*
G75*
G02*
X0174429Y0260611I0000000J-000551D01*
G01*
G37*
G36*
G01*
X0170650Y0260611D02*
X0170650Y0259272D01*
G75*
G02*
X0170098Y0258721I-000551J0000000D01*
G01*
X0168996Y0258721D01*
G75*
G02*
X0168445Y0259272I0000000J0000551D01*
G01*
X0168445Y0260611D01*
G75*
G02*
X0168996Y0261162I0000551J0000000D01*
G01*
X0170098Y0261162D01*
G75*
G02*
X0170650Y0260611I0000000J-000551D01*
G01*
G37*
G36*
G01*
X0178287Y0283740D02*
X0178287Y0282402D01*
G75*
G02*
X0177736Y0281851I-000551J0000000D01*
G01*
X0176634Y0281851D01*
G75*
G02*
X0176083Y0282402I0000000J0000551D01*
G01*
X0176083Y0283740D01*
G75*
G02*
X0176634Y0284292I0000551J0000000D01*
G01*
X0177736Y0284292D01*
G75*
G02*
X0178287Y0283740I0000000J-000551D01*
G01*
G37*
G36*
G01*
X0174508Y0283740D02*
X0174508Y0282402D01*
G75*
G02*
X0173957Y0281851I-000551J0000000D01*
G01*
X0172854Y0281851D01*
G75*
G02*
X0172303Y0282402I0000000J0000551D01*
G01*
X0172303Y0283740D01*
G75*
G02*
X0172854Y0284292I0000551J0000000D01*
G01*
X0173957Y0284292D01*
G75*
G02*
X0174508Y0283740I0000000J-000551D01*
G01*
G37*
G36*
G01*
X0181535Y0277973D02*
X0180079Y0277973D01*
G75*
G02*
X0179547Y0278504I0000000J0000531D01*
G01*
X0179547Y0279567D01*
G75*
G02*
X0180079Y0280099I0000531J0000000D01*
G01*
X0181535Y0280099D01*
G75*
G02*
X0182067Y0279567I0000000J-000531D01*
G01*
X0182067Y0278504D01*
G75*
G02*
X0181535Y0277973I-000531J0000000D01*
G01*
G37*
G36*
G01*
X0181535Y0281989D02*
X0180079Y0281989D01*
G75*
G02*
X0179547Y0282520I0000000J0000531D01*
G01*
X0179547Y0283583D01*
G75*
G02*
X0180079Y0284114I0000531J0000000D01*
G01*
X0181535Y0284114D01*
G75*
G02*
X0182067Y0283583I0000000J-000531D01*
G01*
X0182067Y0282520D01*
G75*
G02*
X0181535Y0281989I-000531J0000000D01*
G01*
G37*
G36*
G01*
X0182264Y0247146D02*
X0180925Y0247146D01*
G75*
G02*
X0180374Y0247697I0000000J0000551D01*
G01*
X0180374Y0248800D01*
G75*
G02*
X0180925Y0249351I0000551J0000000D01*
G01*
X0182264Y0249351D01*
G75*
G02*
X0182815Y0248800I0000000J-000551D01*
G01*
X0182815Y0247697D01*
G75*
G02*
X0182264Y0247146I-000551J0000000D01*
G01*
G37*
G36*
G01*
X0182264Y0250926D02*
X0180925Y0250926D01*
G75*
G02*
X0180374Y0251477I0000000J0000551D01*
G01*
X0180374Y0252579D01*
G75*
G02*
X0180925Y0253130I0000551J0000000D01*
G01*
X0182264Y0253130D01*
G75*
G02*
X0182815Y0252579I0000000J-000551D01*
G01*
X0182815Y0251477D01*
G75*
G02*
X0182264Y0250926I-000551J0000000D01*
G01*
G37*
G36*
G01*
X0188027Y0296201D02*
X0190044Y0296201D01*
G75*
G02*
X0190906Y0295340I0000000J-000861D01*
G01*
X0190906Y0293617D01*
G75*
G02*
X0190044Y0292756I-000861J0000000D01*
G01*
X0188027Y0292756D01*
G75*
G02*
X0187165Y0293617I0000000J0000861D01*
G01*
X0187165Y0295340D01*
G75*
G02*
X0188027Y0296201I0000861J0000000D01*
G01*
G37*
G36*
G01*
X0188027Y0302402D02*
X0190044Y0302402D01*
G75*
G02*
X0190906Y0301541I0000000J-000861D01*
G01*
X0190906Y0299818D01*
G75*
G02*
X0190044Y0298957I-000861J0000000D01*
G01*
X0188027Y0298957D01*
G75*
G02*
X0187165Y0299818I0000000J0000861D01*
G01*
X0187165Y0301541D01*
G75*
G02*
X0188027Y0302402I0000861J0000000D01*
G01*
G37*
G36*
G01*
X0193248Y0277422D02*
X0193248Y0278760D01*
G75*
G02*
X0193799Y0279311I0000551J0000000D01*
G01*
X0194902Y0279311D01*
G75*
G02*
X0195453Y0278760I0000000J-000551D01*
G01*
X0195453Y0277422D01*
G75*
G02*
X0194902Y0276870I-000551J0000000D01*
G01*
X0193799Y0276870D01*
G75*
G02*
X0193248Y0277422I0000000J0000551D01*
G01*
G37*
G36*
G01*
X0197028Y0277422D02*
X0197028Y0278760D01*
G75*
G02*
X0197579Y0279311I0000551J0000000D01*
G01*
X0198681Y0279311D01*
G75*
G02*
X0199232Y0278760I0000000J-000551D01*
G01*
X0199232Y0277422D01*
G75*
G02*
X0198681Y0276870I-000551J0000000D01*
G01*
X0197579Y0276870D01*
G75*
G02*
X0197028Y0277422I0000000J0000551D01*
G01*
G37*
G36*
G01*
X0196102Y0295059D02*
X0194646Y0295059D01*
G75*
G02*
X0194114Y0295591I0000000J0000531D01*
G01*
X0194114Y0296654D01*
G75*
G02*
X0194646Y0297185I0000531J0000000D01*
G01*
X0196102Y0297185D01*
G75*
G02*
X0196634Y0296654I0000000J-000531D01*
G01*
X0196634Y0295591D01*
G75*
G02*
X0196102Y0295059I-000531J0000000D01*
G01*
G37*
G36*
G01*
X0196102Y0299075D02*
X0194646Y0299075D01*
G75*
G02*
X0194114Y0299607I0000000J0000531D01*
G01*
X0194114Y0300670D01*
G75*
G02*
X0194646Y0301201I0000531J0000000D01*
G01*
X0196102Y0301201D01*
G75*
G02*
X0196634Y0300670I0000000J-000531D01*
G01*
X0196634Y0299607D01*
G75*
G02*
X0196102Y0299075I-000531J0000000D01*
G01*
G37*
G36*
G01*
X0184016Y0284114D02*
X0185472Y0284114D01*
G75*
G02*
X0186004Y0283583I0000000J-000531D01*
G01*
X0186004Y0282520D01*
G75*
G02*
X0185472Y0281989I-000531J0000000D01*
G01*
X0184016Y0281989D01*
G75*
G02*
X0183484Y0282520I0000000J0000531D01*
G01*
X0183484Y0283583D01*
G75*
G02*
X0184016Y0284114I0000531J0000000D01*
G01*
G37*
G36*
G01*
X0184016Y0280099D02*
X0185472Y0280099D01*
G75*
G02*
X0186004Y0279567I0000000J-000531D01*
G01*
X0186004Y0278504D01*
G75*
G02*
X0185472Y0277973I-000531J0000000D01*
G01*
X0184016Y0277973D01*
G75*
G02*
X0183484Y0278504I0000000J0000531D01*
G01*
X0183484Y0279567D01*
G75*
G02*
X0184016Y0280099I0000531J0000000D01*
G01*
G37*
G36*
G01*
X0178225Y0278977D02*
X0178225Y0277520D01*
G75*
G02*
X0177694Y0276989I-000531J0000000D01*
G01*
X0176631Y0276989D01*
G75*
G02*
X0176099Y0277520I0000000J0000531D01*
G01*
X0176099Y0278977D01*
G75*
G02*
X0176631Y0279508I0000531J0000000D01*
G01*
X0177694Y0279508D01*
G75*
G02*
X0178225Y0278977I0000000J-000531D01*
G01*
G37*
G36*
G01*
X0174209Y0278977D02*
X0174209Y0277520D01*
G75*
G02*
X0173678Y0276989I-000531J0000000D01*
G01*
X0172615Y0276989D01*
G75*
G02*
X0172084Y0277520I0000000J0000531D01*
G01*
X0172084Y0278977D01*
G75*
G02*
X0172615Y0279508I0000531J0000000D01*
G01*
X0173678Y0279508D01*
G75*
G02*
X0174209Y0278977I0000000J-000531D01*
G01*
G37*
G36*
G01*
X0184823Y0296319D02*
X0183484Y0296319D01*
G75*
G02*
X0182933Y0296870I0000000J0000551D01*
G01*
X0182933Y0297973D01*
G75*
G02*
X0183484Y0298524I0000551J0000000D01*
G01*
X0184823Y0298524D01*
G75*
G02*
X0185374Y0297973I0000000J-000551D01*
G01*
X0185374Y0296870D01*
G75*
G02*
X0184823Y0296319I-000551J0000000D01*
G01*
G37*
G36*
G01*
X0184823Y0300099D02*
X0183484Y0300099D01*
G75*
G02*
X0182933Y0300650I0000000J0000551D01*
G01*
X0182933Y0301752D01*
G75*
G02*
X0183484Y0302303I0000551J0000000D01*
G01*
X0184823Y0302303D01*
G75*
G02*
X0185374Y0301752I0000000J-000551D01*
G01*
X0185374Y0300650D01*
G75*
G02*
X0184823Y0300099I-000551J0000000D01*
G01*
G37*
G36*
G01*
X0176286Y0259272D02*
X0176286Y0260611D01*
G75*
G02*
X0176837Y0261162I0000551J0000000D01*
G01*
X0177939Y0261162D01*
G75*
G02*
X0178491Y0260611I0000000J-000551D01*
G01*
X0178491Y0259272D01*
G75*
G02*
X0177939Y0258721I-000551J0000000D01*
G01*
X0176837Y0258721D01*
G75*
G02*
X0176286Y0259272I0000000J0000551D01*
G01*
G37*
G36*
G01*
X0180065Y0259272D02*
X0180065Y0260611D01*
G75*
G02*
X0180617Y0261162I0000551J0000000D01*
G01*
X0181719Y0261162D01*
G75*
G02*
X0182270Y0260611I0000000J-000551D01*
G01*
X0182270Y0259272D01*
G75*
G02*
X0181719Y0258721I-000551J0000000D01*
G01*
X0180617Y0258721D01*
G75*
G02*
X0180065Y0259272I0000000J0000551D01*
G01*
G37*
G36*
G01*
X0168760Y0284292D02*
X0170217Y0284292D01*
G75*
G02*
X0170748Y0283760I0000000J-000531D01*
G01*
X0170748Y0282697D01*
G75*
G02*
X0170217Y0282166I-000531J0000000D01*
G01*
X0168760Y0282166D01*
G75*
G02*
X0168228Y0282697I0000000J0000531D01*
G01*
X0168228Y0283760D01*
G75*
G02*
X0168760Y0284292I0000531J0000000D01*
G01*
G37*
G36*
G01*
X0168760Y0280276D02*
X0170217Y0280276D01*
G75*
G02*
X0170748Y0279744I0000000J-000531D01*
G01*
X0170748Y0278681D01*
G75*
G02*
X0170217Y0278150I-000531J0000000D01*
G01*
X0168760Y0278150D01*
G75*
G02*
X0168228Y0278681I0000000J0000531D01*
G01*
X0168228Y0279744D01*
G75*
G02*
X0168760Y0280276I0000531J0000000D01*
G01*
G37*
D152*
X0169980Y0255033D03*
X0169980Y0252474D03*
X0169980Y0249915D03*
X0177461Y0249915D03*
X0177461Y0252474D03*
X0177461Y0255033D03*
G36*
G01*
X0178766Y0300982D02*
X0179947Y0300982D01*
G75*
G02*
X0180538Y0300391I0000000J-000591D01*
G01*
X0180538Y0296356D01*
G75*
G02*
X0179947Y0295765I-000591J0000000D01*
G01*
X0178766Y0295765D01*
G75*
G02*
X0178176Y0296356I0000000J0000591D01*
G01*
X0178176Y0300391D01*
G75*
G02*
X0178766Y0300982I0000591J0000000D01*
G01*
G37*
G36*
G01*
X0175026Y0300982D02*
X0176207Y0300982D01*
G75*
G02*
X0176798Y0300391I0000000J-000591D01*
G01*
X0176798Y0296356D01*
G75*
G02*
X0176207Y0295765I-000591J0000000D01*
G01*
X0175026Y0295765D01*
G75*
G02*
X0174435Y0296356I0000000J0000591D01*
G01*
X0174435Y0300391D01*
G75*
G02*
X0175026Y0300982I0000591J0000000D01*
G01*
G37*
G36*
G01*
X0171286Y0300982D02*
X0172467Y0300982D01*
G75*
G02*
X0173057Y0300391I0000000J-000591D01*
G01*
X0173057Y0296356D01*
G75*
G02*
X0172467Y0295765I-000591J0000000D01*
G01*
X0171286Y0295765D01*
G75*
G02*
X0170695Y0296356I0000000J0000591D01*
G01*
X0170695Y0300391D01*
G75*
G02*
X0171286Y0300982I0000591J0000000D01*
G01*
G37*
G36*
G01*
X0171286Y0292025D02*
X0172467Y0292025D01*
G75*
G02*
X0173057Y0291435I0000000J-000591D01*
G01*
X0173057Y0287399D01*
G75*
G02*
X0172467Y0286809I-000591J0000000D01*
G01*
X0171286Y0286809D01*
G75*
G02*
X0170695Y0287399I0000000J0000591D01*
G01*
X0170695Y0291435D01*
G75*
G02*
X0171286Y0292025I0000591J0000000D01*
G01*
G37*
G36*
G01*
X0175026Y0292025D02*
X0176207Y0292025D01*
G75*
G02*
X0176798Y0291435I0000000J-000591D01*
G01*
X0176798Y0287399D01*
G75*
G02*
X0176207Y0286809I-000591J0000000D01*
G01*
X0175026Y0286809D01*
G75*
G02*
X0174435Y0287399I0000000J0000591D01*
G01*
X0174435Y0291435D01*
G75*
G02*
X0175026Y0292025I0000591J0000000D01*
G01*
G37*
G36*
G01*
X0178766Y0292025D02*
X0179947Y0292025D01*
G75*
G02*
X0180538Y0291435I0000000J-000591D01*
G01*
X0180538Y0287399D01*
G75*
G02*
X0179947Y0286809I-000591J0000000D01*
G01*
X0178766Y0286809D01*
G75*
G02*
X0178176Y0287399I0000000J0000591D01*
G01*
X0178176Y0291435D01*
G75*
G02*
X0178766Y0292025I0000591J0000000D01*
G01*
G37*
G36*
G01*
X0190650Y0289863D02*
X0191988Y0289863D01*
G75*
G02*
X0192539Y0289311I0000000J-000551D01*
G01*
X0192539Y0288209D01*
G75*
G02*
X0191988Y0287658I-000551J0000000D01*
G01*
X0190650Y0287658D01*
G75*
G02*
X0190098Y0288209I0000000J0000551D01*
G01*
X0190098Y0289311D01*
G75*
G02*
X0190650Y0289863I0000551J0000000D01*
G01*
G37*
G36*
G01*
X0190650Y0286083D02*
X0191988Y0286083D01*
G75*
G02*
X0192539Y0285532I0000000J-000551D01*
G01*
X0192539Y0284429D01*
G75*
G02*
X0191988Y0283878I-000551J0000000D01*
G01*
X0190650Y0283878D01*
G75*
G02*
X0190098Y0284429I0000000J0000551D01*
G01*
X0190098Y0285532D01*
G75*
G02*
X0190650Y0286083I0000551J0000000D01*
G01*
G37*
G36*
G01*
X0168445Y0268327D02*
X0168445Y0269666D01*
G75*
G02*
X0168996Y0270217I0000551J0000000D01*
G01*
X0170098Y0270217D01*
G75*
G02*
X0170650Y0269666I0000000J-000551D01*
G01*
X0170650Y0268327D01*
G75*
G02*
X0170098Y0267776I-000551J0000000D01*
G01*
X0168996Y0267776D01*
G75*
G02*
X0168445Y0268327I0000000J0000551D01*
G01*
G37*
G36*
G01*
X0172224Y0268327D02*
X0172224Y0269666D01*
G75*
G02*
X0172776Y0270217I0000551J0000000D01*
G01*
X0173878Y0270217D01*
G75*
G02*
X0174429Y0269666I0000000J-000551D01*
G01*
X0174429Y0268327D01*
G75*
G02*
X0173878Y0267776I-000551J0000000D01*
G01*
X0172776Y0267776D01*
G75*
G02*
X0172224Y0268327I0000000J0000551D01*
G01*
G37*
G36*
G01*
X0176207Y0264331D02*
X0176207Y0265788D01*
G75*
G02*
X0176739Y0266319I0000531J0000000D01*
G01*
X0177802Y0266319D01*
G75*
G02*
X0178333Y0265788I0000000J-000531D01*
G01*
X0178333Y0264331D01*
G75*
G02*
X0177802Y0263800I-000531J0000000D01*
G01*
X0176739Y0263800D01*
G75*
G02*
X0176207Y0264331I0000000J0000531D01*
G01*
G37*
G36*
G01*
X0180223Y0264331D02*
X0180223Y0265788D01*
G75*
G02*
X0180754Y0266319I0000531J0000000D01*
G01*
X0181817Y0266319D01*
G75*
G02*
X0182349Y0265788I0000000J-000531D01*
G01*
X0182349Y0264331D01*
G75*
G02*
X0181817Y0263800I-000531J0000000D01*
G01*
X0180754Y0263800D01*
G75*
G02*
X0180223Y0264331I0000000J0000531D01*
G01*
G37*
X0122933Y0305020D02*
%LPD*%
G01*
D27*
X0150098Y0246752D03*
X0145374Y0246752D03*
X0154823Y0246752D03*
X0159547Y0246752D03*
X0134114Y0303544D03*
X0130177Y0303544D03*
D306*
X0135925Y0271162D03*
X0133957Y0271162D03*
X0131988Y0271162D03*
X0130020Y0271162D03*
X0128051Y0271162D03*
X0128051Y0253839D03*
X0130020Y0253839D03*
X0131988Y0253839D03*
X0133957Y0253839D03*
X0135925Y0253839D03*
G36*
G01*
X0149114Y0263642D02*
X0149114Y0260571D01*
G75*
G02*
X0148839Y0260296I-000276J0000000D01*
G01*
X0146634Y0260296D01*
G75*
G02*
X0146358Y0260571I0000000J0000276D01*
G01*
X0146358Y0263642D01*
G75*
G02*
X0146634Y0263918I0000276J0000000D01*
G01*
X0148839Y0263918D01*
G75*
G02*
X0149114Y0263642I0000000J-000276D01*
G01*
G37*
G36*
G01*
X0142815Y0263642D02*
X0142815Y0260571D01*
G75*
G02*
X0142539Y0260296I-000276J0000000D01*
G01*
X0140335Y0260296D01*
G75*
G02*
X0140059Y0260571I0000000J0000276D01*
G01*
X0140059Y0263642D01*
G75*
G02*
X0140335Y0263918I0000276J0000000D01*
G01*
X0142539Y0263918D01*
G75*
G02*
X0142815Y0263642I0000000J-000276D01*
G01*
G37*
G36*
G01*
X0155768Y0249311D02*
X0152697Y0249311D01*
G75*
G02*
X0152421Y0249587I0000000J0000276D01*
G01*
X0152421Y0251792D01*
G75*
G02*
X0152697Y0252067I0000276J0000000D01*
G01*
X0155768Y0252067D01*
G75*
G02*
X0156043Y0251792I0000000J-000276D01*
G01*
X0156043Y0249587D01*
G75*
G02*
X0155768Y0249311I-000276J0000000D01*
G01*
G37*
G36*
G01*
X0155768Y0255611D02*
X0152697Y0255611D01*
G75*
G02*
X0152421Y0255886I0000000J0000276D01*
G01*
X0152421Y0258091D01*
G75*
G02*
X0152697Y0258366I0000276J0000000D01*
G01*
X0155768Y0258366D01*
G75*
G02*
X0156043Y0258091I0000000J-000276D01*
G01*
X0156043Y0255886D01*
G75*
G02*
X0155768Y0255611I-000276J0000000D01*
G01*
G37*
G36*
G01*
X0149114Y0269548D02*
X0149114Y0266477D01*
G75*
G02*
X0148839Y0266201I-000276J0000000D01*
G01*
X0146634Y0266201D01*
G75*
G02*
X0146358Y0266477I0000000J0000276D01*
G01*
X0146358Y0269548D01*
G75*
G02*
X0146634Y0269823I0000276J0000000D01*
G01*
X0148839Y0269823D01*
G75*
G02*
X0149114Y0269548I0000000J-000276D01*
G01*
G37*
G36*
G01*
X0142815Y0269548D02*
X0142815Y0266477D01*
G75*
G02*
X0142539Y0266201I-000276J0000000D01*
G01*
X0140335Y0266201D01*
G75*
G02*
X0140059Y0266477I0000000J0000276D01*
G01*
X0140059Y0269548D01*
G75*
G02*
X0140335Y0269823I0000276J0000000D01*
G01*
X0142539Y0269823D01*
G75*
G02*
X0142815Y0269548I0000000J-000276D01*
G01*
G37*
G36*
G01*
X0152854Y0280197D02*
X0152854Y0277481D01*
G75*
G02*
X0151949Y0276575I-000906J0000000D01*
G01*
X0146673Y0276575D01*
G75*
G02*
X0145768Y0277481I0000000J0000906D01*
G01*
X0145768Y0280197D01*
G75*
G02*
X0146673Y0281103I0000906J0000000D01*
G01*
X0151949Y0281103D01*
G75*
G02*
X0152854Y0280197I0000000J-000906D01*
G01*
G37*
G36*
G01*
X0152854Y0291615D02*
X0152854Y0288898D01*
G75*
G02*
X0151949Y0287992I-000906J0000000D01*
G01*
X0146673Y0287992D01*
G75*
G02*
X0145768Y0288898I0000000J0000906D01*
G01*
X0145768Y0291615D01*
G75*
G02*
X0146673Y0292520I0000906J0000000D01*
G01*
X0151949Y0292520D01*
G75*
G02*
X0152854Y0291615I0000000J-000906D01*
G01*
G37*
G36*
G01*
X0143012Y0280197D02*
X0143012Y0277481D01*
G75*
G02*
X0142106Y0276575I-000906J0000000D01*
G01*
X0136831Y0276575D01*
G75*
G02*
X0135925Y0277481I0000000J0000906D01*
G01*
X0135925Y0280197D01*
G75*
G02*
X0136831Y0281103I0000906J0000000D01*
G01*
X0142106Y0281103D01*
G75*
G02*
X0143012Y0280197I0000000J-000906D01*
G01*
G37*
G36*
G01*
X0143012Y0291615D02*
X0143012Y0288898D01*
G75*
G02*
X0142106Y0287992I-000906J0000000D01*
G01*
X0136831Y0287992D01*
G75*
G02*
X0135925Y0288898I0000000J0000906D01*
G01*
X0135925Y0291615D01*
G75*
G02*
X0136831Y0292520I0000906J0000000D01*
G01*
X0142106Y0292520D01*
G75*
G02*
X0143012Y0291615I0000000J-000906D01*
G01*
G37*
G36*
G01*
X0149331Y0302264D02*
X0152047Y0302264D01*
G75*
G02*
X0152953Y0301359I0000000J-000906D01*
G01*
X0152953Y0296083D01*
G75*
G02*
X0152047Y0295177I-000906J0000000D01*
G01*
X0149331Y0295177D01*
G75*
G02*
X0148425Y0296083I0000000J0000906D01*
G01*
X0148425Y0301359D01*
G75*
G02*
X0149331Y0302264I0000906J0000000D01*
G01*
G37*
G36*
G01*
X0137913Y0302264D02*
X0140630Y0302264D01*
G75*
G02*
X0141535Y0301359I0000000J-000906D01*
G01*
X0141535Y0296083D01*
G75*
G02*
X0140630Y0295177I-000906J0000000D01*
G01*
X0137913Y0295177D01*
G75*
G02*
X0137008Y0296083I0000000J0000906D01*
G01*
X0137008Y0301359D01*
G75*
G02*
X0137913Y0302264I0000906J0000000D01*
G01*
G37*
G36*
G01*
X0133563Y0286890D02*
X0133563Y0284174D01*
G75*
G02*
X0132657Y0283268I-000906J0000000D01*
G01*
X0127382Y0283268D01*
G75*
G02*
X0126476Y0284174I0000000J0000906D01*
G01*
X0126476Y0286890D01*
G75*
G02*
X0127382Y0287796I0000906J0000000D01*
G01*
X0132657Y0287796D01*
G75*
G02*
X0133563Y0286890I0000000J-000906D01*
G01*
G37*
G36*
G01*
X0133563Y0298307D02*
X0133563Y0295591D01*
G75*
G02*
X0132657Y0294685I-000906J0000000D01*
G01*
X0127382Y0294685D01*
G75*
G02*
X0126476Y0295591I0000000J0000906D01*
G01*
X0126476Y0298307D01*
G75*
G02*
X0127382Y0299213I0000906J0000000D01*
G01*
X0132657Y0299213D01*
G75*
G02*
X0133563Y0298307I0000000J-000906D01*
G01*
G37*
G36*
G01*
X0155438Y0261221D02*
X0153420Y0261221D01*
G75*
G02*
X0152559Y0262082I0000000J0000861D01*
G01*
X0152559Y0263804D01*
G75*
G02*
X0153420Y0264666I0000861J0000000D01*
G01*
X0155438Y0264666D01*
G75*
G02*
X0156299Y0263804I0000000J-000861D01*
G01*
X0156299Y0262082D01*
G75*
G02*
X0155438Y0261221I-000861J0000000D01*
G01*
G37*
G36*
G01*
X0155438Y0267422D02*
X0153420Y0267422D01*
G75*
G02*
X0152559Y0268283I0000000J0000861D01*
G01*
X0152559Y0270005D01*
G75*
G02*
X0153420Y0270866I0000861J0000000D01*
G01*
X0155438Y0270866D01*
G75*
G02*
X0156299Y0270005I0000000J-000861D01*
G01*
X0156299Y0268283D01*
G75*
G02*
X0155438Y0267422I-000861J0000000D01*
G01*
G37*
G36*
G01*
X0148476Y0255276D02*
X0145799Y0255276D01*
G75*
G02*
X0145464Y0255611I0000000J0000335D01*
G01*
X0145464Y0258288D01*
G75*
G02*
X0145799Y0258622I0000335J0000000D01*
G01*
X0148476Y0258622D01*
G75*
G02*
X0148811Y0258288I0000000J-000335D01*
G01*
X0148811Y0255611D01*
G75*
G02*
X0148476Y0255276I-000335J0000000D01*
G01*
G37*
G36*
G01*
X0148476Y0249055D02*
X0145799Y0249055D01*
G75*
G02*
X0145464Y0249390I0000000J0000335D01*
G01*
X0145464Y0252067D01*
G75*
G02*
X0145799Y0252402I0000335J0000000D01*
G01*
X0148476Y0252402D01*
G75*
G02*
X0148811Y0252067I0000000J-000335D01*
G01*
X0148811Y0249390D01*
G75*
G02*
X0148476Y0249055I-000335J0000000D01*
G01*
G37*
G36*
G01*
X0143169Y0249055D02*
X0140492Y0249055D01*
G75*
G02*
X0140157Y0249390I0000000J0000335D01*
G01*
X0140157Y0252067D01*
G75*
G02*
X0140492Y0252402I0000335J0000000D01*
G01*
X0143169Y0252402D01*
G75*
G02*
X0143504Y0252067I0000000J-000335D01*
G01*
X0143504Y0249390D01*
G75*
G02*
X0143169Y0249055I-000335J0000000D01*
G01*
G37*
G36*
G01*
X0143169Y0255276D02*
X0140492Y0255276D01*
G75*
G02*
X0140157Y0255611I0000000J0000335D01*
G01*
X0140157Y0258288D01*
G75*
G02*
X0140492Y0258622I0000335J0000000D01*
G01*
X0143169Y0258622D01*
G75*
G02*
X0143504Y0258288I0000000J-000335D01*
G01*
X0143504Y0255611D01*
G75*
G02*
X0143169Y0255276I-000335J0000000D01*
G01*
G37*
G36*
G01*
X0149370Y0274469D02*
X0149370Y0271792D01*
G75*
G02*
X0149035Y0271457I-000335J0000000D01*
G01*
X0146358Y0271457D01*
G75*
G02*
X0146024Y0271792I0000000J0000335D01*
G01*
X0146024Y0274469D01*
G75*
G02*
X0146358Y0274803I0000335J0000000D01*
G01*
X0149035Y0274803D01*
G75*
G02*
X0149370Y0274469I0000000J-000335D01*
G01*
G37*
G36*
G01*
X0143150Y0274469D02*
X0143150Y0271792D01*
G75*
G02*
X0142815Y0271457I-000335J0000000D01*
G01*
X0140138Y0271457D01*
G75*
G02*
X0139803Y0271792I0000000J0000335D01*
G01*
X0139803Y0274469D01*
G75*
G02*
X0140138Y0274803I0000335J0000000D01*
G01*
X0142815Y0274803D01*
G75*
G02*
X0143150Y0274469I0000000J-000335D01*
G01*
G37*
X0391437Y0155906D02*
%LPD*%
G01*
G36*
G01*
X0355728Y0223514D02*
X0355728Y0222156D01*
G75*
G02*
X0355148Y0221575I-000581J0000000D01*
G01*
X0353986Y0221575D01*
G75*
G02*
X0353406Y0222156I0000000J0000581D01*
G01*
X0353406Y0223514D01*
G75*
G02*
X0353986Y0224095I0000581J0000000D01*
G01*
X0355148Y0224095D01*
G75*
G02*
X0355728Y0223514I0000000J-000581D01*
G01*
G37*
G36*
G01*
X0351909Y0223514D02*
X0351909Y0222156D01*
G75*
G02*
X0351329Y0221575I-000581J0000000D01*
G01*
X0350167Y0221575D01*
G75*
G02*
X0349587Y0222156I0000000J0000581D01*
G01*
X0349587Y0223514D01*
G75*
G02*
X0350167Y0224095I0000581J0000000D01*
G01*
X0351329Y0224095D01*
G75*
G02*
X0351909Y0223514I0000000J-000581D01*
G01*
G37*
G36*
G01*
X0371152Y0164941D02*
X0369793Y0164941D01*
G75*
G02*
X0369213Y0165522I0000000J0000581D01*
G01*
X0369213Y0166684D01*
G75*
G02*
X0369793Y0167264I0000581J0000000D01*
G01*
X0371152Y0167264D01*
G75*
G02*
X0371732Y0166684I0000000J-000581D01*
G01*
X0371732Y0165522D01*
G75*
G02*
X0371152Y0164941I-000581J0000000D01*
G01*
G37*
G36*
G01*
X0371152Y0168760D02*
X0369793Y0168760D01*
G75*
G02*
X0369213Y0169341I0000000J0000581D01*
G01*
X0369213Y0170502D01*
G75*
G02*
X0369793Y0171083I0000581J0000000D01*
G01*
X0371152Y0171083D01*
G75*
G02*
X0371732Y0170502I0000000J-000581D01*
G01*
X0371732Y0169341D01*
G75*
G02*
X0371152Y0168760I-000581J0000000D01*
G01*
G37*
G36*
G01*
X0355955Y0175468D02*
X0355955Y0177486D01*
G75*
G02*
X0356816Y0178347I0000861J0000000D01*
G01*
X0358538Y0178347D01*
G75*
G02*
X0359400Y0177486I0000000J-000861D01*
G01*
X0359400Y0175468D01*
G75*
G02*
X0358538Y0174607I-000861J0000000D01*
G01*
X0356816Y0174607D01*
G75*
G02*
X0355955Y0175468I0000000J0000861D01*
G01*
G37*
G36*
G01*
X0362156Y0175468D02*
X0362156Y0177486D01*
G75*
G02*
X0363017Y0178347I0000861J0000000D01*
G01*
X0364739Y0178347D01*
G75*
G02*
X0365600Y0177486I0000000J-000861D01*
G01*
X0365600Y0175468D01*
G75*
G02*
X0364739Y0174607I-000861J0000000D01*
G01*
X0363017Y0174607D01*
G75*
G02*
X0362156Y0175468I0000000J0000861D01*
G01*
G37*
G36*
G01*
X0380984Y0221959D02*
X0380984Y0223317D01*
G75*
G02*
X0381565Y0223898I0000581J0000000D01*
G01*
X0382726Y0223898D01*
G75*
G02*
X0383307Y0223317I0000000J-000581D01*
G01*
X0383307Y0221959D01*
G75*
G02*
X0382726Y0221378I-000581J0000000D01*
G01*
X0381565Y0221378D01*
G75*
G02*
X0380984Y0221959I0000000J0000581D01*
G01*
G37*
G36*
G01*
X0384803Y0221959D02*
X0384803Y0223317D01*
G75*
G02*
X0385384Y0223898I0000581J0000000D01*
G01*
X0386545Y0223898D01*
G75*
G02*
X0387126Y0223317I0000000J-000581D01*
G01*
X0387126Y0221959D01*
G75*
G02*
X0386545Y0221378I-000581J0000000D01*
G01*
X0385384Y0221378D01*
G75*
G02*
X0384803Y0221959I0000000J0000581D01*
G01*
G37*
D160*
X0365157Y0170768D03*
X0357677Y0170768D03*
X0361417Y0162894D03*
G36*
G01*
X0380984Y0217776D02*
X0380984Y0219134D01*
G75*
G02*
X0381565Y0219715I0000581J0000000D01*
G01*
X0382726Y0219715D01*
G75*
G02*
X0383307Y0219134I0000000J-000581D01*
G01*
X0383307Y0217776D01*
G75*
G02*
X0382726Y0217195I-000581J0000000D01*
G01*
X0381565Y0217195D01*
G75*
G02*
X0380984Y0217776I0000000J0000581D01*
G01*
G37*
G36*
G01*
X0384803Y0217776D02*
X0384803Y0219134D01*
G75*
G02*
X0385384Y0219715I0000581J0000000D01*
G01*
X0386545Y0219715D01*
G75*
G02*
X0387126Y0219134I0000000J-000581D01*
G01*
X0387126Y0217776D01*
G75*
G02*
X0386545Y0217195I-000581J0000000D01*
G01*
X0385384Y0217195D01*
G75*
G02*
X0384803Y0217776I0000000J0000581D01*
G01*
G37*
G36*
G01*
X0357067Y0222156D02*
X0357067Y0223514D01*
G75*
G02*
X0357648Y0224095I0000581J0000000D01*
G01*
X0358809Y0224095D01*
G75*
G02*
X0359390Y0223514I0000000J-000581D01*
G01*
X0359390Y0222156D01*
G75*
G02*
X0358809Y0221575I-000581J0000000D01*
G01*
X0357648Y0221575D01*
G75*
G02*
X0357067Y0222156I0000000J0000581D01*
G01*
G37*
G36*
G01*
X0360886Y0222156D02*
X0360886Y0223514D01*
G75*
G02*
X0361467Y0224095I0000581J0000000D01*
G01*
X0362628Y0224095D01*
G75*
G02*
X0363209Y0223514I0000000J-000581D01*
G01*
X0363209Y0222156D01*
G75*
G02*
X0362628Y0221575I-000581J0000000D01*
G01*
X0361467Y0221575D01*
G75*
G02*
X0360886Y0222156I0000000J0000581D01*
G01*
G37*
G36*
G01*
X0344803Y0218396D02*
X0344803Y0217038D01*
G75*
G02*
X0344222Y0216457I-000581J0000000D01*
G01*
X0343061Y0216457D01*
G75*
G02*
X0342480Y0217038I0000000J0000581D01*
G01*
X0342480Y0218396D01*
G75*
G02*
X0343061Y0218977I0000581J0000000D01*
G01*
X0344222Y0218977D01*
G75*
G02*
X0344803Y0218396I0000000J-000581D01*
G01*
G37*
G36*
G01*
X0340984Y0218396D02*
X0340984Y0217038D01*
G75*
G02*
X0340404Y0216457I-000581J0000000D01*
G01*
X0339242Y0216457D01*
G75*
G02*
X0338661Y0217038I0000000J0000581D01*
G01*
X0338661Y0218396D01*
G75*
G02*
X0339242Y0218977I0000581J0000000D01*
G01*
X0340404Y0218977D01*
G75*
G02*
X0340984Y0218396I0000000J-000581D01*
G01*
G37*
G36*
G01*
X0371575Y0223514D02*
X0371575Y0222156D01*
G75*
G02*
X0370994Y0221575I-000581J0000000D01*
G01*
X0369833Y0221575D01*
G75*
G02*
X0369252Y0222156I0000000J0000581D01*
G01*
X0369252Y0223514D01*
G75*
G02*
X0369833Y0224095I0000581J0000000D01*
G01*
X0370994Y0224095D01*
G75*
G02*
X0371575Y0223514I0000000J-000581D01*
G01*
G37*
G36*
G01*
X0367756Y0223514D02*
X0367756Y0222156D01*
G75*
G02*
X0367175Y0221575I-000581J0000000D01*
G01*
X0366014Y0221575D01*
G75*
G02*
X0365433Y0222156I0000000J0000581D01*
G01*
X0365433Y0223514D01*
G75*
G02*
X0366014Y0224095I0000581J0000000D01*
G01*
X0367175Y0224095D01*
G75*
G02*
X0367756Y0223514I0000000J-000581D01*
G01*
G37*
G36*
G01*
X0344803Y0183750D02*
X0344803Y0182392D01*
G75*
G02*
X0344222Y0181812I-000581J0000000D01*
G01*
X0343061Y0181812D01*
G75*
G02*
X0342480Y0182392I0000000J0000581D01*
G01*
X0342480Y0183750D01*
G75*
G02*
X0343061Y0184331I0000581J0000000D01*
G01*
X0344222Y0184331D01*
G75*
G02*
X0344803Y0183750I0000000J-000581D01*
G01*
G37*
G36*
G01*
X0340984Y0183750D02*
X0340984Y0182392D01*
G75*
G02*
X0340404Y0181812I-000581J0000000D01*
G01*
X0339242Y0181812D01*
G75*
G02*
X0338661Y0182392I0000000J0000581D01*
G01*
X0338661Y0183750D01*
G75*
G02*
X0339242Y0184331I0000581J0000000D01*
G01*
X0340404Y0184331D01*
G75*
G02*
X0340984Y0183750I0000000J-000581D01*
G01*
G37*
D307*
X0351476Y0248189D03*
D158*
X0379823Y0247087D03*
X0368012Y0239213D03*
X0379823Y0231339D03*
D308*
X0376280Y0239213D03*
D307*
X0351476Y0230237D03*
G36*
G01*
X0371250Y0172717D02*
X0369892Y0172717D01*
G75*
G02*
X0369311Y0173298I0000000J0000581D01*
G01*
X0369311Y0174459D01*
G75*
G02*
X0369892Y0175040I0000581J0000000D01*
G01*
X0371250Y0175040D01*
G75*
G02*
X0371831Y0174459I0000000J-000581D01*
G01*
X0371831Y0173298D01*
G75*
G02*
X0371250Y0172717I-000581J0000000D01*
G01*
G37*
G36*
G01*
X0371250Y0176536D02*
X0369892Y0176536D01*
G75*
G02*
X0369311Y0177117I0000000J0000581D01*
G01*
X0369311Y0178278D01*
G75*
G02*
X0369892Y0178859I0000581J0000000D01*
G01*
X0371250Y0178859D01*
G75*
G02*
X0371831Y0178278I0000000J-000581D01*
G01*
X0371831Y0177117D01*
G75*
G02*
X0371250Y0176536I-000581J0000000D01*
G01*
G37*
G36*
G01*
X0384916Y0211221D02*
X0386934Y0211221D01*
G75*
G02*
X0387795Y0210360I0000000J-000861D01*
G01*
X0387795Y0208637D01*
G75*
G02*
X0386934Y0207776I-000861J0000000D01*
G01*
X0384916Y0207776D01*
G75*
G02*
X0384055Y0208637I0000000J0000861D01*
G01*
X0384055Y0210360D01*
G75*
G02*
X0384916Y0211221I0000861J0000000D01*
G01*
G37*
G36*
G01*
X0384916Y0205020D02*
X0386934Y0205020D01*
G75*
G02*
X0387795Y0204159I0000000J-000861D01*
G01*
X0387795Y0202437D01*
G75*
G02*
X0386934Y0201575I-000861J0000000D01*
G01*
X0384916Y0201575D01*
G75*
G02*
X0384055Y0202437I0000000J0000861D01*
G01*
X0384055Y0204159D01*
G75*
G02*
X0384916Y0205020I0000861J0000000D01*
G01*
G37*
G36*
G01*
X0380984Y0213593D02*
X0380984Y0214951D01*
G75*
G02*
X0381565Y0215532I0000581J0000000D01*
G01*
X0382726Y0215532D01*
G75*
G02*
X0383307Y0214951I0000000J-000581D01*
G01*
X0383307Y0213593D01*
G75*
G02*
X0382726Y0213012I-000581J0000000D01*
G01*
X0381565Y0213012D01*
G75*
G02*
X0380984Y0213593I0000000J0000581D01*
G01*
G37*
G36*
G01*
X0384803Y0213593D02*
X0384803Y0214951D01*
G75*
G02*
X0385384Y0215532I0000581J0000000D01*
G01*
X0386545Y0215532D01*
G75*
G02*
X0387126Y0214951I0000000J-000581D01*
G01*
X0387126Y0213593D01*
G75*
G02*
X0386545Y0213012I-000581J0000000D01*
G01*
X0385384Y0213012D01*
G75*
G02*
X0384803Y0213593I0000000J0000581D01*
G01*
G37*
G36*
G01*
X0385531Y0257702D02*
X0385531Y0255685D01*
G75*
G02*
X0384670Y0254823I-000861J0000000D01*
G01*
X0382948Y0254823D01*
G75*
G02*
X0382087Y0255685I0000000J0000861D01*
G01*
X0382087Y0257702D01*
G75*
G02*
X0382948Y0258563I0000861J0000000D01*
G01*
X0384670Y0258563D01*
G75*
G02*
X0385531Y0257702I0000000J-000861D01*
G01*
G37*
G36*
G01*
X0379331Y0257702D02*
X0379331Y0255685D01*
G75*
G02*
X0378469Y0254823I-000861J0000000D01*
G01*
X0376747Y0254823D01*
G75*
G02*
X0375886Y0255685I0000000J0000861D01*
G01*
X0375886Y0257702D01*
G75*
G02*
X0376747Y0258563I0000861J0000000D01*
G01*
X0378469Y0258563D01*
G75*
G02*
X0379331Y0257702I0000000J-000861D01*
G01*
G37*
G36*
G01*
X0386934Y0189863D02*
X0384916Y0189863D01*
G75*
G02*
X0384055Y0190724I0000000J0000861D01*
G01*
X0384055Y0192446D01*
G75*
G02*
X0384916Y0193308I0000861J0000000D01*
G01*
X0386934Y0193308D01*
G75*
G02*
X0387795Y0192446I0000000J-000861D01*
G01*
X0387795Y0190724D01*
G75*
G02*
X0386934Y0189863I-000861J0000000D01*
G01*
G37*
G36*
G01*
X0386934Y0196063D02*
X0384916Y0196063D01*
G75*
G02*
X0384055Y0196925I0000000J0000861D01*
G01*
X0384055Y0198647D01*
G75*
G02*
X0384916Y0199508I0000861J0000000D01*
G01*
X0386934Y0199508D01*
G75*
G02*
X0387795Y0198647I0000000J-000861D01*
G01*
X0387795Y0196925D01*
G75*
G02*
X0386934Y0196063I-000861J0000000D01*
G01*
G37*
G36*
G01*
X0382756Y0185542D02*
X0382756Y0186900D01*
G75*
G02*
X0383337Y0187481I0000581J0000000D01*
G01*
X0384498Y0187481D01*
G75*
G02*
X0385079Y0186900I0000000J-000581D01*
G01*
X0385079Y0185542D01*
G75*
G02*
X0384498Y0184961I-000581J0000000D01*
G01*
X0383337Y0184961D01*
G75*
G02*
X0382756Y0185542I0000000J0000581D01*
G01*
G37*
G36*
G01*
X0386575Y0185542D02*
X0386575Y0186900D01*
G75*
G02*
X0387156Y0187481I0000581J0000000D01*
G01*
X0388317Y0187481D01*
G75*
G02*
X0388898Y0186900I0000000J-000581D01*
G01*
X0388898Y0185542D01*
G75*
G02*
X0388317Y0184961I-000581J0000000D01*
G01*
X0387156Y0184961D01*
G75*
G02*
X0386575Y0185542I0000000J0000581D01*
G01*
G37*
G36*
G01*
X0370079Y0219981D02*
X0371063Y0219981D01*
G75*
G02*
X0371555Y0219489I0000000J-000492D01*
G01*
X0371555Y0214567D01*
G75*
G02*
X0371063Y0214075I-000492J0000000D01*
G01*
X0370079Y0214075D01*
G75*
G02*
X0369587Y0214567I0000000J0000492D01*
G01*
X0369587Y0219489D01*
G75*
G02*
X0370079Y0219981I0000492J0000000D01*
G01*
G37*
G36*
G01*
X0366929Y0219981D02*
X0367913Y0219981D01*
G75*
G02*
X0368406Y0219489I0000000J-000492D01*
G01*
X0368406Y0214567D01*
G75*
G02*
X0367913Y0214075I-000492J0000000D01*
G01*
X0366929Y0214075D01*
G75*
G02*
X0366437Y0214567I0000000J0000492D01*
G01*
X0366437Y0219489D01*
G75*
G02*
X0366929Y0219981I0000492J0000000D01*
G01*
G37*
G36*
G01*
X0363780Y0219981D02*
X0364764Y0219981D01*
G75*
G02*
X0365256Y0219489I0000000J-000492D01*
G01*
X0365256Y0214567D01*
G75*
G02*
X0364764Y0214075I-000492J0000000D01*
G01*
X0363780Y0214075D01*
G75*
G02*
X0363287Y0214567I0000000J0000492D01*
G01*
X0363287Y0219489D01*
G75*
G02*
X0363780Y0219981I0000492J0000000D01*
G01*
G37*
G36*
G01*
X0360630Y0219981D02*
X0361614Y0219981D01*
G75*
G02*
X0362106Y0219489I0000000J-000492D01*
G01*
X0362106Y0214567D01*
G75*
G02*
X0361614Y0214075I-000492J0000000D01*
G01*
X0360630Y0214075D01*
G75*
G02*
X0360138Y0214567I0000000J0000492D01*
G01*
X0360138Y0219489D01*
G75*
G02*
X0360630Y0219981I0000492J0000000D01*
G01*
G37*
G36*
G01*
X0357480Y0219981D02*
X0358465Y0219981D01*
G75*
G02*
X0358957Y0219489I0000000J-000492D01*
G01*
X0358957Y0214567D01*
G75*
G02*
X0358465Y0214075I-000492J0000000D01*
G01*
X0357480Y0214075D01*
G75*
G02*
X0356988Y0214567I0000000J0000492D01*
G01*
X0356988Y0219489D01*
G75*
G02*
X0357480Y0219981I0000492J0000000D01*
G01*
G37*
G36*
G01*
X0354331Y0219981D02*
X0355315Y0219981D01*
G75*
G02*
X0355807Y0219489I0000000J-000492D01*
G01*
X0355807Y0214567D01*
G75*
G02*
X0355315Y0214075I-000492J0000000D01*
G01*
X0354331Y0214075D01*
G75*
G02*
X0353839Y0214567I0000000J0000492D01*
G01*
X0353839Y0219489D01*
G75*
G02*
X0354331Y0219981I0000492J0000000D01*
G01*
G37*
G36*
G01*
X0351181Y0219981D02*
X0352165Y0219981D01*
G75*
G02*
X0352657Y0219489I0000000J-000492D01*
G01*
X0352657Y0214567D01*
G75*
G02*
X0352165Y0214075I-000492J0000000D01*
G01*
X0351181Y0214075D01*
G75*
G02*
X0350689Y0214567I0000000J0000492D01*
G01*
X0350689Y0219489D01*
G75*
G02*
X0351181Y0219981I0000492J0000000D01*
G01*
G37*
G36*
G01*
X0348031Y0219981D02*
X0349016Y0219981D01*
G75*
G02*
X0349508Y0219489I0000000J-000492D01*
G01*
X0349508Y0214567D01*
G75*
G02*
X0349016Y0214075I-000492J0000000D01*
G01*
X0348031Y0214075D01*
G75*
G02*
X0347539Y0214567I0000000J0000492D01*
G01*
X0347539Y0219489D01*
G75*
G02*
X0348031Y0219981I0000492J0000000D01*
G01*
G37*
G36*
G01*
X0340650Y0212599D02*
X0345571Y0212599D01*
G75*
G02*
X0346063Y0212107I0000000J-000492D01*
G01*
X0346063Y0211123D01*
G75*
G02*
X0345571Y0210630I-000492J0000000D01*
G01*
X0340650Y0210630D01*
G75*
G02*
X0340157Y0211123I0000000J0000492D01*
G01*
X0340157Y0212107D01*
G75*
G02*
X0340650Y0212599I0000492J0000000D01*
G01*
G37*
G36*
G01*
X0340650Y0209449D02*
X0345571Y0209449D01*
G75*
G02*
X0346063Y0208957I0000000J-000492D01*
G01*
X0346063Y0207973D01*
G75*
G02*
X0345571Y0207481I-000492J0000000D01*
G01*
X0340650Y0207481D01*
G75*
G02*
X0340157Y0207973I0000000J0000492D01*
G01*
X0340157Y0208957D01*
G75*
G02*
X0340650Y0209449I0000492J0000000D01*
G01*
G37*
G36*
G01*
X0340650Y0206300D02*
X0345571Y0206300D01*
G75*
G02*
X0346063Y0205808I0000000J-000492D01*
G01*
X0346063Y0204823D01*
G75*
G02*
X0345571Y0204331I-000492J0000000D01*
G01*
X0340650Y0204331D01*
G75*
G02*
X0340157Y0204823I0000000J0000492D01*
G01*
X0340157Y0205808D01*
G75*
G02*
X0340650Y0206300I0000492J0000000D01*
G01*
G37*
G36*
G01*
X0340650Y0203150D02*
X0345571Y0203150D01*
G75*
G02*
X0346063Y0202658I0000000J-000492D01*
G01*
X0346063Y0201674D01*
G75*
G02*
X0345571Y0201182I-000492J0000000D01*
G01*
X0340650Y0201182D01*
G75*
G02*
X0340157Y0201674I0000000J0000492D01*
G01*
X0340157Y0202658D01*
G75*
G02*
X0340650Y0203150I0000492J0000000D01*
G01*
G37*
G36*
G01*
X0340650Y0200000D02*
X0345571Y0200000D01*
G75*
G02*
X0346063Y0199508I0000000J-000492D01*
G01*
X0346063Y0198524D01*
G75*
G02*
X0345571Y0198032I-000492J0000000D01*
G01*
X0340650Y0198032D01*
G75*
G02*
X0340157Y0198524I0000000J0000492D01*
G01*
X0340157Y0199508D01*
G75*
G02*
X0340650Y0200000I0000492J0000000D01*
G01*
G37*
G36*
G01*
X0340650Y0196851D02*
X0345571Y0196851D01*
G75*
G02*
X0346063Y0196359I0000000J-000492D01*
G01*
X0346063Y0195375D01*
G75*
G02*
X0345571Y0194882I-000492J0000000D01*
G01*
X0340650Y0194882D01*
G75*
G02*
X0340157Y0195375I0000000J0000492D01*
G01*
X0340157Y0196359D01*
G75*
G02*
X0340650Y0196851I0000492J0000000D01*
G01*
G37*
G36*
G01*
X0340650Y0193701D02*
X0345571Y0193701D01*
G75*
G02*
X0346063Y0193209I0000000J-000492D01*
G01*
X0346063Y0192225D01*
G75*
G02*
X0345571Y0191733I-000492J0000000D01*
G01*
X0340650Y0191733D01*
G75*
G02*
X0340157Y0192225I0000000J0000492D01*
G01*
X0340157Y0193209D01*
G75*
G02*
X0340650Y0193701I0000492J0000000D01*
G01*
G37*
G36*
G01*
X0340650Y0190552D02*
X0345571Y0190552D01*
G75*
G02*
X0346063Y0190060I0000000J-000492D01*
G01*
X0346063Y0189075D01*
G75*
G02*
X0345571Y0188583I-000492J0000000D01*
G01*
X0340650Y0188583D01*
G75*
G02*
X0340157Y0189075I0000000J0000492D01*
G01*
X0340157Y0190060D01*
G75*
G02*
X0340650Y0190552I0000492J0000000D01*
G01*
G37*
G36*
G01*
X0348031Y0187107D02*
X0349016Y0187107D01*
G75*
G02*
X0349508Y0186615I0000000J-000492D01*
G01*
X0349508Y0181693D01*
G75*
G02*
X0349016Y0181201I-000492J0000000D01*
G01*
X0348031Y0181201D01*
G75*
G02*
X0347539Y0181693I0000000J0000492D01*
G01*
X0347539Y0186615D01*
G75*
G02*
X0348031Y0187107I0000492J0000000D01*
G01*
G37*
G36*
G01*
X0351181Y0187107D02*
X0352165Y0187107D01*
G75*
G02*
X0352657Y0186615I0000000J-000492D01*
G01*
X0352657Y0181693D01*
G75*
G02*
X0352165Y0181201I-000492J0000000D01*
G01*
X0351181Y0181201D01*
G75*
G02*
X0350689Y0181693I0000000J0000492D01*
G01*
X0350689Y0186615D01*
G75*
G02*
X0351181Y0187107I0000492J0000000D01*
G01*
G37*
G36*
G01*
X0354331Y0187107D02*
X0355315Y0187107D01*
G75*
G02*
X0355807Y0186615I0000000J-000492D01*
G01*
X0355807Y0181693D01*
G75*
G02*
X0355315Y0181201I-000492J0000000D01*
G01*
X0354331Y0181201D01*
G75*
G02*
X0353839Y0181693I0000000J0000492D01*
G01*
X0353839Y0186615D01*
G75*
G02*
X0354331Y0187107I0000492J0000000D01*
G01*
G37*
G36*
G01*
X0357480Y0187107D02*
X0358465Y0187107D01*
G75*
G02*
X0358957Y0186615I0000000J-000492D01*
G01*
X0358957Y0181693D01*
G75*
G02*
X0358465Y0181201I-000492J0000000D01*
G01*
X0357480Y0181201D01*
G75*
G02*
X0356988Y0181693I0000000J0000492D01*
G01*
X0356988Y0186615D01*
G75*
G02*
X0357480Y0187107I0000492J0000000D01*
G01*
G37*
G36*
G01*
X0360630Y0187107D02*
X0361614Y0187107D01*
G75*
G02*
X0362106Y0186615I0000000J-000492D01*
G01*
X0362106Y0181693D01*
G75*
G02*
X0361614Y0181201I-000492J0000000D01*
G01*
X0360630Y0181201D01*
G75*
G02*
X0360138Y0181693I0000000J0000492D01*
G01*
X0360138Y0186615D01*
G75*
G02*
X0360630Y0187107I0000492J0000000D01*
G01*
G37*
G36*
G01*
X0363780Y0187107D02*
X0364764Y0187107D01*
G75*
G02*
X0365256Y0186615I0000000J-000492D01*
G01*
X0365256Y0181693D01*
G75*
G02*
X0364764Y0181201I-000492J0000000D01*
G01*
X0363780Y0181201D01*
G75*
G02*
X0363287Y0181693I0000000J0000492D01*
G01*
X0363287Y0186615D01*
G75*
G02*
X0363780Y0187107I0000492J0000000D01*
G01*
G37*
G36*
G01*
X0366929Y0187107D02*
X0367913Y0187107D01*
G75*
G02*
X0368406Y0186615I0000000J-000492D01*
G01*
X0368406Y0181693D01*
G75*
G02*
X0367913Y0181201I-000492J0000000D01*
G01*
X0366929Y0181201D01*
G75*
G02*
X0366437Y0181693I0000000J0000492D01*
G01*
X0366437Y0186615D01*
G75*
G02*
X0366929Y0187107I0000492J0000000D01*
G01*
G37*
G36*
G01*
X0370079Y0187107D02*
X0371063Y0187107D01*
G75*
G02*
X0371555Y0186615I0000000J-000492D01*
G01*
X0371555Y0181693D01*
G75*
G02*
X0371063Y0181201I-000492J0000000D01*
G01*
X0370079Y0181201D01*
G75*
G02*
X0369587Y0181693I0000000J0000492D01*
G01*
X0369587Y0186615D01*
G75*
G02*
X0370079Y0187107I0000492J0000000D01*
G01*
G37*
G36*
G01*
X0373524Y0190552D02*
X0378445Y0190552D01*
G75*
G02*
X0378937Y0190060I0000000J-000492D01*
G01*
X0378937Y0189075D01*
G75*
G02*
X0378445Y0188583I-000492J0000000D01*
G01*
X0373524Y0188583D01*
G75*
G02*
X0373031Y0189075I0000000J0000492D01*
G01*
X0373031Y0190060D01*
G75*
G02*
X0373524Y0190552I0000492J0000000D01*
G01*
G37*
G36*
G01*
X0373524Y0193701D02*
X0378445Y0193701D01*
G75*
G02*
X0378937Y0193209I0000000J-000492D01*
G01*
X0378937Y0192225D01*
G75*
G02*
X0378445Y0191733I-000492J0000000D01*
G01*
X0373524Y0191733D01*
G75*
G02*
X0373031Y0192225I0000000J0000492D01*
G01*
X0373031Y0193209D01*
G75*
G02*
X0373524Y0193701I0000492J0000000D01*
G01*
G37*
G36*
G01*
X0373524Y0196851D02*
X0378445Y0196851D01*
G75*
G02*
X0378937Y0196359I0000000J-000492D01*
G01*
X0378937Y0195375D01*
G75*
G02*
X0378445Y0194882I-000492J0000000D01*
G01*
X0373524Y0194882D01*
G75*
G02*
X0373031Y0195375I0000000J0000492D01*
G01*
X0373031Y0196359D01*
G75*
G02*
X0373524Y0196851I0000492J0000000D01*
G01*
G37*
G36*
G01*
X0373524Y0200000D02*
X0378445Y0200000D01*
G75*
G02*
X0378937Y0199508I0000000J-000492D01*
G01*
X0378937Y0198524D01*
G75*
G02*
X0378445Y0198032I-000492J0000000D01*
G01*
X0373524Y0198032D01*
G75*
G02*
X0373031Y0198524I0000000J0000492D01*
G01*
X0373031Y0199508D01*
G75*
G02*
X0373524Y0200000I0000492J0000000D01*
G01*
G37*
G36*
G01*
X0373524Y0203150D02*
X0378445Y0203150D01*
G75*
G02*
X0378937Y0202658I0000000J-000492D01*
G01*
X0378937Y0201674D01*
G75*
G02*
X0378445Y0201182I-000492J0000000D01*
G01*
X0373524Y0201182D01*
G75*
G02*
X0373031Y0201674I0000000J0000492D01*
G01*
X0373031Y0202658D01*
G75*
G02*
X0373524Y0203150I0000492J0000000D01*
G01*
G37*
G36*
G01*
X0373524Y0206300D02*
X0378445Y0206300D01*
G75*
G02*
X0378937Y0205808I0000000J-000492D01*
G01*
X0378937Y0204823D01*
G75*
G02*
X0378445Y0204331I-000492J0000000D01*
G01*
X0373524Y0204331D01*
G75*
G02*
X0373031Y0204823I0000000J0000492D01*
G01*
X0373031Y0205808D01*
G75*
G02*
X0373524Y0206300I0000492J0000000D01*
G01*
G37*
G36*
G01*
X0373524Y0209449D02*
X0378445Y0209449D01*
G75*
G02*
X0378937Y0208957I0000000J-000492D01*
G01*
X0378937Y0207973D01*
G75*
G02*
X0378445Y0207481I-000492J0000000D01*
G01*
X0373524Y0207481D01*
G75*
G02*
X0373031Y0207973I0000000J0000492D01*
G01*
X0373031Y0208957D01*
G75*
G02*
X0373524Y0209449I0000492J0000000D01*
G01*
G37*
G36*
G01*
X0373524Y0212599D02*
X0378445Y0212599D01*
G75*
G02*
X0378937Y0212107I0000000J-000492D01*
G01*
X0378937Y0211123D01*
G75*
G02*
X0378445Y0210630I-000492J0000000D01*
G01*
X0373524Y0210630D01*
G75*
G02*
X0373031Y0211123I0000000J0000492D01*
G01*
X0373031Y0212107D01*
G75*
G02*
X0373524Y0212599I0000492J0000000D01*
G01*
G37*
G36*
G01*
X0351978Y0177973D02*
X0353337Y0177973D01*
G75*
G02*
X0353917Y0177392I0000000J-000581D01*
G01*
X0353917Y0176231D01*
G75*
G02*
X0353337Y0175650I-000581J0000000D01*
G01*
X0351978Y0175650D01*
G75*
G02*
X0351398Y0176231I0000000J0000581D01*
G01*
X0351398Y0177392D01*
G75*
G02*
X0351978Y0177973I0000581J0000000D01*
G01*
G37*
G36*
G01*
X0351978Y0174154D02*
X0353337Y0174154D01*
G75*
G02*
X0353917Y0173573I0000000J-000581D01*
G01*
X0353917Y0172412D01*
G75*
G02*
X0353337Y0171831I-000581J0000000D01*
G01*
X0351978Y0171831D01*
G75*
G02*
X0351398Y0172412I0000000J0000581D01*
G01*
X0351398Y0173573D01*
G75*
G02*
X0351978Y0174154I0000581J0000000D01*
G01*
G37*
G36*
G01*
X0375374Y0185050D02*
X0375374Y0186408D01*
G75*
G02*
X0375955Y0186989I0000581J0000000D01*
G01*
X0377116Y0186989D01*
G75*
G02*
X0377697Y0186408I0000000J-000581D01*
G01*
X0377697Y0185050D01*
G75*
G02*
X0377116Y0184469I-000581J0000000D01*
G01*
X0375955Y0184469D01*
G75*
G02*
X0375374Y0185050I0000000J0000581D01*
G01*
G37*
G36*
G01*
X0379193Y0185050D02*
X0379193Y0186408D01*
G75*
G02*
X0379774Y0186989I0000581J0000000D01*
G01*
X0380935Y0186989D01*
G75*
G02*
X0381516Y0186408I0000000J-000581D01*
G01*
X0381516Y0185050D01*
G75*
G02*
X0380935Y0184469I-000581J0000000D01*
G01*
X0379774Y0184469D01*
G75*
G02*
X0379193Y0185050I0000000J0000581D01*
G01*
G37*
G36*
G01*
X0353337Y0161406D02*
X0351978Y0161406D01*
G75*
G02*
X0351398Y0161987I0000000J0000581D01*
G01*
X0351398Y0163148D01*
G75*
G02*
X0351978Y0163729I0000581J0000000D01*
G01*
X0353337Y0163729D01*
G75*
G02*
X0353917Y0163148I0000000J-000581D01*
G01*
X0353917Y0161987D01*
G75*
G02*
X0353337Y0161406I-000581J0000000D01*
G01*
G37*
G36*
G01*
X0353337Y0165225D02*
X0351978Y0165225D01*
G75*
G02*
X0351398Y0165806I0000000J0000581D01*
G01*
X0351398Y0166967D01*
G75*
G02*
X0351978Y0167548I0000581J0000000D01*
G01*
X0353337Y0167548D01*
G75*
G02*
X0353917Y0166967I0000000J-000581D01*
G01*
X0353917Y0165806D01*
G75*
G02*
X0353337Y0165225I-000581J0000000D01*
G01*
G37*
D156*
X0347736Y0162894D03*
X0347736Y0170375D03*
X0339862Y0166634D03*
G36*
G01*
X0373504Y0221959D02*
X0373504Y0223317D01*
G75*
G02*
X0374085Y0223898I0000581J0000000D01*
G01*
X0375246Y0223898D01*
G75*
G02*
X0375827Y0223317I0000000J-000581D01*
G01*
X0375827Y0221959D01*
G75*
G02*
X0375246Y0221378I-000581J0000000D01*
G01*
X0374085Y0221378D01*
G75*
G02*
X0373504Y0221959I0000000J0000581D01*
G01*
G37*
G36*
G01*
X0377323Y0221959D02*
X0377323Y0223317D01*
G75*
G02*
X0377904Y0223898I0000581J0000000D01*
G01*
X0379065Y0223898D01*
G75*
G02*
X0379646Y0223317I0000000J-000581D01*
G01*
X0379646Y0221959D01*
G75*
G02*
X0379065Y0221378I-000581J0000000D01*
G01*
X0377904Y0221378D01*
G75*
G02*
X0377323Y0221959I0000000J0000581D01*
G01*
G37*
G36*
G01*
X0338465Y0175832D02*
X0338465Y0177850D01*
G75*
G02*
X0339326Y0178711I0000861J0000000D01*
G01*
X0341048Y0178711D01*
G75*
G02*
X0341909Y0177850I0000000J-000861D01*
G01*
X0341909Y0175832D01*
G75*
G02*
X0341048Y0174971I-000861J0000000D01*
G01*
X0339326Y0174971D01*
G75*
G02*
X0338465Y0175832I0000000J0000861D01*
G01*
G37*
G36*
G01*
X0344665Y0175832D02*
X0344665Y0177850D01*
G75*
G02*
X0345527Y0178711I0000861J0000000D01*
G01*
X0347249Y0178711D01*
G75*
G02*
X0348110Y0177850I0000000J-000861D01*
G01*
X0348110Y0175832D01*
G75*
G02*
X0347249Y0174971I-000861J0000000D01*
G01*
X0345527Y0174971D01*
G75*
G02*
X0344665Y0175832I0000000J0000861D01*
G01*
G37*
D171*
X0380610Y0160079D03*
X0384610Y0180079D03*
X0376610Y0180079D03*
D168*
X0383110Y0165079D03*
X0378110Y0165079D03*
X0383110Y0170079D03*
X0378110Y0170079D03*
X0383110Y0175079D03*
X0378110Y0175079D03*
D309*
X0341732Y0249567D03*
D310*
X0341732Y0239567D03*
X0341732Y0229567D03*
X0312992Y0189764D02*
G01*
G75*
D408*
X0189370Y0171674D02*
D03*
X0182283Y0171674D02*
D03*
X0182283Y0181713D02*
D03*
X0189370Y0181713D02*
D03*
X0301181Y0122933D02*
D03*
X0308268Y0122933D02*
D03*
X0308268Y0132973D02*
D03*
X0301181Y0132973D02*
D03*
X0301181Y0116831D02*
D03*
X0308268Y0116831D02*
D03*
X0308268Y0106791D02*
D03*
X0301181Y0106791D02*
D03*
D409*
X0189370Y0175118D02*
D03*
X0189370Y0178268D02*
D03*
X0182283Y0178268D02*
D03*
X0182283Y0175118D02*
D03*
X0308268Y0129528D02*
D03*
X0308268Y0126378D02*
D03*
X0301181Y0126378D02*
D03*
X0301181Y0129528D02*
D03*
X0301181Y0113386D02*
D03*
X0301181Y0110236D02*
D03*
X0308268Y0110236D02*
D03*
X0308268Y0113386D02*
D03*
D410*
X0193582Y0174670D02*
D03*
X0193582Y0172111D02*
D03*
X0193582Y0169551D02*
D03*
X0201062Y0174670D02*
D03*
X0201062Y0169551D02*
D03*
X0201062Y0172111D02*
D03*
X0201062Y0179295D02*
D03*
X0201062Y0184414D02*
D03*
X0193582Y0179295D02*
D03*
X0193582Y0181855D02*
D03*
X0193582Y0184414D02*
D03*
X0201062Y0181855D02*
D03*
D205*
X0260790Y0075394D02*
D03*
X0260790Y0077362D02*
D03*
X0260790Y0079331D02*
D03*
X0260790Y0081299D02*
D03*
X0260790Y0083268D02*
D03*
X0260790Y0085236D02*
D03*
X0260790Y0087205D02*
D03*
X0260790Y0089173D02*
D03*
X0260790Y0091142D02*
D03*
X0260790Y0095079D02*
D03*
X0260790Y0097048D02*
D03*
X0260790Y0099016D02*
D03*
X0260790Y0100985D02*
D03*
X0260790Y0102953D02*
D03*
X0260790Y0104922D02*
D03*
X0260790Y0106890D02*
D03*
X0260790Y0108859D02*
D03*
X0260790Y0110827D02*
D03*
X0260790Y0112796D02*
D03*
X0260790Y0114764D02*
D03*
X0260790Y0116732D02*
D03*
X0260790Y0118701D02*
D03*
X0260790Y0120669D02*
D03*
X0260790Y0122638D02*
D03*
X0199766Y0122638D02*
D03*
X0199766Y0120669D02*
D03*
X0199766Y0118701D02*
D03*
X0199766Y0116732D02*
D03*
X0199766Y0114764D02*
D03*
X0199766Y0112796D02*
D03*
X0199766Y0110827D02*
D03*
X0199766Y0108859D02*
D03*
X0199766Y0106890D02*
D03*
X0199766Y0104922D02*
D03*
X0199766Y0102953D02*
D03*
X0199766Y0100985D02*
D03*
X0199766Y0099016D02*
D03*
X0199766Y0097048D02*
D03*
X0199766Y0095079D02*
D03*
X0199766Y0093111D02*
D03*
X0199766Y0091142D02*
D03*
X0199766Y0089173D02*
D03*
X0199766Y0087205D02*
D03*
X0199766Y0085236D02*
D03*
X0199766Y0083268D02*
D03*
X0199766Y0081299D02*
D03*
X0199766Y0079331D02*
D03*
X0199766Y0075394D02*
D03*
X0260790Y0093111D02*
D03*
X0199766Y0077362D02*
D03*
D206*
X0253900Y0129528D02*
D03*
X0249963Y0129528D02*
D03*
X0247994Y0129528D02*
D03*
X0246026Y0129528D02*
D03*
X0244057Y0129528D02*
D03*
X0242089Y0129528D02*
D03*
X0240120Y0129528D02*
D03*
X0238152Y0129528D02*
D03*
X0236183Y0129528D02*
D03*
X0234215Y0129528D02*
D03*
X0232246Y0129528D02*
D03*
X0230278Y0129528D02*
D03*
X0228309Y0129528D02*
D03*
X0226341Y0129528D02*
D03*
X0224372Y0129528D02*
D03*
X0222404Y0129528D02*
D03*
X0220435Y0129528D02*
D03*
X0218467Y0129528D02*
D03*
X0216498Y0129528D02*
D03*
X0214530Y0129528D02*
D03*
X0212561Y0129528D02*
D03*
X0210593Y0129528D02*
D03*
X0208624Y0129528D02*
D03*
X0206656Y0129528D02*
D03*
X0206656Y0068504D02*
D03*
X0208624Y0068504D02*
D03*
X0210593Y0068504D02*
D03*
X0212561Y0068504D02*
D03*
X0214530Y0068504D02*
D03*
X0216498Y0068504D02*
D03*
X0218467Y0068504D02*
D03*
X0220435Y0068504D02*
D03*
X0222404Y0068504D02*
D03*
X0224372Y0068504D02*
D03*
X0226341Y0068504D02*
D03*
X0228309Y0068504D02*
D03*
X0230278Y0068504D02*
D03*
X0232246Y0068504D02*
D03*
X0234215Y0068504D02*
D03*
X0236183Y0068504D02*
D03*
X0238152Y0068504D02*
D03*
X0240120Y0068504D02*
D03*
X0242089Y0068504D02*
D03*
X0244057Y0068504D02*
D03*
X0246026Y0068504D02*
D03*
X0247994Y0068504D02*
D03*
X0249963Y0068504D02*
D03*
X0251931Y0068504D02*
D03*
X0253900Y0068504D02*
D03*
X0251931Y0129528D02*
D03*
D207*
X0257283Y0146457D02*
D03*
X0229331Y0146457D02*
D03*
X0285236Y0146457D02*
D03*
X0279724Y0151575D02*
D03*
X0251771Y0141339D02*
D03*
X0251771Y0143898D02*
D03*
X0251771Y0146457D02*
D03*
X0251771Y0149016D02*
D03*
X0251771Y0151575D02*
D03*
X0251771Y0154134D02*
D03*
X0251771Y0156693D02*
D03*
X0229331Y0141339D02*
D03*
X0229331Y0143898D02*
D03*
X0229331Y0149016D02*
D03*
X0229331Y0151575D02*
D03*
X0229331Y0154134D02*
D03*
X0229331Y0156693D02*
D03*
X0307677Y0141339D02*
D03*
X0307677Y0143898D02*
D03*
X0307677Y0146457D02*
D03*
X0307677Y0149016D02*
D03*
X0307677Y0151575D02*
D03*
X0307677Y0154134D02*
D03*
X0307677Y0156693D02*
D03*
X0285236Y0141339D02*
D03*
X0285236Y0143898D02*
D03*
X0285236Y0149016D02*
D03*
X0285236Y0151575D02*
D03*
X0285236Y0154134D02*
D03*
X0285236Y0156693D02*
D03*
X0279724Y0141339D02*
D03*
X0279724Y0143898D02*
D03*
X0279724Y0146457D02*
D03*
X0279724Y0149016D02*
D03*
X0279724Y0154134D02*
D03*
X0279724Y0156693D02*
D03*
X0257283Y0141339D02*
D03*
X0257283Y0143898D02*
D03*
X0257283Y0149016D02*
D03*
X0257283Y0151575D02*
D03*
X0257283Y0154134D02*
D03*
X0257283Y0156693D02*
D03*
X0201378Y0156693D02*
D03*
X0201378Y0154134D02*
D03*
X0201378Y0151575D02*
D03*
X0201378Y0149016D02*
D03*
X0201378Y0146457D02*
D03*
X0201378Y0143898D02*
D03*
X0201378Y0141339D02*
D03*
X0223819Y0156693D02*
D03*
X0223819Y0154134D02*
D03*
X0223819Y0151575D02*
D03*
X0223819Y0149016D02*
D03*
X0223819Y0146457D02*
D03*
X0223819Y0143898D02*
D03*
X0223819Y0141339D02*
D03*
D208*
X0202874Y0055571D02*
D03*
X0202874Y0060571D02*
D03*
X0207874Y0055571D02*
D03*
X0207874Y0060571D02*
D03*
X0212874Y0055571D02*
D03*
X0212874Y0060571D02*
D03*
D411*
X0188583Y0054331D02*
D03*
X0184842Y0054331D02*
D03*
X0192323Y0054331D02*
D03*
X0192323Y0063780D02*
D03*
X0188583Y0063780D02*
D03*
X0184842Y0063780D02*
D03*
D412*
X0187133Y0075591D02*
D03*
X0187133Y0070866D02*
D03*
X0188602Y0085138D02*
D03*
X0275142Y0058353D02*
D03*
X0261830Y0134219D02*
D03*
X0191069Y0075591D02*
D03*
X0184664Y0085138D02*
D03*
X0189964Y0122122D02*
D03*
X0186027Y0122122D02*
D03*
X0189964Y0131177D02*
D03*
X0186027Y0131177D02*
D03*
X0191069Y0070866D02*
D03*
X0271205Y0058353D02*
D03*
X0278282Y0075068D02*
D03*
X0274345Y0075068D02*
D03*
X0257893Y0134219D02*
D03*
X0257874Y0129923D02*
D03*
X0261811Y0129923D02*
D03*
D211*
X0184676Y0093773D02*
D03*
X0184676Y0095741D02*
D03*
X0190975Y0091804D02*
D03*
X0190975Y0093773D02*
D03*
X0190975Y0089836D02*
D03*
X0190975Y0095741D02*
D03*
X0184676Y0089836D02*
D03*
X0184676Y0091804D02*
D03*
D212*
X0186841Y0095938D02*
D03*
X0188810Y0095938D02*
D03*
X0188810Y0089639D02*
D03*
X0186841Y0089639D02*
D03*
D413*
X0189581Y0100788D02*
D03*
X0189581Y0117323D02*
D03*
D414*
X0218110Y0173229D02*
D03*
X0208661Y0173229D02*
D03*
X0213386Y0173229D02*
D03*
X0222834Y0173229D02*
D03*
X0208661Y0184646D02*
D03*
X0218110Y0184646D02*
D03*
X0213386Y0184646D02*
D03*
X0222834Y0184646D02*
D03*
X0229044Y0166249D02*
D03*
X0229044Y0162312D02*
D03*
X0222834Y0180709D02*
D03*
D03*
X0222834Y0176772D02*
D03*
X0218110Y0180709D02*
D03*
X0218110Y0176772D02*
D03*
X0222834Y0169292D02*
D03*
X0213386Y0180709D02*
D03*
X0213386Y0176772D02*
D03*
X0218110Y0169292D02*
D03*
X0213386Y0169292D02*
D03*
X0208661Y0180709D02*
D03*
X0208661Y0176772D02*
D03*
X0208661Y0180709D02*
D03*
X0208661Y0169292D02*
D03*
X0218110Y0180709D02*
D03*
X0213386Y0180709D02*
D03*
X0308858Y0178347D02*
D03*
X0308858Y0182284D02*
D03*
X0284252Y0180709D02*
D03*
X0284252Y0184646D02*
D03*
X0270079Y0180709D02*
D03*
X0270079Y0184646D02*
D03*
X0251181Y0176772D02*
D03*
X0251181Y0180709D02*
D03*
X0251181Y0184646D02*
D03*
X0251181Y0180709D02*
D03*
X0237008Y0176772D02*
D03*
X0237008Y0180709D02*
D03*
X0308858Y0161614D02*
D03*
X0308858Y0165551D02*
D03*
X0303149Y0180709D02*
D03*
X0303149Y0176772D02*
D03*
X0298425Y0180709D02*
D03*
X0298425Y0176772D02*
D03*
X0293701Y0180709D02*
D03*
X0293701Y0176772D02*
D03*
X0288976Y0180709D02*
D03*
X0288976Y0176772D02*
D03*
X0303149Y0180709D02*
D03*
X0303149Y0184646D02*
D03*
X0298425Y0180709D02*
D03*
X0298425Y0184646D02*
D03*
X0293701Y0180709D02*
D03*
X0293701Y0184646D02*
D03*
X0288976Y0180709D02*
D03*
X0288976Y0184646D02*
D03*
X0284252Y0180709D02*
D03*
X0284252Y0176772D02*
D03*
X0279527Y0180709D02*
D03*
X0279527Y0176772D02*
D03*
X0274803Y0180709D02*
D03*
X0274803Y0176772D02*
D03*
X0270079Y0180709D02*
D03*
X0270079Y0176772D02*
D03*
X0279527Y0180709D02*
D03*
X0279527Y0184646D02*
D03*
X0274803Y0180709D02*
D03*
X0274803Y0184646D02*
D03*
X0265354Y0176772D02*
D03*
X0265354Y0180709D02*
D03*
X0260630Y0176772D02*
D03*
X0260630Y0180709D02*
D03*
X0255905Y0176772D02*
D03*
X0255905Y0180709D02*
D03*
X0265354Y0184646D02*
D03*
X0265354Y0180709D02*
D03*
X0260630Y0184646D02*
D03*
X0260630Y0180709D02*
D03*
X0255905Y0184646D02*
D03*
X0255905Y0180709D02*
D03*
X0246456Y0176772D02*
D03*
X0246456Y0180709D02*
D03*
X0241732Y0176772D02*
D03*
X0241732Y0180709D02*
D03*
X0232283Y0176772D02*
D03*
X0232283Y0180709D02*
D03*
X0246456Y0184646D02*
D03*
X0246456Y0180709D02*
D03*
X0241732Y0184646D02*
D03*
X0241732Y0180709D02*
D03*
X0237008Y0184646D02*
D03*
X0237008Y0180709D02*
D03*
X0232283Y0184646D02*
D03*
X0232283Y0180709D02*
D03*
X0308858Y0170670D02*
D03*
X0308858Y0174607D02*
D03*
D415*
X0244094Y0167717D02*
D03*
X0262992Y0167717D02*
D03*
X0281890Y0167717D02*
D03*
X0300787Y0167717D02*
D03*
X0272441Y0163977D02*
D03*
X0272441Y0167717D02*
D03*
X0272441Y0171457D02*
D03*
X0281890Y0171457D02*
D03*
X0281890Y0163977D02*
D03*
X0291338Y0163977D02*
D03*
X0291338Y0167717D02*
D03*
X0291338Y0171457D02*
D03*
X0300787Y0171457D02*
D03*
X0300787Y0163977D02*
D03*
X0253543Y0163977D02*
D03*
X0253543Y0167717D02*
D03*
X0253543Y0171457D02*
D03*
X0262992Y0171457D02*
D03*
X0262992Y0163977D02*
D03*
X0234645Y0163977D02*
D03*
X0234645Y0167717D02*
D03*
X0234645Y0171457D02*
D03*
X0244094Y0171457D02*
D03*
X0244094Y0163977D02*
D03*
D416*
X0278079Y0070682D02*
D03*
X0260157Y0060433D02*
D03*
D217*
X0287401Y0095805D02*
D03*
X0306299Y0100805D02*
D03*
X0306299Y0085805D02*
D03*
X0306299Y0090805D02*
D03*
X0306299Y0095805D02*
D03*
X0287401Y0085805D02*
D03*
X0287401Y0090805D02*
D03*
X0287401Y0100805D02*
D03*
D417*
X0305709Y0078164D02*
D03*
X0287598Y0078164D02*
D03*
D418*
X0271247Y0109690D02*
D03*
X0287456Y0110238D02*
D03*
X0270770Y0117850D02*
D03*
X0270770Y0125461D02*
D03*
X0287456Y0117850D02*
D03*
X0287456Y0125461D02*
D03*
X0270770Y0133073D02*
D03*
X0287456Y0133073D02*
D03*
X0277940Y0109690D02*
D03*
X0277463Y0117850D02*
D03*
X0277463Y0125461D02*
D03*
X0277463Y0133073D02*
D03*
X0294149Y0117850D02*
D03*
X0294149Y0110238D02*
D03*
X0277940Y0101713D02*
D03*
X0271247Y0101713D02*
D03*
X0271247Y0094626D02*
D03*
X0277940Y0094626D02*
D03*
X0277940Y0087540D02*
D03*
X0271247Y0087540D02*
D03*
X0271247Y0080453D02*
D03*
X0277940Y0080453D02*
D03*
X0294149Y0125461D02*
D03*
X0294149Y0133073D02*
D03*
X0271247Y0052953D02*
D03*
X0277940Y0052953D02*
D03*
D419*
X0184573Y0080366D02*
D03*
X0190873Y0080366D02*
D03*
X0191933Y0126807D02*
D03*
X0185633Y0126807D02*
D03*
D420*
X0225198Y0057424D02*
D03*
X0241733Y0057424D02*
D03*
D416*
X0260157Y0052953D02*
D03*
X0250905Y0056693D02*
D03*
X0278079Y0063202D02*
D03*
X0268827Y0066942D02*
D03*
D421*
X0296653Y0053754D02*
D03*
D422*
X0296653Y0078164D02*
D03*
D224*
X0227362Y0180709D02*
D03*
X0308268Y0186614D02*
D03*
D423*
X0190171Y0162967D02*
D03*
X0190171Y0145251D02*
D03*
D226*
X0235079Y0135630D02*
D03*
X0220866Y0135630D02*
D03*
X0250866Y0135630D02*
D03*
D227*
X0197874Y0058071D02*
D03*
X0217874Y0062071D02*
D03*
X0217874Y0054071D02*
D03*
D38*
X0308661Y0052362D02*
D03*
X0120571Y0215256D02*
G01*
G75*
D272*
X0121654Y0171949D02*
D03*
D271*
X0121851Y0212697D02*
D03*
X0121851Y0210728D02*
D03*
D462*
X0133583Y0203839D02*
D03*
X0124331Y0207579D02*
D03*
D462*
X0133583Y0211319D02*
D03*
D452*
X0145197Y0196280D02*
D03*
X0140197Y0196280D02*
D03*
X0135197Y0196280D02*
D03*
X0130197Y0196280D02*
D03*
X0145197Y0177382D02*
D03*
X0140197Y0177382D02*
D03*
X0135197Y0177382D02*
D03*
X0130197Y0177382D02*
D03*
D463*
X0124902Y0180571D02*
D03*
X0124902Y0174351D02*
D03*
X0124902Y0188917D02*
D03*
X0124902Y0195138D02*
D03*
D464*
X0138484Y0210729D02*
D03*
X0138484Y0204429D02*
D03*
D129*
X0122441Y0200099D02*
D03*
X0144980Y0184055D02*
D03*
X0131004Y0183760D02*
D03*
X0125984Y0184941D02*
D03*
X0128051Y0188386D02*
D03*
M02*
